<?xml version="1.0" encoding="UTF-8"?>
<svg width="24px" height="24px" viewBox="0 0 24 24" version="1.1" xmlns="http://www.w3.org/2000/svg" xmlns:xlink="http://www.w3.org/1999/xlink">
    <!-- Generator: Sketch 60.1 (88133) - https://sketch.com -->
    <title>my order-express already-nl</title>
    <desc>Created with Sketch.</desc>
    <g id="页面-1" stroke="none" stroke-width="1" fill="none" fill-rule="evenodd">
        <g id="订单管理-物流弹出框-状态1" transform="translate(-791.000000, -753.000000)" fill-rule="nonzero">
            <g id="编组-2" transform="translate(754.000000, 213.000000)">
                <g id="my-order-express-already-nl" transform="translate(37.000000, 540.000000)">
                    <circle id="椭圆形" fill="#DDDDDD" cx="12" cy="12" r="12"></circle>
                    <g id="编组" transform="translate(5.000000, 6.000000)" fill="#FFFFFF">
                        <path d="M12.8928571,0.428571422 L1.10714287,0.428571422 C0.811428578,0.428571422 0.571428578,0.666 0.571428578,0.959142867 L0.571428578,3.612 C0.571428578,3.90514287 0.811428578,4.143 1.10714287,4.143 L1.10714287,10.6114286 C1.11442858,10.9114286 1.36557145,11.1488572 1.66857142,11.1424286 L12.3292857,11.1424286 C12.475,11.1462857 12.6164286,11.0922857 12.7222857,10.9924286 C12.8281428,10.893 12.8894286,10.7562857 12.8928571,10.6114286 L12.8928571,4.143 C13.0351428,4.143 13.1714286,4.08728571 13.2717143,3.98742858 C13.372,3.888 13.4285714,3.753 13.4285714,3.612 L13.4285714,0.959142867 C13.4285714,0.666 13.1885714,0.428571422 12.8928571,0.428571422 L12.8928571,0.428571422 Z M11.7734286,4.143 L11.7734286,10.0812857 L2.23214287,10.0812857 L2.23214287,4.143 L11.7734286,4.143 Z M8.60714287,5.36742858 L5.39285713,5.36742858 C5.09714284,5.36742858 4.85714287,5.60485716 4.85714287,5.898 C4.85714287,6.19071429 5.09714287,6.42857142 5.39285713,6.42857142 L8.60714287,6.42857142 C8.90285716,6.42857142 9.14285713,6.19071429 9.14285713,5.898 C9.14285713,5.60485713 8.90285713,5.36742858 8.60714287,5.36742858 Z M12.3571429,1.48971429 L12.3571429,3.08142858 L1.64285713,3.08142858 L1.64285713,1.48971429 L12.3571429,1.48971429 Z" id="形状"></path>
                    </g>
                </g>
            </g>
        </g>
    </g>
</svg>