<?xml version="1.0" encoding="UTF-8"?>
<svg width="24px" height="24px" viewBox="0 0 24 24" version="1.1" xmlns="http://www.w3.org/2000/svg" xmlns:xlink="http://www.w3.org/1999/xlink">
    <!-- Generator: Sketch 60.1 (88133) - https://sketch.com -->
    <title>my order-Problem</title>
    <desc>Created with Sketch.</desc>
    <g id="页面-1" stroke="none" stroke-width="1" fill="none" fill-rule="evenodd">
        <g id="订单管理-物流弹出框-状态1" transform="translate(-1027.000000, -489.000000)" fill-rule="nonzero">
            <g id="编组-2" transform="translate(754.000000, 213.000000)">
                <g id="my-order-Problem" transform="translate(273.000000, 276.000000)">
                    <circle id="椭圆形" fill="#4874EF" cx="12" cy="12" r="12"></circle>
                    <g id="编组-3" transform="translate(7.000000, 5.000000)" fill="#FFFFFF">
                        <path d="M4.28307691,14.1046154 C3.49384614,14.1046154 2.85461538,13.4469231 2.85461538,12.6353846 C2.85461538,11.8238461 3.49384614,11.1661538 4.28307691,11.1661538 C5.07307689,11.1661538 5.71307693,11.8238461 5.71307693,12.6353846 C5.71307693,13.4469231 5.07307692,14.1046154 4.28307691,14.1046154 L4.28307691,14.1046154 Z" id="路径"></path>
                        <path d="M8.27538461,4.87076922 C8.09175456,5.23146518 7.85472492,5.56237309 7.57230769,5.85230768 C7.30153847,6.1276923 6.81384616,6.59076923 6.11076921,7.24384614 C5.94604892,7.3963839 5.79015518,7.55818466 5.64384616,7.72846153 C5.54163275,7.84465457 5.45381814,7.97276057 5.38230767,8.10999998 C5.32538459,8.2253846 5.28153845,8.3407692 5.24999999,8.45615383 C5.21923075,8.57153845 5.17153846,8.77461536 5.10846152,9.06538459 C5,9.68230766 4.65999999,9.99 4.08846153,9.99 C3.79153844,9.99 3.54076924,9.88923078 3.33846154,9.6876923 C3.13538463,9.48615385 3.03461538,9.1876923 3.03461538,8.78923076 C3.03461538,8.29230769 3.10846154,7.86076924 3.25692306,7.49692306 C3.4053846,7.13230767 3.6030769,6.81230767 3.84923077,6.53692305 C4.09461539,6.26230766 4.42615384,5.93384614 4.84230767,5.55461538 C5.20846153,5.22384615 5.47307689,4.97307691 5.63461537,4.80384614 C5.79846153,4.63461536 5.93538461,4.44692307 6.04692306,4.23923076 C6.15846151,4.03153845 6.21384612,3.80692306 6.21384615,3.56461537 C6.21384615,3.08999999 6.04461537,2.68999999 5.70461538,2.36461538 C5.36384615,2.03923076 4.92538462,1.8753846 4.38846152,1.8753846 C3.75999999,1.8753846 3.29615383,2.03999998 3,2.36923075 C2.7030769,2.69769229 2.45153845,3.18153843 2.24615383,3.8230769 C2.05153845,4.49230768 1.68307691,4.82615383 1.13999998,4.82615383 C0.819999979,4.82615383 0.549999979,4.70923075 0.329999982,4.47538459 C0.109999985,4.2407692 -5.68434189e-14,3.98692306 -5.68434189e-14,3.7153846 C-5.68434189e-14,3.15230768 0.173846142,2.58230767 0.523076917,2.00384613 C0.871538447,1.42692306 1.37999999,0.948461511 2.04846152,0.569230745 C2.71692306,0.189999979 3.49692306,-5.06261699e-14 4.38846152,-5.06261699e-14 C5.21692307,-5.06261699e-14 5.94846151,0.159230769 6.58230769,0.476153843 C7.21692308,0.792307698 7.70692308,1.22384615 8.05230768,1.76846152 C8.39846153,2.31384613 8.57076923,2.90692306 8.57076923,3.54615382 C8.57076923,4.04999997 8.47230769,4.49230768 8.27538461,4.87076922 Z" id="路径"></path>
                    </g>
                </g>
            </g>
        </g>
    </g>
</svg>