<?xml version="1.0" encoding="UTF-8"?>
<svg width="24px" height="24px" viewBox="0 0 24 24" version="1.1" xmlns="http://www.w3.org/2000/svg" xmlns:xlink="http://www.w3.org/1999/xlink">
    <!-- Generator: Sketch 60.1 (88133) - https://sketch.com -->
    <title>my order_ttransit-nl</title>
    <desc>Created with Sketch.</desc>
    <g id="页面-1" stroke="none" stroke-width="1" fill="none" fill-rule="evenodd">
        <g id="订单管理-物流弹出框-状态1" transform="translate(-791.000000, -583.000000)" fill-rule="nonzero">
            <g id="编组-2" transform="translate(754.000000, 213.000000)">
                <g id="my-order_ttransit-nl" transform="translate(37.000000, 370.000000)">
                    <circle id="椭圆形" fill="#DDDDDD" cx="12" cy="12" r="12"></circle>
                    <path d="M17.2482761,5.56 L9.6506674,5.56 C8.85900668,5.56 8.21468823,6.22929141 8.21468823,7.05170858 L8.21468823,9.23603238 L5.46575822,10.8864441 L5.36509866,10.9564155 L5.37628306,10.9766971 C5.31403946,11.0568092 5.28,11.1546678 5.28,11.2550614 L5.28,15.8386935 C5.28,16.1064101 5.4730524,16.3244369 5.70986983,16.3244369 C5.94717353,16.3244369 6.14022593,16.1059031 6.14022593,15.8371724 L6.14022593,11.5126372 L8.83712417,9.8901126 C9.02385495,9.82115531 9.14931469,9.6376072 9.14931469,9.4342846 L9.14931469,7.12370811 C9.14931469,6.79768208 9.40509698,6.53250071 9.71971888,6.53250071 L17.1792246,6.53250071 C17.4933603,6.53250071 17.7496288,6.79768208 17.7496288,7.12370811 L17.7496288,15.6561595 C17.7496288,15.9243831 17.9587284,16.1424098 18.2169421,16.1424098 C18.4746695,16.1424098 18.6842553,15.9238761 18.6842553,15.6551455 L18.6842553,7.05170858 C18.6842553,6.22929141 18.0399369,5.56 17.2482761,5.56 Z M15.6571743,14.2014648 C14.7687442,14.2014648 14.0125818,14.8596013 13.8516238,15.7697362 L10.5867527,15.7677081 C10.4248221,14.8585873 9.66865967,14.2014648 8.78120218,14.2014648 C7.76390844,14.2014648 6.93626314,15.0608958 6.93626314,16.1170579 C6.93626314,17.17322 7.76390844,18.032144 8.78120218,18.032144 C9.60738864,18.032144 10.3348607,17.4561478 10.5566035,16.6291673 L13.8827455,16.6306884 C14.1049746,17.4566548 14.8319604,18.032144 15.6571743,18.032144 C16.674468,18.032144 17.501627,17.17322 17.501627,16.1170579 C17.501627,15.0608958 16.674468,14.2014648 15.6571743,14.2014648 Z M15.6571743,17.3092253 C15.0285315,17.3092253 14.5169639,16.7784709 14.5169639,16.1269699 C14.5169639,15.4748055 15.0285315,14.9447145 15.6571743,14.9447145 C16.285817,14.9447145 16.7973846,15.4748055 16.7973846,16.1269699 C16.7973846,16.7784709 16.285817,17.3092253 15.6571743,17.3092253 L15.6571743,17.3092253 Z M8.78127725,17.3093809 C8.15259311,17.3093809 7.64099187,16.7785915 7.64099187,16.1270477 C7.64099187,15.4748403 8.15259311,14.9447145 8.78127725,14.9447145 C9.40996138,14.9447145 9.92092632,15.4748403 9.92092632,16.1270477 C9.92092632,16.7785915 9.40996138,17.3093809 8.78127725,17.3093809 Z" id="形状" stroke="#FFFFFF" stroke-width="0.2" fill="#FFFFFF"></path>
                    <path d="M7.39433709,12.8152203 C7.39433709,13.0743172 7.59711506,13.2852454 7.84706199,13.2852454 L9.59717683,13.2847383 C9.84371978,13.2847383 10.0377448,13.2081755 10.1753614,13.0560638 C10.393214,12.8147133 10.375708,12.472462 10.3752217,12.4704338 L10.3752217,11.040584 C10.3752217,10.7814871 10.1724438,10.5705589 9.92249685,10.5705589 C9.67254989,10.5705589 9.46977197,10.7814871 9.46977197,11.040584 L9.47025823,12.3436741 L7.84608944,12.3436741 C7.59662878,12.3451952 7.39433709,12.5566304 7.39433709,12.8152203 Z" id="路径" fill="#FFFFFF"></path>
                    <rect id="矩形" fill="#FFFFFF" x="5.76" y="15.5216821" width="1.44" height="1"></rect>
                    <rect id="矩形" fill="#FFFFFF" x="17.28" y="15.0254359" width="1" height="1.0752"></rect>
                    <rect id="矩形" stroke="#FFFFFF" stroke-width="0.2" fill="#FFFFFF" opacity="0" x="5" y="5" width="14" height="14"></rect>
                </g>
            </g>
        </g>
    </g>
</svg>