<?xml version="1.0" encoding="UTF-8"?>
<svg width="18px" height="18px" viewBox="0 0 18 18" version="1.1" xmlns="http://www.w3.org/2000/svg" xmlns:xlink="http://www.w3.org/1999/xlink">
    <!-- Generator: Sketch 60.1 (88133) - https://sketch.com -->
    <title>Tips-icon</title>
    <desc>Created with Sketch.</desc>
    <g id="页面-1" stroke="none" stroke-width="1" fill="none" fill-rule="evenodd">
        <g id="订单管理-待发货-状态1" transform="translate(-1388.000000, -137.000000)" fill="#F5AB1C" fill-rule="nonzero">
            <g id="Tips-icon" transform="translate(1388.000000, 137.000000)">
                <path d="M15.2703434,2.62105507 C13.5821473,0.929378094 11.3335396,0 8.94569926,0 C6.55785891,0 4.30925124,0.929378094 2.62105507,2.62105507 C0.929378094,4.30925124 0,6.55785891 0,8.94569926 C0,11.3335396 0.929378094,13.5821473 2.62105507,15.2703434 C4.30925124,16.9620204 6.55437809,17.8913985 8.94569926,17.8913985 C11.3335396,17.8913985 13.5821473,16.9620204 15.2703434,15.2703434 C16.9585396,13.5786665 17.8913985,11.3335396 17.8913985,8.94569926 C17.8913985,6.55785891 16.9620204,4.30925124 15.2703434,2.62105507 Z M8.94569926,17.0699257 C4.465888,17.0699257 0.821472772,13.4255105 0.821472772,8.94569926 C0.821472772,4.465888 4.465888,0.821472772 8.94569926,0.821472772 C13.4255105,0.821472772 17.0699257,4.465888 17.0699257,8.94569926 C17.0699257,13.4255105 13.4255105,17.0699257 8.94569926,17.0699257 Z M8.89696782,7.09738552 C8.53496287,7.09738552 8.24257426,7.38977413 8.24257426,7.7552599 L8.24257426,13.5821473 C8.24257426,13.9441522 8.53496287,14.2400217 8.89696782,14.2400217 C9.25897277,14.2400217 9.55136139,13.947633 9.55136139,13.5821473 L9.55136139,7.7552599 C9.5548422,7.38977413 9.26245359,7.09738552 8.89696782,7.09738552 L8.89696782,7.09738552 Z M9.37383973,3.85326423 C9.09537438,3.69314666 8.75077351,3.69314666 8.47230817,3.85326423 C8.19384282,4.01338181 8.01980198,4.31273205 8.01980198,4.63644802 C8.01980198,4.96016399 8.190362,5.25603342 8.47230817,5.41963181 C8.75077351,5.57974938 9.09537438,5.57974938 9.37383973,5.41963181 C9.65230507,5.25951423 9.82634592,4.96016399 9.82634592,4.63644802 C9.82634592,4.31273205 9.65230507,4.01338181 9.37383973,3.85326423 Z" id="形状"></path>
            </g>
        </g>
    </g>
</svg>