<?xml version="1.0" encoding="UTF-8"?>
<svg width="325px" height="270px" viewBox="0 0 325 270" version="1.1" xmlns="http://www.w3.org/2000/svg" xmlns:xlink="http://www.w3.org/1999/xlink">
    <!-- Generator: Sketch 60.1 (88133) - https://sketch.com -->
    <title>map-da</title>
    <desc>Created with Sketch.</desc>
    <g id="页面-1" stroke="none" stroke-width="1" fill="none" fill-rule="evenodd">
        <g id="交易设置-不可配送区域-状态1" transform="translate(-723.000000, -131.000000)" fill-rule="nonzero">
            <g id="map-da" transform="translate(723.000000, 131.000000)">
                <path d="M325,44.6799292 C324.729908,45.2175464 324.369786,45.7551639 324.099694,46.3823843 C323.37945,48.5328539 321.938961,49.160074 319.868258,48.6224568 C316.897249,47.8160306 316.086974,50.3249117 314.826546,51.8481611 C313.476088,53.3714102 314.286363,54.8946597 315.546791,56.1490999 C317.437433,58.0307608 317.347402,60.5396419 317.707525,63.2277287 C315.996944,62.3316997 314.016272,62.6901114 314.016272,60.2708333 C314.016272,59.733216 312.935905,59.55401 312.935905,59.6436129 C312.305691,62.1524939 309.604774,60.3604361 308.704468,61.9732882 C307.714132,66.5430359 307.714132,66.5430359 304.022879,63.4069345 C303.032543,62.6005083 302.222268,61.5252735 301.682084,60.450039 C300.871809,60.7188476 300.96184,61.2564652 300.781779,61.7044795 C300.061534,63.0485229 299.071198,63.1381258 298.440984,61.7940824 C297.78327,60.5418006 296.591973,59.6525718 295.199884,59.3748042 C294.749731,59.2852014 294.209548,59.0163927 294.029487,58.5683781 C293.129181,56.7763201 291.508631,56.9555261 289.978111,57.3139376 C289.347897,57.4035404 288.537622,57.8515548 288.1775,57.2243347 C286.646981,54.6258508 284.396217,55.9698942 282.505575,56.3283057 C278.274138,57.0451289 277.553894,56.9555261 275.573221,53.0129987 C275.123069,52.1169697 274.762946,51.4897496 273.592549,51.8481611 C272.782274,52.1169697 271.611877,52.0273668 271.431816,51.2209407 C270.801602,48.8016625 268.730899,47.4576191 267.470471,45.4863553 C266.390104,43.7839004 266.480135,42.3502539 268.190715,41.2750194 C269.451143,40.4685932 269.901296,39.1245498 270.351449,37.8701093 C270.981663,36.2572572 271.701907,34.8236107 273.862641,35.2716251 C275.30313,35.5404337 275.39316,34.1963903 275.30313,33.5691702 C274.943008,31.0602891 275.39316,28.7306138 276.473527,26.4905414 C276.653588,26.2217328 276.563558,25.863321 276.473527,25.5049095 C275.753282,22.3688081 276.383497,19.143104 276.023374,16.0070025 C275.896884,14.8677462 275.528632,13.7682369 274.943008,12.7812982 C273.68258,10.7204316 272.692244,10.6308287 270.891632,12.1540781 C269.271082,13.4981215 267.110349,14.1253419 265.309737,15.2005764 C263.959279,16.0070025 262.698851,14.573356 261.798546,13.5877244 C260.628148,12.3332838 259.727843,10.9892404 260.89824,9.1971824 C260.98827,8.74916802 261.798546,8.12194762 260.538118,7.853139 C259.36772,7.58433037 257.837201,6.41949272 256.936895,7.853139 C256.12662,9.1971824 255.136284,8.74916802 254.235978,8.56996227 C253.155611,8.30115364 253.335672,7.13631599 253.335672,6.24028697 C253.425703,2.11855362 258.557445,-1.19675332 262.428759,0.416098714 C263.419096,0.774510218 264.319401,1.49133349 265.399768,1.31212774 C268.91096,0.684907342 271.251755,2.29775963 273.502518,4.80664069 C278.094077,9.91400567 283.045758,14.752562 285.386553,21.4727793 C285.836706,22.7272198 286.646981,23.1752342 287.907409,23.2648371 C290.428264,23.5336457 292.94912,23.5336457 295.469976,23.9816604 C297.72074,24.3400719 299.701412,25.2361009 301.772115,25.863321 C303.032543,26.3113354 304.022879,28.5514078 304.473032,30.0746572 C305.193277,32.4043325 306.093582,33.2107587 308.434377,32.8523469 C309.604774,32.6731412 310.865202,32.4043325 312.035599,32.3147297 C314.376394,32.045921 315.906913,31.0602891 315.996944,28.5514081 C315.996944,27.9241877 316.177005,27.3865704 316.807219,27.2073647 C318.247708,26.6697474 319.057983,25.5945126 319.778228,24.4296747 C320.318411,23.6232486 321.128686,23.2648371 322.119022,23.4440428 C323.199389,23.6232486 322.569175,24.6984834 322.929297,25.2361009 C324.819939,28.8202167 323.109358,32.94195 324.369786,36.6156688 C324.549847,37.153286 324.369786,37.7805064 324.909969,38.2285208 C325,40.4685932 325,42.5294599 325,44.6799292 L325,44.6799292 Z M23.0374949,130.788312 C22.2272198,130.609107 21.4169449,130.429901 20.6066698,130.340298 C18.7160279,130.071489 17.5456306,129.17546 17.5456306,127.204197 L17.5456306,126.756182 C17.9057527,122.36564 16.3752332,119.319142 11.693644,118.243907 C10.4332162,117.975098 9.26281885,117.168672 10.9733994,115.914232 C10.7933383,115.735026 10.7033078,115.55582 10.6132772,115.466217 C6.11174909,115.197409 6.11174909,115.197409 7.19211585,110.627661 C7.64226856,108.746 5.84165746,105.96831 3.59089338,105.609898 C2.33046553,105.430693 1.61022093,104.713869 0.61988497,104.086649 C0.709915512,103.817841 0.709915512,103.638635 0.889976596,103.549032 C1.88031282,102.742606 3.68092392,103.997046 4.22110744,102.653003 C5.03138258,100.592136 5.66159638,98.4416668 5.48153529,96.2015944 C5.30147421,94.4991395 5.75162692,92.6174786 3.95101555,91.1838323 C3.14074041,90.5566119 2.6905877,90.1982004 1.97034336,91.0942294 C1.52019065,91.6318467 0.980007138,91.9006556 0.34979308,91.3630381 C-0.190390171,90.8254208 -0.0103290875,90.2878033 0.259762538,89.8397889 C1.43015985,88.3165398 1.34012931,86.7932903 1.07003768,85.0012326 C0.709915512,82.850763 5.66159638,79.8938676 8.002391,80.6106906 C9.71297156,81.1483078 11.2434913,82.4027486 12.7740108,80.1626762 C13.0441024,79.7146618 14.4845913,79.5354558 14.7546832,81.058705 C15.1148054,83.2091745 17.3655695,83.8363946 18.6259973,82.1339397 C20.3365779,79.8938673 22.587342,79.6250587 25.1081977,78.9978385 C27.5390228,78.4602213 29.6997564,78.4602213 32.040551,78.9082357 C32.5807342,78.9978385 33.0308872,78.9082357 33.3910094,78.5498239 C34.4713761,76.9369719 36.1819567,77.1161776 37.802507,77.1161776 C40.8635462,77.1161776 43.6544935,75.1449138 44.7348603,72.2776213 C45.0049519,71.560798 44.6448298,69.8583431 46.3554103,71.3815923 C46.8955936,71.7400038 46.9856244,71.0231807 47.0756549,70.7543721 C47.6158382,68.5142997 48.9662968,66.5430359 48.3360828,64.1237577 C48.1560217,63.3272875 48.1560217,62.5009497 48.3360828,61.7044795 C48.9662968,59.2852014 49.2363885,56.8659232 47.0756549,54.5362479 C50.8569385,53.7298217 54.0980388,54.3570421 57.3391391,55.0738651 C58.4195058,55.3426738 59.4098421,56.5075114 60.5802391,55.6114827 C61.7506364,54.7154536 61.0303918,53.550616 60.850331,52.4753812 C60.6702699,51.8481608 60.5802394,51.2209407 61.0303921,50.5937203 C62.8310035,48.3536479 64.6316146,46.1135754 66.3421951,43.7839004 C67.0624397,42.7982685 67.6926535,43.335886 68.4128981,43.7839004 C70.2135095,44.9487381 72.0141206,46.1135757 74.0848236,46.7407958 C77.3259239,47.7264277 79.3966266,46.651193 80.2969323,43.4254886 C80.3869628,42.9774743 80.5670239,42.4398567 80.5670239,41.9918424 C80.5670239,38.4973294 82.6377269,36.8844774 85.7887967,36.1676541 C86.959194,35.8988455 87.7694691,35.2716251 88.0395608,33.9275817 C88.2196218,33.2107584 88.4897135,32.5835383 89.5700802,32.3147297 C91.5507527,31.8667153 92.3610276,32.045921 93.0812722,34.4651992 C94.1616389,38.049315 96.0522808,41.6334309 100.193687,42.8878714 C102.174359,43.5150918 103.074664,44.7695323 103.704878,46.8303987 C105.145367,51.5793522 105.145367,56.059497 102.804573,60.6292448 C101.274053,63.5861405 102.624512,65.1989925 106.045673,65.557404 C109.736926,65.8262126 113.51821,65.8262126 116.939371,67.9766822 C118.559921,68.9623141 120.270502,69.947946 121.170808,71.6504009 C121.801022,72.8152385 122.611297,73.3528558 123.871724,73.2632532 C124.411908,73.2632532 125.132152,73.1736503 125.312213,73.8904733 C126.30255,77.4745891 128.913436,80.4314848 129.63368,84.1052035 C130.263894,87.1517021 128.823405,90.467009 126.39258,91.0046266 C125.945212,91.9152079 124.974925,92.4516957 123.961755,92.34867 C120.180471,91.9006556 118.019738,94.2303309 116.039065,96.7392119 C114.598576,98.6208729 113.428179,100.502534 110.637232,100.502534 C109.556865,100.502534 108.83662,101.667371 108.926651,102.653003 C109.106712,104.176252 108.74659,105.789105 109.196743,107.312354 C109.646895,109.014809 108.83662,109.731632 107.396131,110.179646 C103.614848,111.254881 99.7435338,111.882101 95.7821889,112.240513 C94.4317306,112.330116 92.8111803,112.509322 92.5410886,113.853365 C92.1809665,115.376614 92.0009054,117.168672 93.4413943,118.512716 C94.0716084,119.050333 94.7018222,119.58795 95.2420057,120.215171 C96.5024335,121.469611 96.7725252,122.99286 95.7821889,124.426507 C94.8818833,125.77055 94.3417,127.024991 94.8818833,128.727446 C95.332036,130.429901 94.0716081,131.057121 92.72115,130.788312 C90.0202332,130.340298 87.2292856,130.250695 84.888491,128.906652 C82.6377269,127.741814 80.3869628,127.024991 78.0461682,126.308168 C77.6860461,126.218565 77.2358931,125.949756 76.8757709,126.039359 C73.0944874,126.666579 69.2231733,126.487373 65.6219508,127.92102 C63.4612173,128.727446 61.3905143,129.623475 58.9596891,128.996254 C57.9693529,128.727446 56.8889861,128.996254 55.8086193,129.17546 C52.1173663,129.713077 48.5161439,129.713077 45.9052576,126.39777 C45.3650744,125.77055 44.7348603,125.501741 43.9245852,126.039359 C40.3233627,128.279431 36.6321097,127.473005 32.9408567,126.487373 C29.3396342,125.501741 28.6193896,125.77055 27.0888701,129.265063 C26.1885644,131.415533 25.4683201,131.684341 23.0374949,130.788312 L23.0374949,130.788312 Z" id="形状" fill="#C0CFFA"></path>
                <ellipse id="椭圆形" fill="#C0CFFA" cx="220.724756" cy="127.565147" rx="19.5846906" ry="35.4641694"></ellipse>
                <path d="M134.657559,194.481236 C133.306553,195.108758 132.315814,194.83982 131.505211,193.495131 C130.964808,192.598672 130.154204,191.791859 128.893264,192.150442 C127.632325,192.598672 127.902526,193.674423 127.902526,194.660528 C127.722392,197.349906 127.181989,197.618844 124.840244,196.184509 C123.038902,195.108758 121.868029,192.777964 119.166016,193.046901 C117.544808,193.226193 115.9236,193.405485 114.482526,194.301944 C112.230848,195.646633 110.069237,197.26026 107.18709,196.991323 C106.196351,196.901677 105.836083,197.887782 105.385748,198.515303 C103.314204,201.294327 98.0903114,203.087246 95.0280294,201.742557 C93.4968886,201.115035 92.7763515,199.591055 92.8664186,197.887782 C92.8664186,196.991322 93.0465528,196.005217 91.6054791,196.005217 C91.1551436,196.005217 90.7048079,195.73628 90.7948749,195.28805 C91.2452104,192.957255 89.4438683,192.957255 88.0928616,192.86761 C85.9312508,192.688318 84.3100429,191.343629 82.5087005,190.447169 C79.0861501,188.833543 78.0053447,189.10248 75.9338013,192.150442 C75.3933987,192.86761 75.0331301,193.674423 74.4927275,194.481236 C74.1324592,195.019112 73.8622576,196.094863 72.8715193,195.198404 C72.1509823,194.570882 71.5205127,193.943361 72.3311168,192.957255 C72.8715193,192.329734 73.8622576,191.702212 73.3218551,190.716107 C72.6913851,189.640356 71.5205127,189.730002 70.4397073,189.819648 C69.1787677,189.909294 68.0078952,190.178232 66.7469556,190.267878 C64.675412,190.357523 62.6038683,190.626461 61.0727274,188.833543 C60.8025261,188.474959 60.0819891,188.116375 59.8117878,188.206021 C56.9296403,189.10248 55.5786334,186.68204 53.5070899,185.695935 C50.6249424,184.351246 49.0037342,181.39293 45.9414522,180.496471 C45.040781,180.227533 44.7705797,179.42072 44.4103114,178.703552 C43.7798414,177.269217 43.329506,175.476299 40.987761,176.014174 C40.7175597,176.10382 40.267224,175.834882 40.1771572,175.565944 C38.8261505,172.607629 35.7638685,171.26294 33.7823919,168.8425 C33.151922,168.035686 32.3413182,167.318519 32.2512511,166.153121 C32.161184,164.898078 31.0803786,164.808433 30.0896403,164.539495 C28.9187678,164.180911 28.6485665,164.898078 28.1982308,165.615246 C27.3876267,167.228873 26.4869558,166.870289 25.6763516,165.704892 C23.604808,162.746576 20.2723247,160.953657 18.5610497,157.636758 C18.1107142,156.829944 17.3901772,155.933485 16.3093718,155.933485 C13.8775597,155.933485 13.3371569,154.230213 14.0576939,152.706232 C15.1384993,150.465083 15.2285664,148.223935 14.5980967,145.713849 C15.6789021,146.968892 16.6696404,147.596414 18.0206471,146.7896 C19.4617209,145.803495 20.4524591,144.548452 19.9120563,142.665887 C19.5517879,141.410844 18.921318,140.245447 18.4709826,138.990404 C17.5703114,136.569964 18.921318,133.163418 21.4431974,131.908375 C25.2260162,132.087667 25.4061504,133.432356 26.757157,130.47404 C27.9280295,127.963954 29.1889691,126.888203 31.8909824,127.695016 C35.5837341,128.770768 39.4566199,129.577581 43.0593047,127.426078 C43.9599759,126.888203 44.6805126,126.977849 45.2209155,127.784662 C47.6527275,131.460146 51.3454792,131.011916 54.9481637,130.563686 C56.1190362,130.384394 57.2899087,130.115457 58.3707141,130.384394 C60.712459,130.92227 62.7840027,130.563686 64.765479,129.487935 C66.0264186,128.770767 67.2873582,128.412184 68.7284322,128.50183 C70.169506,128.591476 71.6105798,128.143246 73.0516535,127.874308 C77.3748751,127.067495 79.8967542,127.784662 84.5802442,130.115457 C86.2915192,131.011916 85.7511166,133.522002 84.6703113,135.135629 C83.9497742,136.21138 83.76964,137.197485 84.40011,138.273237 C85.5709825,140.245447 85.3007812,142.307303 84.3100429,144.100222 C83.1391704,146.072433 83.5895059,147.686059 84.8504454,149.299686 C85.5709825,150.196146 86.111385,151.182251 86.9219891,152.07871 C87.8226603,153.064815 88.8133986,153.602691 90.1644053,152.975169 C91.515412,152.347648 92.6862844,152.706232 93.4068215,153.961275 C94.3074927,155.39561 95.5684322,156.202423 97.009506,156.829944 C101.783063,158.802155 106.466553,161.312241 111.87058,160.146844 C112.951385,159.967552 113.942123,160.23649 114.482526,161.132949 C115.833533,163.015514 117.634875,164.449849 118.445479,166.690997 C119.256083,168.8425 121.417694,169.111437 122.948835,167.408165 C123.759439,166.511705 124.570043,165.884184 125.560781,167.139227 C126.641586,168.483916 127.362123,167.766748 127.992593,166.780643 C128.532996,165.97383 128.983331,165.077371 129.163466,164.091265 C129.433667,162.746576 130.244271,162.567284 131.325076,163.284452 C131.955546,163.643035 132.76615,164.001619 133.036351,164.718787 C134.207224,167.587456 136.368835,169.918251 137.089371,173.055858 C137.899976,177.089925 138.620512,181.213638 139.431116,185.247705 C139.701318,186.771686 139.070848,188.026729 138.170177,189.10248 C136.909237,190.626461 135.197962,191.97115 135.378096,194.301944 C135.558231,194.122653 135.107895,194.39159 134.657559,194.481236 L134.657559,194.481236 Z M257.419036,91.2987677 C255.797828,93.0916865 253.996485,91.8366431 252.465344,91.3884136 C251.024271,91.0298299 251.65474,89.5954948 251.834875,88.4300977 C251.924942,87.3543465 252.465345,85.5614279 250.033532,86.1889493 C249.132861,86.4578871 249.132861,85.2924899 248.952727,84.5753226 C248.412324,82.603112 247.241452,82.2445284 245.530177,83.5892173 C245.350042,83.7685091 245.169908,84.1270928 245.079841,84.1270931 C241.567224,83.8581553 242.738096,86.4578873 242.557962,88.1611599 C242.287761,90.4919542 240.306284,90.5816001 238.685076,90.5816001 C237.424136,90.5816001 236.613532,90.7608919 235.892995,91.9262891 C234.902257,93.4502698 233.55125,93.270978 232.740646,91.5677054 C232.560512,91.1194758 232.470445,90.5816001 232.290311,90.1333705 C232.110177,89.685141 232.02011,89.1472652 231.569774,88.6990357 C230.308834,90.5816004 229.228029,92.4641648 228.237291,94.4363751 C227.740523,95.3922053 227.740523,96.5285069 228.237291,97.484337 C229.318096,100.263361 228.327358,101.966634 225.355143,102.414863 C224.004136,102.594155 222.743197,102.683801 221.39219,103.400969 C220.041184,104.207782 219.050445,104.924949 218.600109,106.44893 C218.239841,107.435036 217.33917,108.241849 216.348432,108.600433 C213.646418,109.496892 211.304673,111.558749 208.242392,111.289811 C207.97219,111.289811 207.611922,111.289811 207.611922,111.558748 C207.431787,113.799897 205.360244,114.15848 203.91917,115.144586 C201.937693,116.489275 201.12709,118.461485 200.856888,120.702634 C200.136351,126.439973 197.704539,126.529619 193.021049,123.750595 C191.670043,122.943782 190.679304,121.688739 188.968029,121.240509 C187.887224,120.971571 187.707089,119.806174 187.887224,118.730423 C187.977291,117.654672 188.517694,116.668567 188.877962,115.682461 C189.328297,114.517064 189.23823,113.441313 187.977291,112.724146 C186.806419,112.006978 185.725613,111.917332 184.644808,112.993083 C183.293801,114.248126 182.753398,115.951399 182.663331,117.654672 C182.212996,125.005638 179.691116,125.274576 172.846016,125.543514 C169.423465,125.722806 167.532056,122.674844 168.702928,119.537237 C169.243331,118.192548 170.414204,117.565026 171.495009,116.847859 C172.936083,115.861753 174.197023,114.60671 173.386418,112.544854 C172.665881,110.751935 171.314875,110.124414 169.963868,111.469103 C167.802257,113.710251 165.640646,114.068835 162.848566,113.082729 C161.587626,112.544854 160.957157,113.351667 161.227358,114.60671 C161.317425,115.413524 161.497559,116.041045 160.596888,116.489275 C159.786284,116.937504 158.97568,116.668567 158.34521,116.130691 C156.904137,114.786002 154.832593,114.248126 154.112056,111.917332 C153.661721,110.482997 151.950445,109.76583 150.689506,108.869371 C147.807358,106.628222 147.717291,106.359284 149.518633,103.221677 C149.788835,102.773447 150.149103,102.414863 150.149103,101.876988 C150.23917,100.980528 150.149103,100.084069 148.798096,100.532299 C146.546418,101.339112 144.024539,100.442653 141.952996,102.235571 C141.232459,102.863093 140.601989,102.325217 140.241721,101.518404 C139.462727,99.5493033 138.497682,97.6582556 137.359573,95.8707103 C136.999305,95.2431886 136.909238,94.6156672 137.269506,93.9881456 C137.990043,92.8227485 137.809908,91.6573513 137.269506,90.4919542 C136.729103,89.5058489 136.098633,88.5197436 136.098633,87.2647005 C137.179439,86.9061169 138.170177,87.5336383 139.160915,87.8025763 C143.39407,88.9679734 147.717291,89.1472652 152.13058,88.4300977 C155.192861,87.8922222 157.984942,88.5197436 160.506821,90.3126624 C162.578365,91.7469972 164.649908,93.1813321 167.081721,94.1674374 C169.153264,94.9742509 171.224808,95.6914182 173.566553,94.884605 C174.016888,94.7053131 174.827492,94.2570833 175.097694,94.9742509 C176.268566,97.5739829 178.430177,96.2292939 179.330848,95.4224805 C185.095143,90.2230165 191.940244,89.2369111 199.145613,89.9540787 C203.2887,90.3126624 205.81058,88.6093898 207.882123,85.3821361 C209.323197,83.1409878 210.76427,81.0791312 213.556351,80.2723178 C215.627895,79.6447961 215.898096,77.0450641 214.366955,75.7900213 C213.106016,74.803916 213.015949,72.1145381 214.096754,70.3216193 C215.087492,68.7079926 216.528566,69.1562222 217.789506,69.6940977 C220.491519,70.7698489 223.013398,71.5766624 225.805479,70.0526816 C226.526016,69.604452 227.246552,69.335514 227.516754,68.4390546 C228.147224,66.5564899 229.588298,65.7496767 231.38964,65.480739 C234.81219,65.0325094 236.613532,63.0602988 237.063868,59.6537533 C237.244002,58.1297725 237.694338,57.0540213 239.585747,56.9643754 C240.396351,56.9643754 241.387089,56.4264999 242.017559,55.7989783 C244.80964,53.2888922 248.052056,52.6613705 251.65474,53.1096001 C252.735546,53.199246 253.996485,53.3785378 254.626955,52.0338489 C255.257425,50.599514 254.266687,49.7030546 253.366016,48.8962414 C251.384539,47.1929688 248.952727,46.1172176 247.241452,44.0553611 C246.430848,43.0692558 242.197694,43.3381935 241.477157,44.5035906 C240.486418,46.2068632 239.045345,46.2068632 237.694338,45.7586337 C235.622794,45.131112 234.001586,45.4896959 232.470445,47.1929685 C231.749908,44.1450067 232.470445,41.5452747 232.920781,38.9455427 C233.281049,36.9733321 233.731385,35.0011218 233.911519,32.9392652 C234.091653,30.5188251 234.992324,30.1602414 237.334069,31.1463467 C238.595009,31.6842222 239.405613,33.8357246 240.936754,32.9392652 C242.197693,32.3117436 243.008297,30.8774087 243.908969,29.7120116 C244.80964,28.5466145 246.701049,28.008739 246.610982,26.3951123 C246.520915,24.7814856 246.97125,23.2575045 247.061317,21.7335238 C247.241452,18.5062701 248.412324,15.7272463 249.853398,12.9482222 C251.114338,10.527782 250.483868,8.55557142 248.23219,7.21088246 C247.871922,7.03159064 247.60172,6.85229881 247.781854,6.58336107 C248.502391,5.59725577 248.592459,4.1629209 249.943465,3.71469107 C250.754069,3.44575333 251.744808,2.81823168 252.465344,3.44575333 C253.275949,4.07327498 252.195143,4.70079637 252.105076,5.41796394 C251.924942,7.03159064 251.564673,8.91415533 253.366016,9.54167672 C254.626955,9.98990629 256.428298,10.7967198 257.509103,8.64521759 C257.869371,7.92805003 258.679975,8.82450942 259.310445,8.55557142 C260.211116,10.4381361 259.940915,12.8585763 262.012458,14.3825571 C263.633666,15.5479542 264.714472,16.0858297 266.425747,14.4722032 C267.866821,13.1275143 270.118499,12.9482225 271.559573,11.2449496 C272.190042,10.527782 273.270848,11.0656578 273.901317,11.872471 C274.892056,13.0378681 275.612593,14.472203 275.792727,16.0858299 C276.152995,19.4027295 276.152995,22.7196291 276.152995,25.9468825 C276.152995,28.7259063 274.531787,31.6842222 274.711922,34.732184 C274.801989,35.4493516 274.081452,36.076873 273.180781,35.7182893 C271.559573,35.0907677 270.658902,35.9872271 270.208566,37.4215619 C269.766331,39.164471 268.751961,40.7104615 267.326418,41.8142127 C265.975412,42.8899639 265.975412,44.2346529 266.96615,45.8482796 C267.956888,47.4619063 269.848297,48.3583657 270.3887,50.4202222 C271.469505,54.4542891 270.118499,55.9782701 266.155546,55.1714566 C265.615143,55.0818107 264.894606,54.9025189 264.624405,55.5300403 C264.174069,56.3368538 264.804539,56.7850833 265.435009,57.0540213 C267.056217,57.8608348 267.506552,59.2055238 267.416485,60.9087964 C267.416485,62.7913611 268.317157,64.4049878 269.037693,66.0186145 C269.397962,66.9150738 270.208566,67.1840116 271.01917,66.5564902 C271.829774,66.0186147 272.640378,64.9428635 273.631116,65.8393226 C274.711922,66.8254279 276.152995,67.7218873 276.243062,69.5148058 C276.243062,70.3216193 276.243062,71.1284325 276.062928,71.935246 C275.882794,72.6524136 276.062928,73.279935 276.783465,73.6385189 C277.684136,74.0867485 278.764942,74.3556865 278.314606,75.7003754 C277.954338,76.8657725 277.143734,77.8518778 275.882794,77.8518776 C273.721183,77.7622317 272.009908,78.2104612 271.01917,80.2723178 C267.146284,80.8998394 265.435009,84.3063846 262.732995,86.4578873 C261.832324,87.1750549 260.931653,87.2647008 260.030982,86.5475332 C259.400512,86.0993037 258.860109,85.5614279 258.049506,85.5614279 C257.59917,87.4439926 259.670713,89.5954948 257.419036,91.2987677 L257.419036,91.2987677 Z" id="形状" fill="#B1C1F2"></path>
                <path d="M127.581061,91.4773236 C129.380523,91.5672332 130.010334,91.2975044 129.920361,89.0497638 C129.920361,87.7910291 129.650442,86.0827461 131.449904,85.6331981 C133.519286,85.0937405 134.688936,86.622204 135.588667,88.0607579 C136.218479,88.9598542 136.038532,90.2185889 137.028237,91.0277756 C138.377833,91.6571431 138.107914,92.9158778 137.298156,93.994793 C136.758317,94.7140701 136.488398,95.3434373 137.208183,96.152624 C138.647752,97.6810875 139.187591,99.7490089 139.907376,101.547201 C140.537188,102.985755 140.89708,104.064671 142.06673,102.895846 C144.046139,101.007744 146.655359,101.727021 148.904686,100.738015 C149.354552,100.558196 149.804417,101.547201 149.804417,102.266478 C149.804417,102.626117 149.534498,102.895846 149.354552,103.165575 C147.105224,107.121598 147.375143,107.211507 151.154014,109.818887 C152.593584,110.807893 154.123127,111.796899 154.483019,113.77491 C154.572992,114.404278 159.611486,117.641024 160.241298,117.551114 C161.231002,117.371295 162.130733,117.281385 161.77084,115.752922 C161.320975,113.77491 161.950786,113.235452 163.930195,113.954729 C166.359469,114.853826 165.81963,114.584097 168.788742,113.235452 C170.138339,112.606085 171.03807,110.358345 172.20772,111.527169 C173.287398,112.606085 173.107451,113.77491 172.117747,115.393283 C171.487935,116.382289 171.218016,116.562108 170.138339,116.921747 C167.799038,117.730934 167.709065,120.518132 167.889011,122.406234 C168.068957,124.204426 169.058662,125.463161 171.03807,126.002619 C172.567613,126.362257 174.81694,126.901715 176.436456,127.261353 C177.246214,127.441172 177.876026,128.250359 178.145945,128.969636 C178.86573,131.846744 181.115058,134.274304 180.395273,137.51105 C180.125354,138.500056 180.665192,139.309243 181.564923,139.758791 C182.284708,140.118429 182.91452,140.657887 183.454358,141.287254 C185.163847,143.175357 185.163847,143.175357 186.243525,141.017526 C186.603417,140.388158 187.143256,140.118429 187.683094,139.758791 C189.662503,138.679875 189.932422,137.151412 188.222933,135.533039 C187.241997,134.63849 186.713752,133.351802 186.783363,132.026564 C186.873336,130.767829 186.603417,129.419185 187.953013,128.789817 C189.30261,128.250359 190.652206,128.609998 191.641911,129.509094 C193.531346,131.307286 195.780674,132.476112 198.119974,133.375208 C199.649517,133.914665 200.369302,134.993581 199.73949,136.701864 C199.559544,137.241321 199.289625,137.780779 199.379598,138.410147 C199.559544,140.747797 198.749786,142.096441 196.050593,142.186351 C194.700996,142.186351 193.711292,143.355176 192.991507,144.524001 C192.361695,145.602916 191.461965,145.692826 190.47226,145.243278 C189.482556,144.88364 188.402879,144.074453 187.593121,145.333188 C186.603417,146.861651 185.073874,148.300205 185.793659,150.458036 C185.973605,150.997494 186.333497,151.447042 186.603417,151.9865 C187.323202,153.964511 186.783363,155.043427 184.713982,155.313156 C182.6446,155.582884 181.834842,156.57189 182.194735,158.639812 C182.554627,160.617823 181.564923,162.056377 179.765461,162.775654 C177.965999,163.494932 176.436456,162.416016 174.906913,161.606829 C174.457048,161.337101 174.367075,160.707733 174.457048,160.258185 C174.726967,159.179269 174.007183,158.549902 173.557317,157.650806 C172.387667,155.492975 170.858124,154.503969 168.42885,154.503969 C167.2592,154.503969 166.359469,153.604873 165.729657,152.615867 C165.279791,151.89659 165.369764,150.458036 164.110141,150.817674 C162.760544,151.177313 161.680867,152.256228 161.320975,153.694782 C161.051056,154.773698 162.130733,156.212252 160.691163,156.841619 C159.16162,157.470987 157.452131,157.201258 155.832615,156.6618 C154.303073,156.122342 153.043449,155.403065 153.043449,153.425054 C153.043449,151.267223 153.583288,150.637855 155.742642,150.637855 C158.171916,150.547946 158.531808,150.188307 157.632077,148.030476 C157.002265,146.591922 157.99197,145.962555 158.891701,145.602916 C162.130733,144.434091 163.120437,141.467074 164.470033,138.859695 C164.649979,138.500056 164.829926,138.050508 164.739953,137.69087 C163.480329,134.633942 163.660275,131.037557 161.500921,128.250359 C161.051056,127.620992 160.60119,127.081534 160.421244,126.362257 C160.241298,125.463161 159.701459,125.103523 158.801728,125.283342 C157.362158,125.553071 156.462427,124.743884 155.652669,123.754878 C154.393046,122.316324 152.77353,121.327318 151.603879,119.798855 C151.243987,119.439216 150.704148,118.989668 150.344256,119.079578 C147.465117,120.158493 146.205493,117.641024 144.496004,116.382289 C142.516596,114.943735 140.89708,113.055633 138.017941,114.494187 C136.668344,115.123555 135.318748,114.044639 134.149097,113.325362 C131.89977,112.066627 131.809797,112.066627 131.449904,114.494187 C131.090012,116.921747 129.560469,117.641024 127.401115,116.382289 C126.591357,115.842831 125.961545,115.033645 125.151787,114.404278 C122.092701,111.796899 118.763697,109.818887 114.624934,109.728977 C113.545256,109.728977 112.465579,109.459248 111.475875,109.279429 C109.31652,108.91979 108.956628,108.020694 109.136574,105.952773 C109.226547,105.053676 109.136574,104.15458 109.046601,103.255484 C108.956628,101.81693 109.676413,100.288466 111.115983,100.468286 C113.63523,100.917834 113.905149,99.6590993 114.984826,98.1306358 C116.064503,96.6920819 117.054208,95.253528 118.673723,94.2645221 C120.203266,93.3654258 121.462889,92.1066911 123.622244,93.0057871 C124.881868,93.4553351 126.501383,91.5672332 127.581061,91.4773236 L127.581061,91.4773236 Z M135.768613,194.963299 C136.758317,194.603661 137.028237,193.704565 136.668344,192.985287 C135.858586,191.007276 137.388129,190.647637 138.647752,189.838451 C137.748021,192.44583 139.187591,194.423842 140.177295,196.581672 C140.807107,197.840407 141.616865,198.020226 142.426623,197.031221 C143.326354,196.042215 144.136112,194.87339 144.316058,193.344926 C145.305762,194.244022 145.395735,195.233028 145.575681,196.132124 C145.935574,198.559684 147.015251,199.368871 149.354552,198.649594 C150.254283,198.379865 150.16431,198.919323 150.254283,199.278961 C150.974068,203.234985 153.763234,206.381821 154.303073,210.517664 C154.572992,212.945224 157.632078,213.574591 159.43154,211.776399 C160.151324,211.057122 160.691163,210.517664 161.950786,210.787393 C164.200114,211.236941 165.279791,209.978206 165.099845,207.730466 C165.009872,207.101098 164.829926,206.471731 164.649979,205.842364 C164.200114,204.22399 164.470033,203.055165 166.089549,202.156069 C168.158931,200.897334 169.508527,199.099142 168.608796,196.311944 C169.418554,196.581672 169.958393,196.761492 170.588204,196.941311 C171.03807,196.581673 170.948097,196.222034 170.858124,195.772486 C170.498231,194.513751 171.397962,194.154113 172.297693,193.884384 C173.377371,193.614655 173.467344,194.603661 173.737263,195.233028 C173.917209,195.592666 173.917209,196.042215 174.007182,196.401853 C174.367075,199.6386 174.636994,199.818419 177.606106,198.559684 C178.325891,198.289955 179.045676,197.840407 179.585515,198.559684 C180.125354,199.278961 179.945407,200.178057 179.405569,200.897334 C178.685784,201.796431 177.786053,202.515707 176.706376,202.156069 C174.81694,201.436792 172.927505,202.066159 171.128043,202.245979 C169.328581,202.425798 168.42885,203.684533 168.608796,205.482725 C168.788742,207.460737 169.5985,209.07911 171.667882,209.888296 C171.847828,209.978206 172.117747,209.798387 172.297693,209.618568 C172.927505,209.07911 173.557317,208.269923 174.367075,209.16902 C174.996887,209.888297 175.356779,210.877302 174.906913,211.956218 C174.547021,212.855314 174.187128,213.75441 173.917209,214.743416 C173.557317,215.822332 173.557317,216.901247 174.547021,217.620524 C176.076564,218.69944 175.986591,219.868265 175.356779,221.396728 C174.996886,222.205915 174.81694,223.194921 174.81694,224.004107 C174.906913,225.262842 175.536725,226.341757 177.066268,225.8023 C178.055972,225.442661 179.045676,225.352752 178.955703,226.701396 C178.955703,229.848233 181.205031,228.769317 182.824547,228.859227 C183.634305,228.949137 184.624009,227.330764 185.343793,228.859227 C185.883632,230.207871 185.52374,231.466606 183.994197,232.095973 C183.634305,232.275792 183.364385,232.545521 183.004493,232.81525 C180.125354,231.376696 178.415864,233.084979 176.436456,234.883172 C174.097155,237.041003 171.218016,238.030009 167.978984,237.130912 C167.169226,236.861183 166.539415,236.951093 165.999576,237.67037 C164.739953,239.558472 163.480329,239.288743 162.130733,237.76028 C161.320975,236.771274 160.421244,236.681364 159.43154,237.67037 C158.981674,238.119918 158.351862,238.479557 157.722051,238.659376 C155.292777,239.288743 154.572992,240.277749 155.022857,242.795218 L155.832615,246.391603 C156.012562,247.20079 156.732346,248.549434 155.832615,248.729253 C154.752938,248.909073 153.223395,248.639344 152.593584,247.20079 C152.413637,246.751242 152.323664,246.211784 152.143718,245.852146 C151.513906,244.413592 150.704149,243.784224 149.264579,245.222778 C147.735036,246.661332 145.305762,246.301694 144.496004,244.233772 C143.5063,241.896122 142.156703,240.367659 139.45751,240.277749 C138.28786,240.187839 138.557779,239.378653 139.007645,238.659376 C139.997349,237.220822 140.987053,235.872178 141.976757,234.433623 C141.436919,233.624437 140.627161,233.984075 139.907376,233.894166 C137.388129,233.714347 136.488398,232.81525 137.11821,230.387691 C137.478102,228.859227 136.218479,227.420673 136.938264,225.892209 C137.11821,225.532571 136.398425,224.813294 135.67864,225.172932 C133.789205,226.341757 131.449904,225.62248 129.830388,226.971125 C129.29055,226.521577 129.560469,226.161938 129.560469,225.982119 C128.390819,222.565553 130.820093,220.407722 132.259662,217.890253 C132.979447,216.631518 133.339339,214.833326 135.498694,215.192964 C135.768613,215.282874 136.398425,214.833326 136.398425,214.473687 C137.388129,210.068116 139.097618,205.662544 137.11821,201.077154 C136.938264,200.627606 136.758317,199.908328 136.218479,200.088148 C134.868882,200.537696 134.23907,200.178057 134.149097,198.649594 C133.609259,196.671582 133.969151,195.412847 135.768613,194.963299 L135.768613,194.963299 Z M252.733648,116.11256 C246.97537,119.079578 243.376446,124.204426 239.867494,129.329275 C239.597575,129.778823 239.237683,130.228371 239.507602,130.677919 C240.587279,132.476112 239.957468,132.83575 238.068033,133.105479 C236.088624,133.465117 234.289162,134.364213 232.129808,133.644937 C233.749323,135.083491 235.548786,134.993581 237.348248,134.274304 C239.417629,133.465117 240.587279,134.094485 241.127118,136.252316 C241.397037,137.331231 241.127118,137.870689 240.227387,138.410147 C237.258274,140.298249 237.438221,140.208339 239.687548,142.635899 C241.48701,144.524001 243.466419,145.243278 245.985665,145.153368 C247.245289,145.063459 248.954778,147.670838 248.414939,148.839663 C247.965074,149.828669 247.335262,150.727765 246.345558,149.289211 C245.625773,148.300205 244.726042,147.760747 243.646365,148.210295 C242.296768,148.839663 243.196499,149.918578 243.466419,150.817674 C243.646365,151.447042 243.736338,151.89659 242.92658,152.166319 C241.666957,152.525957 241.307064,153.425054 241.307064,154.593879 C241.307064,154.863608 241.127118,155.403065 240.947172,155.403065 C237.528194,156.212252 239.777521,157.470987 240.677252,158.639812 C241.75693,159.988456 242.206795,162.056377 244.816015,161.42701 C245.5358,161.247191 246.165612,162.146287 246.165612,163.135293 C246.255585,164.753666 244.186203,167.001407 242.386741,167.001407 C241.936876,167.001407 241.576983,167.001407 241.307064,167.361045 C240.137414,168.709689 239.327656,167.990412 238.607871,167.001407 C237.70814,165.742672 236.628463,165.383033 235.188893,166.012401 C233.65935,166.641768 233.119512,166.012401 233.299458,164.483937 C233.479404,163.135293 232.75962,162.685745 231.499996,162.416016 C229.430614,161.966468 227.361233,162.146287 225.381825,162.056377 C221.782901,162.056377 218.633842,160.977462 216.204568,158.280173 C215.574756,157.560896 214.944945,156.75171 215.034918,155.672794 C215.124891,154.773698 214.675025,154.23424 213.95524,153.604873 C210.716209,151.087403 211.166074,147.670838 214.944945,146.052464 C217.014326,145.153368 219.263654,144.613911 221.153089,143.085447 C222.05282,142.36617 223.22247,142.815718 224.302148,142.815718 C228.081018,142.815718 229.790507,141.287255 229.88048,137.51105 C229.970453,135.083491 231.32005,132.566021 229.160695,130.318281 C228.71083,129.868733 229.340641,129.419184 229.520587,128.969636 L231.949861,123.035601 C232.759619,121.057589 232.309754,119.619035 230.510292,118.45021 C228.081018,116.831837 228.260964,112.965723 230.870184,111.617079 C232.759619,110.628073 232.309754,108.829881 232.399727,107.301417 C232.4897,106.042683 231.859888,105.323406 230.510292,105.233496 C229.790507,105.143586 229.250668,104.783948 229.070722,104.064671 C228.890776,103.165575 229.790507,103.345394 230.240372,103.075665 C231.410023,102.356388 231.679942,101.457292 230.870184,100.378376 C230.330345,99.5691897 229.610561,98.8499128 228.980749,98.1306358 C228.081018,97.0517203 227.631152,95.8828952 228.44091,94.5342509 C229.520587,92.8259682 230.150399,90.8479564 231.679942,89.1396734 C232.579673,89.7690409 232.309754,90.7580465 232.399727,91.5672332 C232.4897,92.7360583 233.389431,93.0057871 234.289162,93.2755162 C235.278866,93.6351546 235.908678,93.0057874 236.178597,92.1966007 C236.718436,90.8479564 237.438221,90.6681372 238.967763,90.8479564 C240.497306,90.937866 242.296768,90.3084988 243.106526,88.5103062 L243.376446,87.3414811 C243.556392,86.5322944 243.736338,85.723108 243.916284,85.0038309 C245.355854,85.3634693 246.075639,83.9249154 247.245289,83.6551866 C248.234993,83.4753674 248.414939,84.3744637 248.594885,85.0937405 C248.774832,86.3524752 249.224697,87.2515715 250.664267,87.3414811 C251.743944,87.4313907 251.204105,88.330487 251.204106,88.780035 C250.934186,91.1176852 251.563998,92.2865103 253.813326,92.3764199 C255.882707,92.4663295 256.242599,93.2755162 255.432841,94.8938893 C255.072949,95.703076 255.162922,96.6920819 255.882707,96.6920819 C258.85182,96.8719011 260.381362,99.2994609 262.540717,101.007744 C261.551012,101.727021 261.281093,102.895846 260.921201,104.064671 C260.291389,106.042683 259.211712,107.571146 256.872411,107.750965 C255.522814,107.840875 254.53311,107.840875 253.993272,106.402321 C253.832061,105.836702 253.38964,105.394593 252.823621,105.233496 C252.733648,105.143586 252.643675,105.143586 252.553702,105.053677 C251.833917,104.24449 251.653971,103.255484 251.384052,102.266478 C251.204106,101.547201 251.02416,100.827924 250.034455,101.097653 C249.854509,101.097653 249.58459,101.187563 249.404643,101.097653 C248.684859,100.917834 248.414939,100.288466 248.234993,99.6590993 C247.965074,98.9398222 248.954778,98.0407262 248.14502,97.5911779 C246.795424,96.9618104 245.625773,96.0627144 244.186204,95.6131664 C243.916284,95.5232568 243.286472,95.5232568 243.286472,95.703076 C243.106526,97.860907 240.047441,98.4003646 240.31736,100.738015 C240.407333,101.81693 239.867494,102.626117 239.14771,103.345394 C238.158005,104.424309 238.607871,105.053676 239.777521,105.503225 C240.047441,105.593134 240.227387,105.593134 240.497306,105.683044 C243.106526,106.67205 246.345558,106.67205 246.795424,110.538164 C246.885397,111.34735 247.875101,111.976717 248.504912,112.606085 C250.574294,112.875814 251.563998,114.584097 252.733648,116.11256 L252.733648,116.11256 Z" id="形状" fill="#B1C1F2"></path>
                <path d="M182.441209,233.730795 C185.321723,232.296018 185.951835,231.219935 185.141691,228.888422 C184.781626,227.722666 184.151514,227.274298 182.981305,227.902013 C182.261177,228.260707 181.451032,228.529728 180.640888,228.529728 C179.740727,228.529728 179.020598,228.529728 179.020598,227.274298 C179.020598,225.391154 178.030421,224.763439 176.320116,225.30148 C175.78002,225.480827 175.149907,225.660174 174.789843,224.942786 C174.429779,224.225397 174.969875,223.687356 175.599988,223.328662 C177.130261,222.431926 178.75055,222.073232 180.550871,222.880294 C182.621241,223.77703 184.601594,223.866703 186.401915,221.983558 C187.842172,220.548781 190.002558,220.01074 191.352799,218.48629 C191.712863,218.037922 192.342976,218.037922 192.613024,218.48629 C193.423169,219.741719 194.77341,219.383025 195.853602,219.741719 C197.293859,220.279761 198.013988,219.741719 199.184197,218.844984 C201.704647,216.872165 204.225096,214.450979 207.375659,213.823264 C208.635884,213.554244 210.166157,212.926529 211.516398,213.285223 C213.136687,213.643917 214.036848,213.105876 214.486928,211.94012 C215.297073,209.967302 217.277426,211.581426 218.08757,210.325996 C220.15794,213.46457 219.437811,216.154777 217.18741,218.665637 C216.557297,219.383025 216.377265,220.279761 217.007378,220.907476 C218.177587,221.893885 218.357619,219.831393 219.437811,220.100414 C219.527827,222.342252 220.60802,222.880294 222.948438,222.431926 C224.748759,222.073232 224.658743,223.956376 224.388695,225.122133 C224.118647,226.198216 223.218486,227.094951 222.67839,227.991687 C221.778229,230.143852 220.15794,231.937323 220.247956,234.537857 C220.337972,235.793286 218.627667,235.88296 217.63749,236.510675 C216.647313,237.13839 215.387089,237.586757 216.017201,239.290555 C216.287249,240.097617 215.657137,240.187291 215.11704,240.635659 C213.856816,241.711741 212.236526,242.518803 211.246349,243.863907 C209.986125,245.478031 207.375659,245.388357 206.745546,247.71987 C205.75537,247.002481 204.315113,247.002481 203.504968,245.836725 C203.054888,245.298684 202.964872,244.491622 202.244743,244.132927 C201.254566,246.285093 199.274213,246.823134 197.29386,245.478031 C196.933795,245.20901 196.303683,244.760642 196.033635,244.850316 C193.603201,246.105746 192.25296,244.043254 190.452639,243.236192 C188.472285,242.42913 188.382269,240.904679 189.28243,239.200882 C190.362622,237.048716 190.092574,236.510675 187.842173,236.331328 C185.951835,236.151981 184.331546,235.165571 182.351193,235.165571 C181.180984,235.075898 181.991128,234.179162 182.441209,233.730795 Z M308.373684,63.5303804 C311.524246,62.7233183 314.224728,64.4271161 316.92521,65.413525 C317.825371,65.7722191 317.735355,67.7450375 317.105242,68.283079 C315.484953,69.5385088 315.394937,70.6145915 317.195258,72.2287155 C315.214905,72.139042 314.764825,70.8836121 313.864664,70.1662236 C313.234551,69.6281823 312.694455,69.2694879 311.884311,69.5385088 C311.074166,69.8075297 311.074166,70.4352445 310.894134,71.0629592 C309.453877,76.4433729 307.293491,79.2232531 302.612656,78.5058645 C303.692849,79.5819472 304.683025,80.5683564 305.583186,81.6444391 C306.393331,82.5411748 306.213298,83.1688896 304.953074,83.1688896 C303.062736,83.1688896 301.172399,82.9895425 299.462093,82.1824804 C297.841804,81.3754183 296.761612,82.0031333 296.131499,83.5275837 C295.41137,85.0520341 294.96129,86.7558319 293.791081,88.3699561 C293.521033,86.7558322 293.070953,85.321055 291.180615,85.5900756 C290.446417,85.3673506 289.986818,84.6424207 290.100423,83.8862781 C290.331889,81.9068622 289.427235,79.9657912 287.760005,78.8645589 C287.209236,78.3790979 286.856827,77.7088778 286.769828,76.9814141 C286.49978,75.5466372 286.409764,74.4705545 284.339394,75.7259843 C283.169186,76.4433729 281.908961,74.560228 280.288672,74.560228 C279.388511,74.560228 278.48835,74.2015339 277.498174,74.4705545 C276.147933,74.9189222 275.51782,74.2912074 275.697852,72.7667567 C275.877884,71.0629592 276.237949,69.448835 274.527643,67.834711 C273.087386,66.5792812 272.457274,65.5928721 270.746969,67.3863434 C269.936824,68.283079 268.856631,67.5656904 268.406551,66.5792812 C267.686422,64.9651573 266.786262,63.3510331 266.966294,61.4678885 C267.146326,59.8537645 266.60623,58.7776818 265.165973,58.1499668 C264.625876,57.8809462 263.6357,57.5222517 264.175796,56.5358428 C264.625876,55.6391072 265.616053,55.4597601 266.336181,55.9978013 C268.406551,57.6119253 269.486744,56.446169 270.296888,54.652698 C270.927001,53.038574 272.367258,53.2179211 273.627483,52.9489005 C274.887708,52.7695534 274.887708,54.0249832 275.247772,54.8320451 C276.868061,58.0602932 277.948254,58.5086609 281.45888,57.4325782 C282.809121,56.9842105 284.249378,57.2532311 285.599619,56.894537 C286.49978,56.6255164 286.769828,57.6119255 287.129893,58.2396403 C287.669989,59.0467024 288.120069,59.315723 289.110246,58.688008 C290.730535,57.7912724 292.44084,57.6119253 293.341001,59.8537643 C293.431017,60.1227849 293.160969,60.0331113 293.431017,60.0331116 C295.681419,60.5711528 297.48174,61.4678885 298.651949,63.799401 C299.012013,64.5167896 300.182222,63.5303804 300.272238,62.4542977 C300.272238,62.00593 300.00219,61.378215 300.812334,61.378215 C301.262415,61.378215 301.532463,61.7369091 301.712495,62.0956033 C302.432624,64.1580952 304.502993,64.965157 305.853234,66.3999342 C306.753395,67.3863434 307.743572,66.8483019 307.653555,65.413525 C307.293491,64.5167893 307.473523,63.799401 308.373684,63.5303804 L308.373684,63.5303804 Z" id="形状" fill="#B1C1F2"></path>
                <path d="M223.485725,228.38663 C225.019062,226.820413 226.462203,225.346326 225.650436,222.766674 C225.109258,221.016196 227.183773,220.187022 227.273969,218.436544 C227.273969,218.068022 228.356325,218.805065 228.897502,219.081457 C229.889661,219.542109 230.791624,220.924065 231.964176,219.910631 C233.046532,218.989326 232.054372,217.883761 231.693587,216.962457 C230.791624,215.027718 232.415157,214.567066 233.226924,215.119849 C235.121046,216.501805 237.736738,215.119849 239.540664,217.330979 C240.352431,218.252283 241.434786,215.949022 242.877927,216.317544 C242.78773,217.6995 241.615179,218.344414 240.893608,219.265718 C240.262234,220.094891 239.721057,220.831935 240.442627,221.9375 C241.254394,223.135195 241.885767,222.306021 242.697534,222.02963 C244.230871,221.476848 245.854404,221.016196 247.297544,220.279152 C247.387741,220.279152 247.477937,220.187022 247.477937,220.187022 C249.913237,222.121761 251.897555,219.542109 254.062266,219.357848 C256.13678,219.173587 257.309332,220.187022 257.85051,222.121761 C258.121099,223.227326 258.481884,224.425021 259.654436,224.977804 C260.105417,225.991239 261.277969,226.26763 262.540717,227.465325 C258.752473,228.018108 257.399528,231.150542 254.964229,232.993151 C254.152462,233.638064 252.709322,233.545933 252.25834,233.914455 C250.364218,235.112151 248.560293,234.282977 246.756367,234.467238 C245.9446,234.559368 244.952441,235.572803 243.779889,235.572803 C243.419104,235.572803 242.78773,235.849194 243.058319,236.401977 C243.689693,237.599672 243.148515,238.152455 241.975964,238.244585 C240.893608,238.336716 239.811253,238.520976 239.270075,237.13902 C239.270075,237.04689 239.179879,236.954759 239.179879,236.954759 C238.368112,236.033455 238.368112,233.730194 236.744579,234.467238 C235.391635,235.02002 236.47399,236.862629 236.47399,238.152455 L236.47399,239.442281 C236.47399,239.995063 236.654383,240.639976 236.023009,241.100628 C235.211242,241.653411 234.850457,240.824237 234.309279,240.455716 L233.497513,239.902933 C232.59555,242.482585 230.521035,243.496019 227.995539,244.140933 C226.28181,244.509454 224.387688,244.048802 222.764155,245.79928 C221.501407,247.181236 219.2465,247.91828 217.262181,248.471062 C216.540611,248.655323 215.458256,247.826149 215.097471,249.208106 C214.736686,250.682193 212.662171,252.24841 215.36806,253.538236 C216.179826,253.998888 216.8112,255.012322 215.728845,255.749366 C214.917078,256.302148 213.924919,256.486409 213.113152,255.380844 C212.366054,254.357145 211.899097,253.148819 211.760208,251.879888 C211.670012,250.03728 211.760208,248.194671 212.030797,246.352063 C212.120993,245.430758 212.93276,244.785845 213.744526,244.140933 C215.277863,242.943237 218.434733,242.758976 217.442574,239.35015 C217.081789,238.152455 218.434733,237.876064 219.156304,237.507542 C220.779837,236.678368 221.862192,235.757064 221.952388,233.545934 C221.771996,231.611195 222.854351,230.044977 223.485725,228.38663 L223.485725,228.38663 Z" id="路径" fill="#B1C1F2"></path>
                <path d="M264.872446,193.403928 C263.70102,194.307147 262.709814,195.029722 260.997729,194.487791 C259.465864,194.036181 257.573561,196.655515 258.114219,198.82324 C258.474658,200.539355 257.75378,201.352252 256.672464,202.25547 C255.501038,203.249011 254.599941,204.242551 256.131806,205.6877 C256.492244,206.048988 256.672464,206.771563 256.221915,207.042528 C254.329612,208.307034 254.690051,210.836046 253.068076,212.190874 C252.887857,212.371518 252.617528,212.642483 252.617527,212.823127 C253.068076,215.713426 249.734017,218.061794 251.536211,221.313381 C247.751604,218.33276 245.138423,223.029496 241.714254,222.2166 C242.074693,220.861772 243.336229,220.139197 243.966997,219.055335 C244.327435,218.423082 244.868094,217.700507 244.327435,217.068254 C243.696667,216.255357 242.88568,216.526323 242.074693,216.88761 C241.443925,217.248898 240.903267,217.971473 240.182389,217.068254 C239.641731,216.345679 239.371402,215.713426 239.82195,214.810208 C240.993376,212.281196 240.362608,209.842506 238.740634,207.765103 C237.929647,206.590919 238.109866,205.236091 237.659318,203.971585 C237.208769,202.707079 238.650524,200.81032 236.217562,200.178067 C235.767014,199.997424 236.487891,198.732918 236.93844,198.281308 C240.09228,195.481331 239.101073,192.50071 237.659318,189.249123 C236.84833,187.442686 238.740634,186.539468 239.731841,186.539467 C242.705461,186.539467 244.597764,184.281421 247.301055,183.73949 C249.193359,183.378203 251.536211,183.73949 252.887857,181.842731 C253.698844,182.565306 252.977966,183.920134 254.059282,184.100777 C255.050489,184.191099 255.861477,183.468524 256.221915,182.745949 C257.303232,180.578225 258.474658,181.210478 259.736193,182.384662 L262.169155,182.926593 C263.070252,183.197559 263.79113,183.378202 263.430691,184.73303 C262.980143,186.17818 264.061459,187.262042 264.872446,188.255583 C266.76475,189.971698 266.224092,191.687813 264.872446,193.403928 L264.872446,193.403928 Z M262.349375,142.191437 C261.177949,143.455943 260.457071,145.443024 258.114219,143.907552 C257.483451,143.546265 256.942793,144.178517 256.312025,144.449483 C253.698844,145.804311 252.707637,145.533345 251.265882,143.004334 C250.815334,142.281759 250.094456,142.191437 249.373578,142.010793 C248.292262,141.649506 248.472481,142.733368 248.202152,143.184977 C246.850507,146.075276 244.057106,146.526886 241.804364,144.178518 C241.624144,143.907552 241.534035,143.455943 241.263706,143.365621 C238.199976,141.920471 240.272499,141.107575 241.714254,140.385 C243.065899,139.752746 243.246119,138.849528 242.705461,137.585022 C242.435132,136.952769 242.164803,136.410838 241.984583,135.778585 C241.353815,133.339895 240.813157,131.172171 242.79557,128.823802 C245.769191,125.30125 248.112042,121.41741 252.347198,119.159364 C252.977966,118.798077 253.608734,118.346467 254.419721,118.527111 C254.599941,119.340008 254.329612,120.243226 255.050489,120.785157 C255.951586,120.152904 255.771367,118.617433 257.303232,118.436789 C259.916413,118.165824 260.7274,118.527111 260.7274,121.41741 C260.7274,124.849641 260.997729,125.120606 264.872446,125.030284 C266.133982,125.030284 266.67464,124.759319 266.76475,123.223847 C266.944969,120.694835 270.549357,118.346467 272.982319,118.97872 C276.046049,119.701295 279.199888,119.340007 282.353728,119.791617 C282.263618,120.514192 282.083399,121.236766 281.993289,122.049663 C281.903179,122.501272 281.813069,123.133526 281.362521,122.86256 C279.019669,121.688376 278.298791,123.946422 276.857036,124.939962 C276.316378,125.30125 275.77572,125.662537 275.235061,126.114147 C274.243855,127.017365 272.531771,127.198009 272.441661,129.18509 C272.441661,129.456055 271.630674,131.352814 270.008699,130.991527 C268.927383,130.720561 269.017492,131.804423 269.107602,132.526998 C269.197712,133.430217 269.55815,134.514079 268.657054,135.05601 C266.94497,136.230194 265.503214,137.4947 265.413104,139.843069 C265.413104,140.385 264.602117,140.204356 264.151569,140.385 C263.520801,140.655965 262.619704,141.017253 262.349375,142.191437 L262.349375,142.191437 Z M292.085575,86.1918871 C294.338318,86.914462 294.969085,88.9015427 293.52733,90.6176578 C291.454807,93.0563478 288.931736,95.0434287 288.120748,98.3853374 C287.850419,99.5595215 286.678993,100.011131 285.597677,100.011131 C283.615263,100.011131 282.173508,101.094993 281.002082,102.449821 C279.289998,104.527223 276.947146,106.062695 275.865829,108.682029 C275.415281,109.856213 274.153745,109.856213 272.441661,109.585247 C273.973526,108.591707 275.054842,107.77881 275.68561,106.423982 C276.316378,105.159477 276.676817,104.617545 274.694403,104.617545 C272.71199,104.617545 273.793306,103.172396 274.153745,102.540143 C274.874623,101.275637 275.68561,100.101453 275.68561,98.4756592 C275.68561,96.3982565 275.235062,94.2305319 273.342758,93.7789228 C271.810893,93.4176354 269.64826,94.3208538 268.476834,95.9466473 C267.575737,97.1208314 267.035079,98.5659811 266.224092,99.7401652 C265.142775,101.546602 262.980143,101.636924 261.898826,99.830487 C261.320403,98.6253709 260.161665,97.8055123 258.835097,97.6627624 C256.312025,97.3917969 256.942793,96.0369692 257.483451,94.5918196 C257.75378,93.8692446 258.294438,93.1466699 258.744987,92.5144168 C259.465864,91.1595891 259.375755,89.8047613 258.925206,88.4499335 C258.744987,87.8176804 258.654877,87.0951057 259.285645,86.6434963 C259.916413,86.2822089 260.366961,86.7338181 260.81751,87.1854276 C261.988936,88.5402553 262.980143,87.8176807 263.88124,86.9144618 C265.142775,85.7402777 266.043872,84.2048062 267.485628,83.2112658 C268.566944,82.398369 269.287822,80.8628976 271.180125,81.5854725 C271.810893,81.856438 271.991113,80.9532194 272.261442,80.5016102 C272.8021,79.0564606 273.522977,78.2435638 275.415281,78.695173 C277.577914,79.1467822 279.199888,77.7919544 279.380108,75.4435864 C279.470217,73.9984368 279.920766,73.8177932 281.002082,74.450046 C282.173508,75.0822991 283.705373,74.3597242 284.69658,75.8048738 C285.147128,76.5274487 285.777896,75.8048738 286.318554,75.3532646 C287.48998,74.1790805 287.940529,75.0822991 287.940529,76.1661611 C287.940529,77.4306671 288.571297,78.4242075 289.472394,79.1467824 C291.094368,80.3209666 291.635026,81.9467598 291.364697,83.8435189 C291.454807,84.5660938 291.725136,85.3789903 292.085575,86.1918871 L292.085575,86.1918871 Z" id="形状" fill="#B1C1F2"></path>
                <path d="M259.541771,181.859503 C257.048692,178.065896 255.535037,181.227235 253.843304,183.214363 C253.48715,181.407883 254.822728,180.685292 254.822728,179.240108 C253.309073,180.143348 251.884456,181.046587 250.45984,181.859503 C249.658493,180.143348 249.035223,178.517516 248.233876,176.891684 C247.699645,175.717472 247.076375,174.723908 248.055799,173.278725 C248.768108,172.194837 247.610607,171.833541 246.720221,171.562569 C245.918874,171.291597 244.761373,171.201273 244.672335,170.117385 C244.583296,169.123821 244.93945,168.039933 246.18599,167.588314 C247.610607,167.04637 246.898298,165.781834 246.987337,164.78827 C247.076375,163.523734 246.275028,162.349523 245.384643,162.349523 C242.53541,162.439847 241.91214,160.181747 240.309446,158.284943 C242.179256,158.465591 242.53541,157.562351 242.357333,156.297816 C242.268294,155.755872 242.268294,155.03328 242.891564,154.852632 C245.384643,154.13004 244.405219,152.413884 243.870988,150.788052 C244.93945,150.517081 245.384643,151.239672 245.918874,151.781616 C246.453105,152.32356 246.987337,153.768744 247.966761,152.684856 C248.857146,151.691292 250.192724,150.517081 249.2133,148.800925 C248.768108,147.988009 247.877722,147.355741 247.966761,146.091205 C249.569454,149.342869 252.596765,150.155784 255.624075,151.059024 C256.870615,151.42032 257.493885,152.142912 258.028116,153.317124 C260.432157,158.736563 260.788311,158.917211 266.041585,156.478464 C265.952546,157.742999 266.041585,158.917211 264.349852,158.826887 C263.637544,158.826887 263.28139,159.097859 263.192351,159.820451 C263.192351,160.091423 263.103313,160.272071 263.014274,160.543043 C261.411581,164.968918 261.411581,164.968918 265.240238,167.859286 C265.507353,168.943174 266.397739,169.485117 267.199086,168.852849 C268.445625,167.949609 268.890818,168.762525 269.603127,169.485117 C270.404473,170.388357 270.048319,171.110949 269.425049,171.833541 C268.979857,172.285161 268.623702,172.827105 268.979857,173.549697 C270.404473,176.530388 268.445625,175.536824 267.021009,175.175528 C266.664854,175.085204 266.219662,174.904557 265.596392,174.723908 C266.130623,176.259416 267.377163,177.343304 266.664854,178.878812 C266.130623,180.233671 264.973122,181.046587 263.90466,181.949827 C262.391005,183.033715 260.966388,181.227235 259.541771,181.859503 L259.541771,181.859503 Z M259.897925,225.576312 C259.452733,224.763396 258.829463,224.131128 258.562347,223.227888 C257.761,220.518169 256.247345,219.163309 253.398112,219.524605 C252.685803,219.614929 251.70638,219.795577 251.261187,218.802013 C250.815994,217.808449 251.439264,217.266505 252.062534,216.724561 C252.329649,216.453589 252.507726,216.001969 252.507726,215.640674 C252.507726,212.479334 254.466574,210.221234 256.069268,207.782487 C256.514461,207.059895 256.692538,206.337303 256.158307,205.795359 C254.73369,204.350176 255.535037,203.53726 256.692538,202.63402 C258.117155,201.550132 259.185617,200.37592 258.117155,198.298468 C257.493885,197.124257 259.185617,195.137129 260.343118,195.588749 C262.391005,196.401665 263.370429,195.317777 264.349852,193.872593 C265.68543,193.962917 264.973122,191.433845 266.486777,192.066113 C267.822356,192.608057 267.644278,194.053241 267.911394,195.227453 C268.445625,198.027496 270.315435,198.840412 272.630437,197.124257 C273.253707,196.672637 273.520822,196.491989 274.144092,197.124257 C274.767362,197.846849 275.657747,198.208144 276.72621,198.208144 C278.061788,198.298468 278.952173,199.02106 278.061788,200.556568 C277.260441,201.911428 276.459094,203.446935 274.500246,202.814668 C274.322169,203.627584 274.767362,203.898555 275.123516,204.169527 C276.904287,205.253415 277.349479,206.337303 275.212554,207.511515 C274.500246,207.872811 274.767362,208.505079 274.8564,209.22767 C274.945439,210.311558 275.657747,211.666418 273.698899,212.118038 C272.096206,212.479334 273.520822,214.827758 273.07563,214.737434 C271.20582,214.556786 271.472936,215.460026 271.651013,216.724561 C271.82909,218.350393 271.20582,219.524605 269.514088,220.156873 C267.822356,220.698817 266.397739,221.602057 265.68543,223.589184 C265.329276,224.582748 265.240238,227.473116 262.836197,225.124692 C262.569082,224.85372 262.212927,224.944044 262.123889,225.395664 C261.589658,227.924735 260.610234,225.485988 259.897925,225.576312 L259.897925,225.576312 Z" id="形状" fill="#B1C1F2"></path>
                <path d="M266.692538,166.25625 C266.692538,165.805071 266.234689,165.624599 265.95998,165.353892 C265.044282,164.632005 263.029747,164.09059 263.487596,163.00776 C264.128585,161.473751 264.128585,159.308091 266.600968,158.67644 C268.157654,158.315497 268.615503,156.330309 268.157654,155.247479 C267.516666,153.803706 266.234689,154.886536 265.227422,155.427951 C262.846608,156.781488 261.289922,156.330309 260.465794,153.71347 C259.641666,151.006395 257.99341,149.291914 255.154747,148.840735 C252.590794,148.389556 250.850968,146.855546 249.385852,144.870358 C248.928003,144.238707 248.561724,143.607057 248.928003,142.88517 C249.019573,142.704698 249.294282,142.433991 249.477422,142.433991 C250.39312,142.524227 250.02684,143.426585 250.39312,143.968 C251.675096,145.953188 253.689631,145.68248 255.521026,145.05083 C257.077712,144.509415 258.451259,143.426585 260.007945,145.141066 C260.557364,145.772717 261.015213,145.141066 261.381492,144.599651 C261.93091,143.787528 262.388759,142.88517 262.846608,142.073047 C263.853875,140.899981 264.311724,139.997623 265.95998,141.892576 C267.150387,143.246113 269.073352,144.960594 271.545735,144.689887 C272.095154,144.599651 272.644573,144.780122 272.827712,145.321537 C274.475968,148.930971 277.772479,151.818517 277.955619,156.149837 C277.955619,157.052195 278.505038,157.232667 279.237596,157.593611 C281.893119,158.856912 285.189631,159.398327 285.830619,163.097996 C285.18963,163.819883 284.640212,163.00776 284.090793,162.827289 C282.350968,162.37611 281.43527,162.646817 280.885852,164.722241 C279.787014,169.143797 279.787014,169.955919 274.475968,169.053561 C273.010852,168.782854 271.545736,168.873089 270.630038,167.33908 C270.263759,166.707429 269.348061,166.25625 268.432364,166.978137 C267.608236,167.429316 267.150387,166.978137 266.692538,166.25625 L266.692538,166.25625 Z" id="路径" fill="#B1C1F2"></path>
                <path d="M274.07108,173.507326 C276.685817,174.048945 278.308757,175.764072 280.833331,173.778136 C282.366108,172.424089 284.620192,173.958676 286.152969,175.312723 L286.333296,175.493262 C284.079212,177.479198 287.77591,178.201357 287.23493,179.916483 C286.69395,180.006753 286.152969,180.006753 285.611989,180.097023 C284.980846,180.097023 284.349702,180.187293 284.259539,180.819181 C284.079212,181.3608 284.439866,181.812149 284.980846,181.992689 C286.243133,182.353768 285.702153,183.166197 285.521826,183.978625 C285.341499,184.700783 284.620192,185.332672 285.702152,186.1451 C286.603786,186.867259 285.521826,187.408878 285.071009,187.860227 C284.710356,188.131036 284.259539,189.575353 283.628395,187.950497 C283.357905,187.228338 282.907088,188.040766 282.636599,188.401846 C281.193985,190.387782 280.743168,192.644527 280.292351,194.991542 C280.202188,195.442891 280.112025,196.345589 279.931698,196.255319 C278.398921,194.811002 276.054674,196.526129 274.88255,195.081812 C273.80059,193.727765 273.349773,193.456955 272.267813,194.991542 C271.185852,196.435859 269.202259,196.255319 269.112095,194.630463 C268.841605,191.10994 266.226868,189.033734 264.784254,186.23537 C263.161314,183.346736 263.161314,182.624577 265.595724,180.187293 C266.948175,178.923515 268.300625,177.659738 267.669482,175.493262 C267.398992,174.590564 268.030135,174.951644 268.480952,174.861374 C270.013729,174.771104 271.185852,174.410025 270.284219,172.333819 C269.472749,170.528423 271.095689,168.813296 273.25961,169.264645 C275.15304,169.625724 276.956307,169.896534 278.759574,168.903566 C279.571044,168.452217 280.472678,168.903566 280.923495,169.625724 C281.464475,170.528423 280.382515,170.889502 280.021861,171.340851 C278.398921,172.785168 276.235,172.514359 274.07108,173.507326 L274.07108,173.507326 Z M286.964439,235.974037 C285.251336,234.078371 283.718559,232.092435 281.464475,230.828658 C281.374312,230.738388 281.193985,230.557848 281.193985,230.467579 C282.095618,227.217865 280.292351,223.697342 282.005455,220.447629 C283.628395,217.378455 284.980846,214.038473 287.77591,211.601188 C288.677543,210.788759 289.489013,210.969299 290.390647,211.330378 C291.562771,211.781727 291.021791,212.594155 290.841464,213.316314 C290.570974,215.12171 290.931627,216.927106 290.931627,218.822773 C290.751301,224.78058 287.054603,229.83569 286.964439,235.974037 Z M203.292846,265.131187 C203.022356,262.874441 205.096114,262.423092 206.268237,261.339855 C206.809217,260.888506 207.981341,260.978775 207.169871,259.624728 C206.538727,258.72203 207.620687,258.902569 208.071504,258.63176 C210.596078,257.277713 213.481306,257.638792 216.186206,257.187443 C216.817349,257.097173 218.079636,255.291777 218.891107,257.187443 C219.612414,258.8123 218.891107,259.805267 217.809146,260.798235 C217.178003,261.430124 216.637023,262.152283 216.637023,263.145251 C216.637023,264.138219 217.268166,265.311726 216.186206,266.124155 C214.292775,267.658741 212.669835,269.825217 209.784608,269.915487 C206.538727,270.276566 203.292846,267.839281 203.292846,265.131187 L203.292846,265.131187 Z M252.341711,105.173078 C252.792528,106.527125 254.054815,108.061712 251.440078,108.693601 C251.169588,108.783871 250.899098,109.415759 250.899098,109.776839 C251.259751,112.394663 249.636811,112.394663 247.833543,112.123854 C246.210603,111.943314 245.669623,110.769807 245.399133,109.415759 C244.767989,105.624427 246.12044,102.826063 249.276157,100.749857 C250.628607,100.117968 250.718771,101.291476 250.989261,102.103904 C251.349914,103.187142 251.620405,104.27038 252.341711,105.173078 L252.341711,105.173078 Z M155.325942,157.800379 C152.621041,157.16849 151.899734,157.890649 152.711204,159.876585 C153.162021,161.050092 152.530878,161.320902 151.539081,161.320902 C150.547284,161.320902 149.194833,160.959822 149.37516,162.945758 C148.56369,161.230632 146.399769,161.230632 145.678463,159.605775 C145.588299,159.425236 145.137483,159.334966 145.047319,159.425236 C143.153888,161.140362 142.793235,159.064157 142.162092,158.161458 C140.809641,156.085253 138.465394,154.640936 138.465394,151.752302 C138.465394,151.210683 138.014578,150.669064 137.293271,150.939873 C136.301474,151.300952 135.39984,150.759334 134.408043,150.578794 C131.883469,150.127445 130.621182,151.300953 131.162163,153.738237 C131.612979,155.994983 131.252326,157.800379 129.809712,159.605775 C129.178569,160.418204 128.457262,161.501441 128.817915,162.765219 C129.268732,164.299805 127.555628,165.021964 127.375301,166.376011 C127.375301,166.82736 126.293341,166.91763 125.842525,166.105202 C124.850728,164.119266 123.768767,164.660885 122.776971,166.105202 C122.326154,166.737091 122.235991,167.820328 121.15403,167.459249 C120.07207,167.188439 119.170436,166.82736 118.719619,165.473313 C117.998313,162.945758 115.563902,161.501441 114.211452,159.334966 C113.850798,158.703077 113.039328,158.793347 112.408185,158.973887 C109.252467,160.237664 106.186913,159.334966 103.301686,158.161458 C100.957439,157.25876 98.3427014,156.807411 96.1787808,155.272824 C95.6378008,154.911745 95.0066572,154.550666 94.7361672,154.099317 C93.5640436,152.20365 92.39192,150.578794 89.9575094,152.38419 C89.7771827,152.47446 89.5066927,152.47446 89.2362025,152.47446 C87.2526086,152.113381 84.006728,146.245843 84.8181983,144.440447 C85.9001586,142.093432 86.7116288,139.746416 84.9985249,137.309131 C84.7280349,136.948052 84.7280349,135.955084 84.9985249,135.684275 C86.6214652,134.420498 86.2608119,132.705371 86.4411386,131.080514 C86.6214652,129.636198 87.7034255,130.177816 88.5148958,130.358356 C89.9575094,130.719435 91.3099597,131.261054 92.66241,131.531863 C94.8263305,131.892943 95.5476372,131.080514 94.9164939,128.914039 C94.5558405,127.740531 94.2853503,126.837833 95.1869839,125.754595 C96.9902511,123.67839 96.9000875,121.963263 94.9164939,119.887058 C93.6542069,118.62328 92.3017566,117.630312 92.66241,115.373567 C92.8427366,113.83898 93.4738803,113.116821 94.8263305,113.026552 C98.8836814,112.755742 102.850869,112.304393 106.63773,111.040616 C109.342631,110.137918 111.957368,110.228188 114.662269,110.498997 C118.358966,110.860076 121.42452,112.484933 124.219584,114.741678 C125.211381,115.554107 126.113015,116.547075 127.194975,117.269233 C128.006445,117.901122 129.088405,118.442741 130.080202,117.810852 C131.071999,117.178963 131.522816,116.095726 131.252326,114.831948 C131.162163,114.290329 130.801509,113.74871 131.342489,113.297361 C131.973633,112.936282 132.514613,113.387631 132.875266,113.74871 C134.949023,115.283297 137.112944,116.005456 139.547355,114.831948 C140.448988,114.380599 141.080131,115.012488 141.711275,115.554107 C143.063725,116.637344 144.416176,117.901122 145.678463,119.074629 C146.67026,119.977328 147.48173,121.331375 149.10467,119.796788 C149.735814,119.164899 150.18663,120.067597 150.637447,120.518946 C152.170224,121.963263 153.703001,123.40758 155.055452,124.942167 C155.866922,125.844865 156.588228,126.205945 157.760352,125.754595 C158.211169,125.574056 158.661986,125.303246 158.932476,126.025405 C160.014436,128.552959 162.088193,130.719435 162.088193,133.698339 C162.088193,134.510767 162.448847,135.503735 162.899663,136.225894 C163.62097,137.399401 163.711134,138.753448 162.8095,139.565877 C160.916069,141.281003 161.18656,144.801526 157.670189,145.252875 C157.039045,145.343145 154.063655,146.787462 156.768555,148.683128 C157.309535,149.044207 157.039045,149.495556 156.678392,149.946905 C156.317738,150.307985 155.957085,150.488524 155.416105,150.488524 C154.153818,150.488524 152.621041,149.315017 151.899734,151.030143 C150.9981,153.016079 152.170224,155.453364 154.153818,156.717141 C154.424308,156.717141 154.514471,156.987951 155.325942,157.800379 Z" id="形状" fill="#B1C1F2"></path>
                <path d="M154.50881,159.275495 C155.851141,159.548711 156.746028,160.00407 157.28296,158.637992 C157.640915,157.727273 158.71478,158.091561 159.699156,158.182632 C162.204841,158.637992 162.562796,158.182632 162.025863,155.723691 C161.57842,153.720109 162.920751,152.627246 164.173593,151.625456 C164.889503,151.079024 165.157969,151.534384 165.336947,152.262959 C165.873879,155.086188 168.021609,155.541547 170.348316,155.723691 C171.332692,155.814763 171.959113,155.814763 172.406557,157.180841 C172.94349,158.820135 175.001731,159.730854 174.464798,162.189796 C174.196332,163.464802 179.655145,164.648737 180.72901,163.373731 C181.713386,162.189796 182.429296,162.098724 183.503161,163.282658 C184.93498,164.921952 186.635267,164.011234 188.246064,163.464802 C188.693508,163.373731 189.140952,162.645155 189.498906,163.282658 C190.483283,164.830881 191.288681,166.379103 193.5259,165.468384 C195.136697,167.836253 197.642382,166.925534 199.969089,167.289822 C198.268803,169.384476 198.358291,172.116633 196.747494,174.211286 C194.420787,177.216659 191.557147,179.584528 189.319929,182.680973 C188.604019,183.773836 187.351176,183.136332 186.3668,183.04526 C184.756003,182.863117 182.87674,182.043469 181.892363,183.773836 C180.818499,185.504202 181.623897,187.507783 182.429296,189.238149 C183.055717,190.786372 184.666515,191.514947 185.471913,192.789953 C185.292936,193.336385 185.113958,193.336385 184.845492,193.336385 C183.234695,192.972097 181.802875,193.518529 181.355431,194.884607 C180.997476,196.068542 182.608273,196.797117 183.59265,197.525692 C183.861116,197.798908 184.398048,197.798908 184.756003,197.981051 C186.3668,198.800699 186.3668,199.620346 184.845492,200.622137 C182.966228,201.897143 181.086965,201.350712 180.192078,199.164986 C179.29719,197.161404 177.686393,198.163195 176.702017,198.800699 C175.001731,199.893561 174.733264,199.073914 174.733264,197.616764 C174.733264,196.797117 174.554287,196.159614 174.285821,195.431038 C173.390933,193.245313 172.048602,192.972097 170.437805,194.611391 C168.916496,196.159614 168.916496,196.159614 167.037233,195.613182 C167.21621,197.343548 168.737519,198.891771 167.395188,200.531065 C167.126722,200.895352 166.947744,201.350712 166.679278,201.532856 C163.457683,203.081078 162.920751,205.448947 164.352571,208.636464 C164.800014,209.729326 163.994616,211.186477 162.831262,210.822189 C160.236089,210.184686 159.072735,211.82398 157.461938,213.73649 C157.372449,211.915052 155.672163,211.186477 155.493186,210.548974 C154.956253,208.818608 153.971877,207.270385 153.434945,205.540019 C152.719035,203.445365 151.376704,201.532856 151.287215,199.164986 C151.197726,198.254267 150.660794,197.616764 149.586929,198.345339 C147.976132,199.34713 147.170733,198.618555 146.812778,196.979261 C146.723289,196.43283 146.544312,195.795326 146.454823,195.248895 C146.186357,194.247104 146.007379,193.245313 144.665048,193.245313 C143.233228,193.245313 143.591183,194.338176 143.322717,195.157823 C143.054251,195.886398 142.517318,196.523901 142.069875,197.252476 C139.027258,193.882816 140.369589,190.23994 140.548566,186.505993 C140.727544,183.409548 140.638055,179.766672 139.116747,176.670228 C138.773081,175.924441 138.561041,175.122931 138.490325,174.302358 C138.311348,172.025561 137.684927,170.021979 136.253107,168.200541 C134.731798,166.196959 134.284354,163.464802 131.77867,162.280868 C130.973271,161.91658 131.241737,161.188005 131.77867,160.641573 C133.657933,159.002279 133.9264,157.089769 133.299979,154.7219 C132.673557,152.262959 133.389467,151.534383 135.716174,151.989743 C137.684927,152.354031 139.206235,152.627247 139.743168,155.450475 C140.190611,157.727273 142.785785,159.457639 144.307093,161.643364 C144.754537,162.37194 146.6338,161.279077 147.707665,162.463011 C148.06562,162.918371 148.78153,163.100515 149.228974,163.646946 C150.123861,164.830881 151.108237,166.196959 151.913636,163.464802 C152.003125,163.282659 152.450569,163.009443 152.629546,163.009443 C155.493185,163.464802 155.403697,161.734436 154.50881,159.275495 L154.50881,159.275495 Z M231.021681,220.020451 C229.589861,219.929379 228.784462,218.836516 227.710598,218.381157 C226.636733,217.925798 225.920823,217.834726 225.741845,219.474019 C225.562868,221.022242 223.415138,222.479392 221.804341,222.297248 C221.088431,222.206177 220.819965,221.841889 220.819965,221.113314 C220.819965,220.749026 220.730476,220.020451 220.551499,220.020451 C217.329904,219.291876 219.477634,217.834725 220.014566,216.559719 C220.730476,215.102569 220.193544,211.277549 219.119679,210.184686 C218.672235,209.729327 218.135303,209.273967 217.508881,209.91147 C216.345528,211.004333 213.839843,210.36683 213.481888,212.734699 C211.781602,212.27934 210.081316,214.100778 208.649496,213.190059 C207.038699,212.188268 206.680744,210.36683 207.217677,208.363248 C208.112564,205.357875 207.754609,204.902516 205.159436,204.447156 C204.890969,204.447156 204.711992,204.447156 204.622503,204.173941 C204.533014,203.718581 204.711992,203.263222 205.069947,203.081078 C207.128188,202.261431 206.2333,200.531065 206.501767,199.073914 C207.307165,195.248895 204.801481,191.423875 206.859721,187.780999 C207.933586,185.868489 208.828474,184.047051 211.602625,184.775626 C212.676489,185.048842 214.376775,185.322058 213.839843,182.954188 C213.481888,181.405966 214.913708,181.58811 215.629618,181.861326 C218.31428,182.772045 221.17792,183.591692 223.504627,185.048842 C225.294402,186.141705 226.368267,186.050633 227.621109,184.502411 C227.889575,184.138123 228.337019,183.864907 228.96344,183.227404 C228.784462,185.959561 229.768839,186.414921 231.469125,184.95777 C232.900944,183.773836 233.348388,184.502411 233.348388,185.959561 C233.348388,187.416711 233.795832,188.418502 235.138163,189.147077 C236.927938,190.148868 237.46487,193.882816 236.212028,195.613182 C235.31714,196.979261 233.795832,197.981051 233.974809,199.893561 C234.064298,200.531065 233.258899,201.988215 235.138163,201.532856 C236.03305,201.350712 235.675095,202.352503 235.675095,202.807862 C235.854073,204.902516 236.03305,206.815026 237.196404,208.727535 C237.822825,209.729326 238.270269,211.459692 238.18078,212.825771 C238.091291,215.557928 236.391005,216.741863 234.332764,215.740072 C232.900945,215.011496 231.648102,214.647209 230.305771,215.922215 C228.873951,217.288294 230.574237,218.107941 230.753215,219.200804 C231.11117,219.382948 231.021681,219.656163 231.021681,220.020451 L231.021681,220.020451 Z" id="形状" fill="#C0CFFA"></path>
                <path d="M207.967566,162.431068 C204.568804,163.610748 204.568804,163.610748 205.527429,167.240531 C205.701725,167.966487 206.050316,168.783188 205.178839,169.236911 C204.481657,169.599889 203.784475,169.236911 203.261588,168.601699 C201.605782,166.514574 199.427089,166.060851 196.986952,166.333085 C195.592589,166.423829 194.285373,166.423829 193.501043,164.790427 C193.326748,164.427449 193.065304,163.792237 192.716713,164.155215 C190.886611,165.697873 190.450872,163.973726 189.753691,162.794047 C189.143656,161.523623 188.359327,162.06809 187.574997,162.521813 C186.267781,163.157025 184.960565,163.973726 183.566202,162.703302 C182.171838,161.432878 182.171838,159.617987 182.084691,157.89384 C182.084691,156.714161 183.130463,156.441927 184.176236,156.351182 C187.052111,156.078949 187.574997,155.262247 186.354929,152.449166 C185.744895,151.087997 185.134861,149.817573 186.006338,148.274916 C187.48785,145.461834 187.836441,145.280345 190.712316,146.550769 C191.496645,146.913747 192.193827,147.185981 192.978157,146.913747 C193.588191,146.732258 194.37252,146.278535 193.762486,145.552579 C191.758088,143.19322 194.546816,143.102475 195.069702,143.102475 C198.642759,143.465453 198.904202,141.196839 198.729907,138.474502 C198.642759,137.385567 199.862827,136.750356 199.427089,135.752165 C198.904202,134.572486 198.119873,133.66504 196.812656,133.483551 C194.895406,133.211317 193.501043,131.850149 192.106679,130.761214 C189.840838,129.037067 191.845236,126.859198 191.496645,124.590584 C192.978157,125.135051 194.198225,125.679518 195.331145,126.042497 C197.945577,126.768453 199.252793,125.861008 199.601384,123.047926 C200.037122,118.782931 201.431486,115.334638 205.788873,114.154958 C206.398907,111.886344 207.79327,111.977089 209.623373,112.521556 C210.233407,112.703045 210.320555,110.252942 211.366327,111.523366 C212.237805,112.521556 210.581998,113.066023 210.146259,113.882725 C209.971964,114.245703 209.797668,114.608681 209.971964,115.062404 C210.581998,116.514317 210.059111,117.603252 209.100486,118.692187 C208.054714,119.962611 207.880418,121.233035 208.926191,122.775692 C210.059111,124.409094 210.843441,126.042497 208.839043,127.948133 C207.531827,129.218557 207.880418,131.577915 208.490452,133.211317 C209.971964,137.385568 208.926191,141.378329 208.054714,145.37109 C207.706123,146.823003 208.403304,147.911937 208.839043,149.182361 C209.710521,151.995443 210.843441,154.536291 212.499248,156.89565 C213.109282,157.803095 212.760691,158.89203 211.27918,158.619796 C209.536225,158.347563 207.79327,158.89203 206.050316,158.347563 C205.440281,158.166074 204.917395,158.166074 204.568804,158.801286 C204.220214,159.527242 204.655952,160.07171 205.178839,160.525432 C206.311759,160.979155 207.357532,161.342134 207.967566,162.431068 L207.967566,162.431068 Z" id="路径" fill="#B1C1F2"></path>
                <path d="M235.702191,187.123351 C234.979725,182.344728 234.347567,181.893915 231.457701,183.967656 C230.46431,181.172613 230.46431,181.172613 228.296911,183.156192 C227.213211,184.147982 226.400437,184.508633 224.774887,183.697168 C222.246255,182.254565 219.35639,181.352938 216.556833,180.541474 C215.292516,180.180823 213.125117,179.639847 213.757275,182.525053 C213.937892,183.336518 213.396042,183.697168 212.583268,183.607006 C209.061244,183.336518 208.158161,183.877494 206.803537,187.123351 C206.62292,187.484002 206.442304,187.844653 206.171378,188.475792 C204.545829,185.951236 202.37843,184.147982 201.655964,181.08245 C201.204422,178.918545 201.926888,178.467732 203.552438,178.467732 C205.810145,178.467732 207.70662,177.74643 209.603094,176.664478 C212.583268,174.951387 212.673576,171.344879 209.693402,169.631787 C207.526003,168.369509 208.248469,166.115442 207.526003,164.402351 C207.255078,163.771212 208.338778,163.590886 209.061244,163.590886 C209.874019,163.590886 210.596485,163.320398 210.777102,162.508934 C210.957718,161.697469 210.235252,161.336819 209.874019,160.886005 C209.24186,160.164704 208.158161,159.984378 207.616311,158.812263 C210.144943,158.902426 212.673576,159.263077 215.1119,158.812263 C215.744058,158.7221 216.014983,158.992588 216.376216,159.353239 C219.35639,162.599096 223.149338,163.681049 227.484136,163.590886 C228.748452,163.590886 229.92246,163.681049 231.186776,163.771212 C232.631709,163.861374 233.444484,164.222025 233.354175,166.025279 C233.263867,167.648208 234.257258,168.279347 235.792499,167.558045 C237.32774,166.836743 238.41144,167.197394 239.404831,168.549835 C240.217606,169.631787 241.301306,170.262926 242.475313,169.000648 C243.107472,168.369509 243.649321,168.639997 244.191171,169.180974 C245.094254,170.082601 245.907028,171.164553 247.44227,171.164553 C247.803503,171.164553 248.345353,171.615366 248.074428,171.976017 C246.448879,174.139922 248.435661,175.672688 249.067819,177.295617 C250.422443,180.721799 250.241827,181.352938 246.448878,182.254565 C242.475313,183.06603 238.95329,184.41847 235.702191,187.123351 L235.702191,187.123351 Z M194.97315,189.10693 C196.05685,191.721649 196.147158,191.721649 198.404865,189.828232 C199.127332,189.197093 199.669181,189.377419 199.75949,190.188883 C199.849798,191.270835 200.752881,192.0823 200.662573,192.983927 C200.481956,195.418319 202.739663,195.598645 203.913671,196.680597 C204.997371,197.852712 205.087679,195.328157 206.532612,195.237994 C206.351995,196.951085 206.171379,198.664177 206.713228,200.287105 C206.893845,200.918244 206.08107,201.188732 205.629529,201.45922 C204.545829,202.180522 204.274904,203.262475 204.365213,204.434589 C204.365213,205.516542 204.726446,205.877193 205.629529,205.155891 C206.08107,204.79524 206.442304,204.073939 206.984153,204.524752 C207.616311,205.065728 207.796928,205.967355 207.435695,206.77882 C206.713228,208.491911 206.442303,210.024677 207.526003,211.737768 C208.067853,212.549233 207.345386,213.180371 206.532612,213.360697 C203.823363,213.901673 201.83658,215.704927 200.030414,217.418018 C197.953324,219.49176 196.237466,218.499971 194.521608,217.598344 C193.166984,216.877042 192.534826,216.606554 191.27051,217.868832 C189.554652,219.581923 187.387253,220.844201 185.310162,222.016316 C184.497388,222.467129 183.142763,222.376967 182.149372,221.926153 C180.252898,221.024526 178.356424,220.754038 176.279333,222.196641 C177.453341,219.852411 176.730874,218.319645 175.015017,216.877042 C174.111934,216.065578 174.8344,214.893463 175.195633,213.901673 C175.647175,212.639395 176.369641,211.46728 175.647175,209.934514 C174.924708,208.401748 174.021625,207.590284 172.396076,208.401748 C170.58991,209.393538 170.138369,208.13126 169.777136,206.959145 C169.325594,205.606705 168.874053,204.164102 170.770527,203.4428 C172.396076,202.811661 174.202242,202.811661 175.9181,203.082149 C176.459949,203.172312 177.272724,203.532962 177.543649,203.262474 C179.711048,201.45922 182.420297,201.639546 184.858621,201.008407 C186.303553,200.647756 187.296945,199.655967 187.296945,198.213363 C187.296945,196.951085 186.213245,196.590435 185.039237,196.319947 C184.617506,196.236398 184.23597,196.014193 183.955538,195.688808 C183.503996,195.147831 182.510605,194.78718 183.142763,193.885553 C183.684613,193.254414 184.678004,193.074089 185.129546,193.705228 C186.393862,195.418319 188.019411,193.795391 189.374036,194.42653 C190.18681,192.172462 192.805751,192.352788 194.070067,190.820022 C194.702225,190.549534 194.160375,189.557744 194.97315,189.10693 L194.97315,189.10693 Z" id="形状" fill="#B1C1F2"></path>
                <path d="M195.857236,189.161971 C195.403326,188.44752 195.58489,187.018618 194.223159,187.107924 C192.952211,187.107924 193.133775,188.268907 192.952211,189.072665 C192.679864,190.055035 187.686852,192.734227 186.597467,192.377001 C186.506685,192.377001 186.234339,192.377001 186.234339,192.287695 C185.871211,189.251277 181.876801,188.268907 181.876801,184.875264 C181.876801,183.178443 182.239929,182.374686 183.964788,182.463992 C184.600262,182.463992 185.326519,182.463992 185.961993,182.642605 C188.231544,183.26775 189.502493,182.463992 190.955005,180.677864 C193.042993,177.998672 195.766454,175.855319 197.672877,172.997514 C198.489915,171.747225 199.125389,170.496936 199.5793,169.068033 C200.214774,166.746067 201.667287,166.299535 203.392146,167.90705 C204.299966,168.710808 205.117004,169.246646 206.387953,169.246646 C208.47594,169.15734 209.837671,170.318323 210.291581,172.283063 C210.654709,174.158498 209.020632,174.694336 207.749684,175.408787 C205.843261,176.56977 203.664492,176.748383 201.576505,176.837689 C199.851646,176.926996 199.216172,177.909366 199.670082,179.248962 C200.48712,181.481622 200.759466,183.982201 202.756671,185.679022 C203.846056,186.661392 204.753876,187.822375 205.026222,189.340584 C205.661697,192.198388 205.661697,192.198388 203.210581,194.788274 C203.210581,192.734227 200.214774,193.002146 200.48712,190.858793 C200.48712,190.68018 200.214774,190.412261 200.123992,190.233648 C199.034607,186.929311 198.580697,186.840005 195.857236,189.161971 L195.857236,189.161971 Z M185.508083,143.079874 C183.420096,141.561665 182.330711,139.686231 180.424288,138.882474 C180.242724,138.793167 180.06116,138.435942 180.151942,138.257329 C181.150545,136.024669 179.698032,134.327848 179.244122,132.363107 C178.154737,128.0764 177.791609,127.36195 173.615635,126.11166 C176.06675,126.558192 177.973173,124.325532 180.424288,124.682758 C181.241327,124.772064 181.967583,123.164549 182.149147,122.450098 C182.875404,119.949519 182.239929,118.074085 183.420096,115.662812 C183.783224,114.859055 184.05557,113.876685 184.691044,113.25154 C185.508083,112.447782 186.234339,112.179863 187.232942,112.894314 C188.231544,113.519459 188.867018,114.323216 188.413108,115.573506 C188.04998,116.555876 187.414506,117.538246 187.232942,118.520617 C186.960596,120.217438 186.960596,121.91426 189.502493,121.735647 C190.955005,121.646341 191.13657,122.718017 191.227352,123.611081 C191.227352,124.772064 190.955005,125.843741 190.773441,127.004724 C190.591877,128.0764 190.228749,128.969464 188.776236,128.165707 C187.051378,127.183337 186.506685,128.790852 186.506685,129.683915 C186.506685,131.916575 184.781827,134.685073 188.322326,136.292588 C189.411711,136.73912 188.776236,139.150393 187.505288,139.239699 C185.417301,139.596925 184.781827,140.668601 185.508083,143.079874 L185.508083,143.079874 Z M229.628156,100.570033 C230.172849,101.731016 231.353015,102.534773 229.537374,103.070611 C228.720336,103.338531 228.266426,103.517143 228.357208,104.499514 C228.44799,105.481884 228.720336,106.196335 229.718938,106.553561 C230.626759,106.910786 232.079272,107.000093 231.806925,108.518301 C231.534579,109.857897 231.625361,111.286799 229.628156,111.911944 C227.540191,111.911944 229.628156,111.911944 229.628156,111.911944" id="形状" fill="#B1C1F2"></path>
            </g>
        </g>
    </g>
</svg>