<?xml version="1.0" encoding="UTF-8"?>
<svg width="240px" height="200px" viewBox="0 0 240 200" version="1.1" xmlns="http://www.w3.org/2000/svg" xmlns:xlink="http://www.w3.org/1999/xlink">
    <!-- Generator: Sketch 60.1 (88133) - https://sketch.com -->
    <title>map-xiao</title>
    <desc>Created with Sketch.</desc>
    <g id="页面-1" stroke="none" stroke-width="1" fill="none" fill-rule="evenodd">
        <g id="交易设置-已配置不可送区域-状态1" transform="translate(-334.000000, -164.000000)" fill-rule="nonzero">
            <g id="map-xiao" transform="translate(334.000000, 164.000000)">
                <path d="M240,33.0302727 C239.800548,33.4277139 239.534611,33.8251553 239.335159,34.2888369 C238.803286,35.8786021 237.73954,36.3422835 236.210406,35.9448423 C234.01643,35.3486803 233.418073,37.2034063 232.487296,38.3294901 C231.490034,39.4555736 232.088391,40.5816574 233.019169,41.5090202 C234.415335,42.9000648 234.348851,44.7547908 234.614787,46.7419972 C233.351589,46.079595 231.888939,46.344556 231.888939,44.5560702 C231.888939,44.158629 231.09113,44.0261484 231.09113,44.0923886 C230.625741,45.9471146 228.631218,44.6223104 227.966377,45.8146342 C227.235051,49.1928851 227.235051,49.1928851 224.509203,46.8744776 C223.777878,46.2783156 223.179521,45.483433 222.780616,44.6885506 C222.182259,44.8872712 222.248743,45.2847126 222.115775,45.6159136 C221.583902,46.6095168 220.852577,46.675757 220.387188,45.6821538 C219.901492,44.7563866 219.021764,44.0990116 217.99376,43.893668 C217.66134,43.8274278 217.262435,43.6287072 217.129467,43.297506 C216.464626,41.9727016 215.267912,42.1051822 214.137682,42.370143 C213.672293,42.4363832 213.073936,42.7675842 212.808,42.3039028 C211.67777,40.3829366 210.015668,41.3765398 208.619501,41.6415006 C205.494748,42.1714224 204.962875,42.1051822 203.500225,39.1906128 C203.167805,38.5282107 202.901868,38.0645293 202.037575,38.3294901 C201.439218,38.5282107 200.574924,38.4619705 200.441956,37.8658085 C199.976567,36.0773227 198.447433,35.0837195 197.516655,33.6264347 C196.718846,32.3678707 196.78533,31.3080271 198.048528,30.5131447 C198.979306,29.9169828 199.311726,28.9233796 199.644147,27.9960166 C200.109536,26.8036928 200.641408,25.7438492 202.237027,26.0750502 C203.300773,26.2737708 203.367257,25.2801676 203.300773,24.8164862 C203.034836,22.9617602 203.367257,21.2395147 204.165066,19.5835093 C204.298034,19.3847887 204.23155,19.1198277 204.165066,18.8548669 C203.633193,16.5364593 204.098582,14.1518117 203.832646,11.8334042 C203.739238,10.9911927 203.467297,10.1783648 203.034836,9.44875639 C202.104059,7.92523141 201.372734,7.85899121 200.043051,8.98507499 C198.846338,9.97867818 197.250719,10.4423598 195.921037,11.2372422 C194.923775,11.8334042 193.992998,10.7735606 193.328157,10.0449184 C192.463863,9.11755539 191.799022,8.1239522 192.663316,6.79914782 C192.7298,6.46794682 193.328157,6.00426523 192.397379,5.80554463 C191.533086,5.60682403 190.402856,4.74570124 189.738015,5.80554463 C189.139658,6.79914782 188.408333,6.46794682 187.743492,6.33546642 C186.945682,6.13674582 187.07865,5.27562303 187.07865,4.61322084 C187.145135,1.56617088 190.934729,-0.8847169 193.793545,0.307606888 C194.524871,0.572567687 195.189712,1.10248948 195.987521,0.97000908 C198.580401,0.506327488 200.308988,1.69865147 201.97109,3.55337745 C205.36178,7.32906961 209.018406,10.9060412 210.746993,15.8740573 C211.079413,16.8014203 211.67777,17.1326213 212.608548,17.1988615 C214.470103,17.3975821 216.331658,17.3975821 218.193213,17.7287833 C219.855315,17.9937441 221.317966,18.6561463 222.8471,19.1198277 C223.777878,19.4510287 224.509203,21.1070341 224.841624,22.2331178 C225.373497,23.9553634 226.038337,24.5515254 227.766924,24.2865644 C228.631218,24.154084 229.561995,23.9553634 230.426289,23.8891232 C232.154875,23.6904026 233.285105,22.9617602 233.351589,21.1070343 C233.351589,20.6433527 233.484557,20.2459115 233.949946,20.1134311 C235.013692,19.7159899 235.612049,18.9211073 236.143922,18.0599843 C236.542826,17.4638223 237.141183,17.1988615 237.872509,17.3313419 C238.670318,17.4638223 238.204929,18.2587049 238.470865,18.6561463 C239.867032,21.3057549 238.603834,24.3528048 239.534611,27.0686536 C239.66758,27.4660948 239.534611,27.9297764 239.933516,28.2609774 C240,29.9169828 240,31.4405077 240,33.0302727 L240,33.0302727 Z M17.012304,96.687119 C16.4139469,96.5546386 15.8155901,96.4221582 15.2172331,96.3559178 C13.8210667,96.1571972 12.9567733,95.494795 12.9567733,94.0375104 L12.9567733,93.7063092 C13.2227097,90.4605387 12.0924799,88.2083715 8.63530634,87.4134889 C7.70452885,87.2147683 6.84023546,86.6186063 8.10343341,85.6912433 C7.97046522,85.5587629 7.90398113,85.4262825 7.83749704,85.3600423 C4.51329163,85.1613217 4.51329163,85.1613217 5.31110094,81.7830706 C5.6435214,80.392026 4.31383936,78.3385794 2.65173665,78.0736186 C1.72095916,77.9411382 1.18908623,77.4112164 0.457761209,76.947535 C0.524245301,76.7488144 0.524245301,76.616334 0.657213486,76.5500936 C1.3885387,75.9539316 2.71822074,76.8812946 3.11712549,75.8876916 C3.71548252,74.3641666 4.18087117,72.7744015 4.04790298,71.1183961 C3.9149348,69.8598321 4.24735526,68.4687875 2.91767302,67.4089441 C2.31931599,66.9452625 1.98689553,66.6803017 1.45502279,67.3427039 C1.12260233,67.7401451 0.723697579,67.9388659 0.258308736,67.5414245 C-0.140595819,67.1439833 -0.00762763387,66.7465419 0.191824644,66.4153409 C1.05611804,65.2892573 0.989633949,64.1631736 0.790181671,62.8383694 C0.524245301,61.2486042 4.18087117,59.0626772 5.90945797,59.5925988 C7.17265592,59.99004 8.30288588,60.9174032 9.43311565,59.2613978 C9.63256793,58.9301968 10.6963136,58.7977162 10.8957661,59.9237998 C11.1617024,61.513565 12.8238051,61.9772464 13.7545826,60.7186824 C15.0177806,59.062677 16.6798833,58.8639564 18.5414383,58.400275 C20.3365092,58.0028338 21.9321278,58.0028338 23.6607146,58.3340348 C24.0596191,58.400275 24.3920398,58.3340348 24.6579762,58.0690738 C25.4557855,56.87675 26.7189834,57.0092304 27.9156975,57.0092304 C30.1761572,57.0092304 32.2371645,55.5519457 33.0349738,53.4322589 C33.234426,52.9023371 32.9684897,51.6437731 34.2316876,52.7698567 C34.6305922,53.0348175 34.6970765,52.5048959 34.7635606,52.3061753 C35.1624651,50.6501699 36.1597269,49.1928851 35.694338,47.4043994 C35.5613698,46.8155975 35.5613698,46.2047155 35.694338,45.6159136 C36.1597269,43.8274278 36.3591792,42.038942 34.7635606,40.3166964 C37.555893,39.7205344 39.9493209,40.184216 42.3427489,40.7141376 C43.1405582,40.9128582 43.8718834,41.773981 44.7361766,41.111579 C45.60047,40.4491768 45.068597,39.588054 44.9356291,38.7931715 C44.8026609,38.3294899 44.7361768,37.8658085 45.0685972,37.4021269 C46.3982795,35.7461215 47.7279615,34.0901161 48.9911595,32.3678707 C49.5230324,31.6392283 49.9884211,32.0366697 50.520294,32.3678707 C51.8499762,33.2289935 53.1796583,34.0901163 54.7087928,34.5537977 C57.1022207,35.2824401 58.631355,34.4875575 59.2961962,32.1029097 C59.3626802,31.7717087 59.4956484,31.3742673 59.4956484,31.0430663 C59.4956484,28.459698 61.024783,27.2673742 63.3517268,26.7374524 C64.2160202,26.5387318 64.8143772,26.0750502 65.0138295,25.081447 C65.1467977,24.5515252 65.3462499,24.0878438 66.1440592,23.8891232 C67.6067097,23.5579222 68.2050665,23.6904026 68.7369394,25.4788884 C69.5347487,28.128497 70.9309151,30.7781055 73.9891839,31.7054685 C75.4518343,32.1691501 76.1166753,33.0965131 76.5820641,34.6200379 C77.6458098,38.1307693 77.6458098,41.44278 75.917223,44.821031 C74.7869932,47.0069582 75.7842548,48.1992819 78.3106509,48.4642427 C81.0364993,48.6629633 83.8288318,48.6629633 86.3552279,50.2527285 C87.5519417,50.9813709 88.8151399,51.7100133 89.479981,52.9685773 C89.9453698,53.8297001 90.5437267,54.2271413 91.4745042,54.1609013 C91.8734087,54.1609013 92.4052816,54.0946611 92.5382498,54.6245827 C93.269575,57.2741912 95.1976141,59.4601184 95.729487,62.1759672 C96.1948759,64.4281346 95.13113,66.8790223 93.3360591,67.2764637 C93.0056953,67.9496239 92.2891756,68.3462302 91.5409882,68.2700669 C88.7486558,67.9388659 87.1530372,69.6611115 85.6903867,71.5158375 C84.6266411,72.9068821 83.7623477,74.2979264 81.7013404,74.2979264 C80.9035311,74.2979264 80.3716582,75.1590492 80.4381423,75.8876916 C80.5711104,77.0137752 80.3051741,78.2060992 80.6375945,79.3321828 C80.970015,80.5907468 80.3716582,81.1206686 79.3079125,81.4518696 C76.51558,82.2467522 73.6567635,82.7104336 70.7314626,82.9753945 C69.734201,83.0416347 68.537487,83.1741151 68.3380347,84.1677183 C68.0720983,85.2938019 67.9391301,86.6186063 69.0028758,87.6122095 C69.4682647,88.0096507 69.9336533,88.4070921 70.3325581,88.8707737 C71.2633355,89.7981367 71.4627878,90.9242203 70.7314626,91.9840636 C70.0666215,92.9776668 69.6677169,93.9050298 70.0666215,95.163594 C70.3990419,96.422158 69.4682645,96.8858396 68.4710031,96.687119 C66.4764799,96.355918 64.4154725,96.2896778 62.6868857,95.2960744 C61.024783,94.4349516 59.3626802,93.9050298 57.6340935,93.3751082 C57.3681571,93.308868 57.0357364,93.1101474 56.7698001,93.1763876 C53.9774676,93.6400692 51.118651,93.5075886 48.4592867,94.567432 C46.8636681,95.163594 45.3345336,95.825996 43.5394627,95.3623146 C42.8081375,95.163594 42.0103282,95.3623146 41.2125189,95.494795 C38.4866705,95.8922362 35.8273062,95.8922362 33.8992672,93.4413484 C33.5003626,92.9776668 33.0349738,92.7789462 32.4366167,93.1763876 C29.7772524,94.832393 27.0514041,94.236231 24.3255557,93.5075886 C21.6661914,92.7789462 21.1343185,92.9776668 20.0040887,95.5610352 C19.3392476,97.1508004 18.8073748,97.349521 17.012304,96.687119 L17.012304,96.687119 Z" id="形状" fill="#C0CFFA"></path>
                <ellipse id="椭圆形" fill="#C0CFFA" cx="162.782609" cy="93.9130435" rx="14.6086957" ry="26.0869565"></ellipse>
                <path d="M99.5700548,143.512149 C98.5739672,143.976053 97.843503,143.777237 97.2458505,142.783157 C96.8474156,142.120436 96.249763,141.523988 95.3200813,141.789076 C94.3903995,142.120436 94.589617,142.9157 94.589617,143.644693 C94.4568054,145.632854 94.0583702,145.83167 92.3318184,144.771317 C91.0037016,143.976053 90.1404257,142.25298 88.1482506,142.451796 C86.9529455,142.58434 85.7576403,142.716884 84.695147,143.379605 C83.035001,144.373685 81.4412608,145.566582 79.3162741,145.367766 C78.5858098,145.301494 78.3201865,146.030486 77.9881574,146.49439 C76.4608231,148.548823 72.6092845,149.874264 70.3514859,148.880183 C69.2225868,148.416279 68.69134,147.289655 68.7577458,146.030486 C68.7577458,145.367766 68.8905574,144.638773 67.8280641,144.638773 C67.496035,144.638773 67.1640056,144.439957 67.2304115,144.108597 C67.5624406,142.385524 66.2343239,142.385524 65.2382364,142.319252 C63.6444962,142.186708 62.4491912,141.192628 61.1210743,140.529907 C58.5976524,139.337011 57.8007824,139.535827 56.2734482,141.789076 C55.8750133,142.319252 55.6093898,142.9157 55.2109549,143.512149 C54.9453316,143.909781 54.7461139,144.705045 54.0156496,144.042325 C53.4844029,143.578421 53.0195621,143.114517 53.6172147,142.385524 C54.0156496,141.92162 54.7461139,141.457716 54.347679,140.728723 C53.882838,139.933459 53.0195621,139.999731 52.222692,140.066003 C51.2930103,140.132275 50.4297344,140.331091 49.5000527,140.397363 C47.9727183,140.463635 46.445384,140.662451 45.3164848,139.337011 C45.1172673,139.071923 44.5860206,138.806835 44.3868031,138.873107 C42.2618163,139.535827 41.2657286,137.746482 39.7383945,137.01749 C37.6134077,136.023409 36.4181025,133.836432 34.1603039,133.173712 C33.4962455,132.974896 33.297028,132.378448 33.0314047,131.848271 C32.5665638,130.787919 32.2345346,129.462478 30.5079828,129.860111 C30.3087654,129.926383 29.9767361,129.727567 29.9103304,129.52875 C28.9142429,127.341773 26.6564443,126.347693 25.1955158,124.558348 C24.7306748,123.9619 24.1330224,123.431724 24.0666166,122.570187 C24.0002108,121.642379 23.2033407,121.576107 22.4728764,121.377291 C21.6096005,121.112203 21.4103831,121.642379 21.0783537,122.172555 C20.4807011,123.365452 19.8166429,123.100364 19.2189903,122.238827 C17.691656,120.05185 15.2346399,118.72641 13.9729291,116.274344 C13.6408999,115.677896 13.1096532,115.015176 12.3127831,115.015176 C10.5198255,115.015176 10.1213903,113.756007 10.6526371,112.629383 C11.4495072,110.972582 11.515913,109.315781 11.0510722,107.460164 C11.8479423,108.387973 12.5784066,108.851877 13.5744941,108.255429 C14.6369875,107.526436 15.3674517,106.598628 14.9690166,105.206915 C14.7033933,104.279107 14.2385524,103.41757 13.9065232,102.489762 C13.2424648,100.700417 14.2385524,98.1820801 16.097916,97.2542717 C18.8869612,97.3868157 19.0197728,98.3808962 20.0158604,96.1939193 C20.8791363,94.3383025 21.808818,93.5430381 23.8009931,94.1394864 C26.5236324,94.9347508 29.3790834,95.5311991 32.0353172,93.9406702 C32.6993756,93.5430381 33.2306222,93.6093101 33.6290573,94.2057584 C35.422015,96.9229116 38.1446543,96.5915516 40.8008878,96.2601913 C41.6641637,96.1276473 42.5274396,95.9288312 43.3243097,96.1276473 C45.0508615,96.5252793 46.5781958,96.2601913 48.0391242,95.4649269 C48.9688059,94.9347506 49.8984876,94.6696625 50.9609812,94.7359345 C52.0234745,94.8022066 53.0859679,94.4708465 54.1484613,94.2720304 C57.3359416,93.6755821 59.1953051,94.2057584 62.6484087,95.9288312 C63.9101195,96.5915516 63.5116846,98.4471684 62.7148145,99.6400648 C62.1835677,100.435329 62.0507561,101.164322 62.515597,101.959586 C63.3788729,103.417571 63.1796554,104.941827 62.4491912,106.267268 C61.5859153,107.725253 61.9179444,108.918149 62.8476261,110.111046 C63.3788729,110.773766 63.7773079,111.502758 64.3749605,112.165478 C65.0390189,112.894471 65.7694831,113.292103 66.7655707,112.828199 C67.7616582,112.364295 68.6249341,112.629383 69.1561809,113.557191 C69.8202394,114.617544 70.7499211,115.213992 71.8124145,115.677896 C75.3319239,117.135881 78.7850275,118.991498 82.7693777,118.129961 C83.5662478,117.997417 84.296712,118.196233 84.695147,118.858954 C85.6912345,120.250666 87.0193514,121.311019 87.617004,122.967819 C88.2146566,124.558348 89.8083967,124.757164 90.9372959,123.497996 C91.5349485,122.835275 92.132601,122.371371 92.8630652,123.29918 C93.6599353,124.29326 94.1911821,123.763084 94.6560228,123.034092 C95.0544578,122.437643 95.3864871,121.774923 95.5192987,121.045931 C95.7185162,120.05185 96.3161688,119.919306 97.1130389,120.449482 C97.5778799,120.71457 98.1755323,120.979659 98.3747497,121.509835 C99.2380256,123.63054 100.831766,125.353612 101.363012,127.673134 C101.960665,130.655375 102.491912,133.703888 103.089564,136.68613 C103.288782,137.812754 102.823941,138.740563 102.159882,139.535827 C101.230201,140.662451 99.9684897,141.656532 100.101302,143.379605 C100.234113,143.247061 99.9020841,143.445877 99.5700548,143.512149 L99.5700548,143.512149 Z M190.081213,67.2330422 C188.885908,68.5584829 187.557791,67.6306743 186.428891,67.2993142 C185.366398,67.0342261 185.831239,65.9738735 185.964051,65.1123371 C186.030457,64.3170727 186.428892,62.9916322 184.635934,63.4555363 C183.971875,63.6543524 183.971875,62.792816 183.839064,62.2626398 C183.440629,60.8046551 182.577353,60.5395671 181.315642,61.5336475 C181.18283,61.6661915 181.050019,61.9312796 180.983613,61.9312798 C178.393785,61.7324637 179.257061,63.6543526 179.124249,64.913521 C178.925032,66.6365938 177.464103,66.7028658 176.268798,66.7028658 C175.339116,66.7028658 174.741464,66.8354099 174.210217,67.6969463 C173.479753,68.8235707 172.483665,68.6910267 171.886013,67.4318582 C171.753201,67.1004981 171.686795,66.7028658 171.553984,66.3715058 C171.421172,66.0401457 171.354766,65.6425134 171.022737,65.3111533 C170.093055,66.702866 169.296185,68.0945786 168.565721,69.5525631 C168.199458,70.2591741 168.199458,71.0992012 168.565721,71.8058122 C169.362591,73.8602451 168.632127,75.1194137 166.440734,75.4507738 C165.444647,75.5833178 164.514965,75.6495899 163.518877,76.1797662 C162.52279,76.7762145 161.792325,77.3063906 161.460296,78.4330153 C161.194673,79.1620076 160.530614,79.758456 159.80015,80.023544 C157.807975,80.6862644 156.081423,82.2105211 153.823625,82.0117049 C153.624407,82.0117049 153.358784,82.0117049 153.358784,82.2105209 C153.225972,83.8673217 151.698638,84.1324098 150.636145,84.8614021 C149.175216,85.8554825 148.577564,87.3134673 148.378346,88.970268 C147.847099,93.211678 146.054142,93.27795 142.601038,91.223517 C141.604951,90.6270686 140.874486,89.6992602 139.612775,89.3679001 C138.815905,89.1690841 138.683094,88.3075477 138.815905,87.5122833 C138.882311,86.7170189 139.280746,85.9880266 139.54637,85.2590344 C139.878399,84.397498 139.811993,83.6022336 138.882311,83.0720573 C138.019035,82.541881 137.222165,82.475609 136.425295,83.2708734 C135.429208,84.1986818 135.030773,85.4578505 134.964367,86.7170189 C134.632338,92.1513254 132.772974,92.3501414 127.72613,92.5489577 C125.202709,92.6815017 123.808186,90.4282528 124.671462,88.1087317 C125.069897,87.1146512 125.933173,86.6507469 126.730043,86.1205708 C127.792536,85.3915784 128.722218,84.46377 128.124565,82.9395133 C127.593319,81.6140726 126.597231,81.1501685 125.601143,82.1442489 C124.007403,83.8010497 122.413663,84.0661377 120.355082,83.3371454 C119.4254,82.9395133 118.96056,83.5359614 119.159777,84.46377 C119.226183,85.0602184 119.358995,85.5241225 118.694936,85.8554825 C118.097284,86.1868426 117.499631,85.9880266 117.03479,85.5903945 C115.972297,84.5963141 114.444963,84.1986818 113.913716,82.475609 C113.581687,81.4152566 112.319976,80.8850802 111.390294,80.2223601 C109.265307,78.5655593 109.198901,78.3667433 110.527018,76.0472221 C110.726236,75.7158621 110.991859,75.4507738 110.991859,75.0531417 C111.058265,74.3904214 110.991859,73.727701 109.995771,74.0590613 C108.335625,74.6555096 106.476262,73.9927893 104.948928,75.3182298 C104.417681,75.7821341 103.95284,75.3845018 103.687217,74.7880535 C103.112871,73.3323679 102.40135,71.934384 101.56223,70.6129157 C101.296607,70.1490114 101.230201,69.6851073 101.495824,69.221203 C102.027071,68.3596666 101.894259,67.4981302 101.495824,66.6365938 C101.097389,65.9076015 100.632548,65.1786091 100.632548,64.2508007 C101.429418,63.9857126 102.159883,64.4496167 102.890347,64.648433 C106.011421,65.5099694 109.198901,65.6425134 112.452787,65.1123371 C114.710586,64.714705 116.769167,65.1786091 118.62853,66.5040498 C120.155865,67.5644022 121.683199,68.6247547 123.476157,69.353747 C125.003491,69.9501954 126.530825,70.4803715 128.257377,69.8839234 C128.589406,69.7513793 129.187059,69.4200191 129.386276,69.9501954 C130.249552,71.8720842 131.843292,70.8780038 132.507351,70.2815554 C136.757324,66.4377778 141.804168,65.7087854 147.116635,66.2389617 C150.171304,66.5040498 152.030667,65.2448813 153.558001,62.8590882 C154.620495,61.2022874 155.682988,59.6780307 157.741569,59.0815823 C159.268904,58.617678 159.468121,56.6957892 158.339222,55.767981 C157.40954,55.0389886 157.343134,53.0508278 158.140004,51.7253871 C158.870469,50.5324906 159.932962,50.8638507 160.862644,51.2614828 C162.854819,52.0567472 164.714182,52.6531955 166.772763,51.526571 C167.30401,51.195211 167.835257,50.9963947 168.034474,50.3336744 C168.499315,48.9419617 169.561809,48.3455135 170.889925,48.1466975 C173.413347,47.8153374 174.741464,46.3573527 175.073493,43.8390155 C175.206305,42.712391 175.538334,41.9171267 176.932857,41.8508547 C177.530509,41.8508547 178.260973,41.4532226 178.725814,40.9893183 C180.784395,39.1337014 183.175005,38.6697971 185.831239,39.0011572 C186.628109,39.0674292 187.557791,39.1999733 188.022632,38.2058928 C188.487473,37.1455404 187.757008,36.4828201 187.09295,35.8863719 C185.632021,34.6272034 183.839064,33.831939 182.577353,32.3076823 C181.9797,31.5786899 178.858626,31.777506 178.327379,32.6390424 C177.596915,33.8982109 176.534422,33.8982109 175.538334,33.5668508 C174.011,33.1029465 172.815695,33.3680347 171.686795,34.6272032 C171.155549,32.3739541 171.686795,30.4520653 172.018825,28.5301765 C172.284448,27.0721917 172.616477,25.6142072 172.749289,24.0899505 C172.8821,22.3006057 173.546159,22.0355176 175.272711,22.76451 C176.202392,23.1621421 176.800045,24.7526708 177.928944,24.0899505 C178.858626,23.6260462 179.456278,22.5656937 180.120337,21.7041573 C180.784395,20.8426209 182.178918,20.4449888 182.112512,19.2520924 C182.046106,18.0591959 182.378135,16.9325713 182.444541,15.8059468 C182.577353,13.4201537 183.440629,11.3657208 184.503122,9.31128774 C185.432804,7.52194294 184.967963,6.06395821 183.307817,5.06987779 C183.042194,4.93733376 182.842976,4.80478973 182.975788,4.60597368 C183.507035,3.87698132 183.57344,2.81662888 184.569528,2.48526861 C185.167181,2.28645256 185.897645,1.82254826 186.428891,2.28645256 C187.026544,2.75035686 186.229674,3.21426097 186.163268,3.74443729 C186.030457,4.93733376 185.764833,6.32904647 187.09295,6.79295058 C188.022632,7.12431065 189.350749,7.72075899 190.147618,6.13023042 C190.413242,5.60005411 191.010894,6.26277445 191.475735,6.06395821 C192.139794,7.45567092 191.940576,9.24501573 193.46791,10.3716402 C194.663215,11.2331766 195.460085,11.6308087 196.721796,10.4379124 C197.78429,9.44383197 199.444436,9.31128794 200.506929,8.05211926 C200.97177,7.52194294 201.76864,7.91957523 202.233481,8.51602336 C202.963945,9.37755976 203.495192,10.4379122 203.628004,11.6308089 C203.893627,14.082874 203.893627,16.5349392 203.893627,18.9207321 C203.893627,20.975165 202.698322,23.1621421 202.831134,25.4153912 C202.897539,25.9455675 202.366293,26.4094716 201.702234,26.1443835 C200.506929,25.6804792 199.842871,26.3431996 199.510842,27.403552 C199.184785,28.6920223 198.436898,29.8349177 197.385855,30.6508815 C196.389767,31.4461459 196.389767,32.4402263 197.120231,33.6331228 C197.850696,34.8260193 199.245218,35.4887396 199.643653,37.0129964 C200.440523,39.9952376 199.444436,41.1218623 196.522579,40.525414 C196.124144,40.4591419 195.592897,40.3265979 195.39368,40.790502 C195.06165,41.3869504 195.526491,41.7183104 195.991332,41.9171267 C197.186637,42.513575 197.518667,43.5076554 197.452261,44.7668239 C197.452261,46.1585366 198.116319,47.3514331 198.647566,48.5443296 C198.913189,49.2070499 199.510842,49.405866 200.108494,48.9419618 C200.706147,48.5443298 201.303799,47.7490654 202.034264,48.4117855 C202.831134,49.1407779 203.893627,49.8034982 203.960033,51.1289387 C203.960033,51.7253871 203.960033,52.3218352 203.827221,52.9182835 C203.69441,53.4484599 203.827221,53.912364 204.358468,54.1774522 C205.022526,54.5088123 205.819396,54.7076285 205.487367,55.701709 C205.221744,56.5632454 204.624091,57.2922377 203.69441,57.2922375 C202.100669,57.2259655 200.838959,57.5573256 200.108494,59.0815823 C197.253043,59.5454866 195.991332,62.0638236 193.999157,63.6543526 C193.335099,64.1845289 192.67104,64.2508009 192.006982,63.7206246 C191.542141,63.3892645 191.143706,62.9916322 190.546054,62.9916322 C190.214024,64.3833449 191.741359,65.9738735 190.081213,67.2330422 L190.081213,67.2330422 Z" id="形状" fill="#B1C1F2"></path>
                <path d="M94.0867543,67.3650422 C95.4200904,67.4315091 95.8867579,67.2321083 95.8200911,65.5704341 C95.8200911,64.6398966 95.6200908,63.3770241 96.9534267,63.0446893 C98.4867632,62.6458876 99.3534316,63.775826 100.0201,64.8392974 C100.486767,65.5039671 100.353434,66.4345047 101.086768,67.0327074 C102.08677,67.4979763 101.88677,68.4285138 101.286769,69.2261172 C100.886768,69.757853 100.686768,70.2231217 101.220102,70.8213244 C102.286771,71.9512628 102.686772,73.4800031 103.220106,74.8093425 C103.686774,75.8728139 103.953441,76.6704175 104.820109,75.806347 C106.286779,74.4105406 108.220116,74.9422764 109.886786,74.2111397 C110.22012,74.0782058 110.553454,74.8093425 110.553454,75.3410781 C110.553454,75.6069459 110.353454,75.806347 110.22012,76.0057478 C108.55345,78.9302943 108.75345,78.9967612 111.553456,80.9243034 C112.620125,81.6554401 113.753461,82.3865767 114.020128,83.8488499 C114.086795,84.3141187 117.820136,86.7069294 118.286803,86.6404624 C119.020138,86.5075285 119.686806,86.4410616 119.420139,85.3111232 C119.086805,83.8488499 119.553472,83.4500482 121.020142,83.9817838 C122.820146,84.6464535 122.420145,84.4470526 124.620149,83.4500482 C125.620151,82.9847793 126.286819,81.3231053 127.153488,82.1871757 C127.95349,82.9847793 127.820156,83.8488499 127.086821,85.0452552 C126.620153,85.7763919 126.420153,85.9093258 125.620151,86.1751938 C123.886815,86.7733965 123.820148,88.8338724 123.953481,90.2296786 C124.086815,91.559018 124.82015,92.4895555 126.286819,92.8883572 C127.420155,93.154225 129.086825,93.5530269 130.286827,93.8188948 C130.886829,93.9518287 131.353496,94.5500314 131.553497,95.0817672 C132.086831,97.2087101 133.753501,99.0033181 133.220167,101.396129 C133.020166,102.127266 133.420167,102.725468 134.086835,103.057803 C134.62017,103.323671 135.086837,103.722473 135.486838,104.187742 C136.753507,105.583548 136.753507,105.583548 137.553509,103.988341 C137.820176,103.523072 138.220177,103.323671 138.620178,103.057803 C140.086847,102.2602 140.286848,101.130261 139.020178,99.9338559 C138.29334,99.2725481 137.90193,98.3213454 137.95351,97.3416442 C138.020176,96.4111066 137.820176,95.4141022 138.820178,94.9488333 C139.82018,94.5500316 140.820182,94.8158994 141.553517,95.4805689 C142.95352,96.8099084 144.62019,97.6739789 146.353527,98.3386486 C147.486862,98.7374503 148.020197,99.535054 147.553529,100.797926 C147.420196,101.196728 147.220195,101.59553 147.286862,102.060799 C147.420196,103.78894 146.820194,104.785944 144.82019,104.852411 C143.820188,104.852411 143.086853,105.716482 142.553519,106.580552 C142.086851,107.378156 141.420183,107.444623 140.686849,107.112288 C139.953514,106.84642 139.153512,106.248218 138.553511,107.178755 C137.820176,108.308694 136.686841,109.372165 137.220175,110.967372 C137.353508,111.366174 137.620176,111.698509 137.820176,112.097311 C138.353511,113.559584 137.95351,114.357187 136.420173,114.556588 C134.886837,114.755989 134.286836,115.487126 134.553503,117.015866 C134.82017,118.478139 134.086835,119.541611 132.753499,120.073347 C131.420163,120.605082 130.286827,119.807479 129.153492,119.209276 C128.820158,119.009875 128.753491,118.544606 128.820158,118.212271 C129.020158,117.414668 128.486824,116.949399 128.15349,116.284729 C127.286821,114.689522 126.153486,113.958386 124.353482,113.958386 C123.486814,113.958386 122.820146,113.293716 122.353478,112.562579 C122.020144,112.030844 122.086811,110.967372 121.153476,111.23324 C120.153474,111.499108 119.353472,112.296711 119.086805,113.360183 C118.886805,114.157787 119.686806,115.221258 118.620137,115.686527 C117.486802,116.151796 116.220132,115.952395 115.02013,115.553593 C113.886794,115.154791 112.953459,114.623055 112.953459,113.160782 C112.953459,111.565575 113.35346,111.100306 114.953463,111.100306 C116.753467,111.033839 117.020134,110.767971 116.353466,109.172764 C115.886798,108.109293 116.620133,107.644024 117.286801,107.378156 C119.686806,106.514085 120.420141,104.320675 121.420143,102.393133 C121.553476,102.127266 121.68681,101.794931 121.620143,101.529063 C120.686808,99.269186 120.820142,96.6105073 119.220139,94.5500314 C118.886805,94.0847626 118.55347,93.6859609 118.420137,93.1542252 C118.286803,92.4895555 117.886802,92.2236877 117.220134,92.3566216 C116.153466,92.5560225 115.486798,91.9578199 114.886796,91.2266833 C113.953461,90.1632118 112.753459,89.4320752 111.88679,88.3021366 C111.620123,88.0362688 111.220122,87.7039338 110.953455,87.770401 C108.820117,88.5680046 107.886782,86.7069296 106.620113,85.7763919 C105.153443,84.7129204 103.953441,83.3171141 101.820103,84.3805857 C100.820101,84.8458545 99.8200993,84.0482509 98.9534309,83.5165151 C97.2867608,82.5859776 97.2200941,82.5859776 96.9534267,84.3805857 C96.6867596,86.1751938 95.5534238,86.7069296 93.9534207,85.7763919 C93.3534195,85.3775901 92.886752,84.7793874 92.2867507,84.3141187 C90.0200793,82.3865767 87.5534078,80.9243034 84.4867349,80.8578365 C83.6867332,80.8578365 82.8867316,80.6584356 82.1533968,80.5255015 C80.5533935,80.2596337 80.2867263,79.594964 80.4200599,78.0662237 C80.4867267,77.401554 80.4200599,76.7368843 80.3533931,76.0722148 C80.2867263,75.0087434 80.8200608,73.8788048 81.8867296,74.0117389 C83.7534,74.3440736 83.9534004,73.4135361 84.753402,72.2835978 C85.5534037,71.2201263 86.2867385,70.1566549 87.4867409,69.4255183 C88.6200764,68.7608485 89.5534116,67.830311 91.1534151,68.4949805 C92.0867503,68.8273153 93.2867527,67.4315091 94.0867543,67.3650422 L94.0867543,67.3650422 Z M100.153433,143.868521 C100.886768,143.602653 101.086768,142.937983 100.820101,142.406247 C100.2201,140.943974 101.353436,140.678106 102.286771,140.079904 C101.620103,142.007446 102.686772,143.469719 103.420107,145.064926 C103.886774,145.995463 104.486775,146.128397 105.086777,145.397261 C105.753445,144.666124 106.353446,143.802054 106.486779,142.672115 C107.220114,143.336785 107.286781,144.067921 107.420115,144.732591 C107.686782,146.527199 108.486783,147.125402 110.22012,146.593666 C110.886788,146.394265 110.820121,146.793067 110.886788,147.058935 C111.420123,149.983482 113.486794,152.309825 113.886794,155.367306 C114.086795,157.161914 116.353466,157.627183 117.686802,156.297843 C118.220137,155.766107 118.620137,155.367306 119.553472,155.566707 C121.220143,155.899041 122.020144,154.968504 121.886811,153.30683 C121.820144,152.841561 121.68681,152.376292 121.553476,151.911024 C121.220143,150.714618 121.420143,149.850548 122.620145,149.185878 C124.153482,148.25534 125.153484,146.926001 124.486816,144.865525 C125.086817,145.064926 125.486818,145.19786 125.953485,145.330794 C126.286819,145.064926 126.220152,144.799058 126.153486,144.466723 C125.886819,143.536186 126.553487,143.270318 127.220155,143.070917 C128.020156,142.871516 128.086823,143.602653 128.286823,144.067921 C128.420157,144.333789 128.420157,144.666124 128.486824,144.931992 C128.753491,147.324803 128.953492,147.457737 131.153496,146.527199 C131.68683,146.327798 132.220165,145.995463 132.620166,146.527199 C133.020166,147.058935 132.886833,147.723605 132.486832,148.25534 C131.953498,148.92001 131.28683,149.451746 130.486828,149.185878 C129.086825,148.654142 127.686822,149.119411 126.353486,149.252345 C125.02015,149.385279 124.353482,150.315816 124.486816,151.645156 C124.620149,153.107429 125.220151,154.303834 126.753487,154.902037 C126.886821,154.968504 127.086821,154.83557 127.220155,154.702636 C127.686822,154.303834 128.15349,153.705632 128.753491,154.370301 C129.220159,154.902037 129.486826,155.633174 129.153492,156.430777 C128.886825,157.095447 128.620157,157.760117 128.420157,158.491253 C128.15349,159.288857 128.15349,160.086461 128.886825,160.618196 C130.02016,161.4158 129.953494,162.27987 129.486826,163.409809 C129.220159,164.008011 129.086825,164.739148 129.086825,165.337351 C129.153492,166.267888 129.62016,167.065492 130.753495,166.66669 C131.48683,166.400822 132.220165,166.334355 132.153498,167.33136 C132.153498,169.657704 133.820168,168.8601 135.02017,168.926567 C135.620172,168.993034 136.353507,167.796629 136.886841,168.926567 C137.286842,169.923571 137.020174,170.854109 135.886839,171.319378 C135.620172,171.452312 135.420171,171.651712 135.153504,171.851113 C133.020166,170.787642 131.753497,172.050514 130.286827,173.379854 C128.553491,174.975061 126.420153,175.706198 124.020148,175.041528 C123.420147,174.842127 122.953479,174.908594 122.553479,175.44033 C121.620143,176.836136 120.686808,176.636735 119.686806,175.506797 C119.086805,174.77566 118.420137,174.709193 117.686802,175.44033 C117.353468,175.772664 116.8868,176.038532 116.420133,176.171466 C114.620129,176.636735 114.086795,177.367872 114.420129,179.228947 L115.02013,181.887625 C115.153464,182.485828 115.686798,183.482833 115.02013,183.615766 C114.220128,183.7487 113.086793,183.549299 112.620125,182.485828 C112.486792,182.153493 112.420125,181.754691 112.286791,181.488824 C111.820123,180.425352 111.220122,179.960083 110.153453,181.023555 C109.020118,182.087026 107.220114,181.821158 106.620113,180.292418 C105.886778,178.564277 104.886776,177.434339 102.886772,177.367872 C102.020104,177.301405 102.220104,176.703202 102.553438,176.171466 C103.286773,175.107995 104.020108,174.11099 104.753443,173.047519 C104.353442,172.449316 103.753441,172.715184 103.220106,172.648717 C101.353436,172.515783 100.686768,171.851113 101.153435,170.056505 C101.420102,168.926567 100.486767,167.863095 101.020102,166.733157 C101.153435,166.467289 100.620101,165.935553 100.086766,166.201421 C98.6867636,167.065492 96.9534267,166.533756 95.7534244,167.530761 C95.3534236,167.198426 95.553424,166.932558 95.553424,166.799624 C94.6867556,164.273879 96.4867592,162.678672 97.553428,160.817597 C98.0867625,159.887059 98.3534296,158.55772 99.9534329,158.823588 C100.153433,158.890055 100.620101,158.55772 100.620101,158.291852 C101.353436,155.034971 102.620105,151.77809 101.153435,148.388274 C101.020102,148.05594 100.886768,147.524204 100.486767,147.657138 C99.4867652,147.989472 99.0200975,147.723605 98.9534309,146.593666 C98.5534302,145.131393 98.8200973,144.200855 100.153433,143.868521 L100.153433,143.868521 Z M186.820275,85.576991 C182.5536,87.770401 179.886928,91.559018 177.286923,95.347635 C177.086922,95.6799698 176.820255,96.0123047 177.020255,96.3446395 C177.820257,97.6739789 177.353589,97.9398467 175.953587,98.1392476 C174.486917,98.4051154 173.153581,99.0697851 171.553578,98.5380495 C172.75358,99.6015209 174.086916,99.535054 175.420252,99.0033181 C176.953589,98.4051154 177.820257,98.8703842 178.220258,100.465591 C178.420258,101.263195 178.220258,101.661997 177.55359,102.060799 C175.353585,103.456605 175.486919,103.390138 177.153589,105.184746 C178.486925,106.580553 179.953595,107.112288 181.820265,107.045821 C182.7536,106.979354 184.02027,108.906896 183.620269,109.770967 C183.286935,110.502104 182.820267,111.166773 182.086932,110.103302 C181.553598,109.372165 180.88693,108.973363 180.086928,109.305698 C179.086926,109.770967 179.753594,110.56857 179.953595,111.23324 C180.086928,111.698509 180.153595,112.030844 179.553594,112.230245 C178.620259,112.496112 178.353592,113.160782 178.353591,114.024853 C178.353591,114.224254 178.220258,114.623055 178.086924,114.623055 C175.553586,115.221258 177.220256,116.151796 177.886924,117.015866 C178.686925,118.012871 179.020259,119.541611 180.953597,119.076342 C181.486931,118.943408 181.953599,119.608078 181.953599,120.339214 C182.020265,121.53562 180.486929,123.197294 179.153593,123.197294 C178.820259,123.197294 178.553592,123.197294 178.353591,123.463162 C177.486923,124.460166 176.886922,123.928431 176.353587,123.197294 C175.686919,122.266756 174.886918,122.000889 173.820249,122.466157 C172.686913,122.931426 172.286912,122.466157 172.420246,121.336219 C172.55358,120.339214 172.020245,120.00688 171.08691,119.807479 C169.553574,119.475144 168.020237,119.608078 166.553568,119.541611 C163.886896,119.541611 161.553557,118.744007 159.753554,116.749998 C159.286886,116.218263 158.820219,115.62006 158.886885,114.822456 C158.953552,114.157787 158.620218,113.758985 158.086884,113.293716 C155.686879,111.432641 156.020213,108.906896 158.820219,107.710491 C160.353555,107.045821 162.020225,106.647019 163.420228,105.517081 C164.086896,104.985345 164.953564,105.31768 165.753566,105.31768 C168.553572,105.31768 169.820241,104.187742 169.886908,101.396129 C169.953574,99.6015209 170.953576,97.7404459 169.353573,96.0787717 C169.020239,95.7464369 169.486907,95.414102 169.62024,95.0817672 L171.420244,90.6949474 C172.020245,89.2326741 171.686911,88.1692027 170.353575,87.3051321 C168.553572,86.1087268 168.686905,83.2506471 170.620242,82.2536426 C172.020245,81.522506 171.686911,80.1931668 171.753578,79.0632284 C171.820245,78.1326909 171.353577,77.6009551 170.353575,77.5344881 C169.820241,77.4680212 169.42024,77.2021533 169.286906,76.6704175 C169.153573,76.0057478 169.820241,76.1386817 170.153575,75.9392809 C171.020243,75.4075451 171.220244,74.7428756 170.620242,73.9452719 C170.220242,73.3470692 169.686907,72.8153336 169.22024,72.2835978 C168.553572,71.4859941 168.220238,70.6219236 168.820239,69.6249191 C169.62024,68.3620468 170.086908,66.8997735 171.220244,65.636901 C171.886912,66.1021699 171.686911,66.8333064 171.753578,67.4315091 C171.820245,68.2955797 172.486913,68.4949805 173.153581,68.6943816 C173.886916,68.9602494 174.353583,68.4949807 174.553584,67.896778 C174.953584,66.8997735 175.486919,66.7668396 176.620255,66.8997735 C177.75359,66.9662405 179.086926,66.5009718 179.686927,65.1716324 L179.886928,64.3075618 C180.020261,63.7093591 180.153595,63.1111565 180.286929,62.5794207 C181.353597,62.8452885 181.886932,61.7818171 182.7536,61.5824162 C183.486935,61.4494823 183.620269,62.114152 183.753602,62.6458876 C183.886936,63.5764251 184.22027,64.2410949 185.286939,64.3075618 C186.08694,64.3740288 185.686939,65.0386985 185.68694,65.3710332 C185.486939,67.0991744 185.953607,67.9632449 187.620277,68.0297119 C189.153613,68.0961788 189.42028,68.6943816 188.820279,69.8907869 C188.553612,70.4889897 188.620279,71.2201263 189.153613,71.2201263 C191.353618,71.3530602 192.486953,73.1476683 194.086957,74.4105406 C193.353622,74.9422764 193.153621,75.806347 192.886954,76.6704175 C192.420286,78.1326909 191.620285,79.2626292 189.886948,79.3955631 C188.886946,79.4620301 188.153611,79.4620301 187.75361,78.3985587 C187.634159,77.9804167 187.306341,77.6535812 186.886942,77.5344881 C186.820275,77.4680212 186.753608,77.4680212 186.686942,77.4015542 C186.153607,76.8033514 186.020274,76.0722148 185.820273,75.3410781 C185.68694,74.8093423 185.553606,74.2776067 184.820271,74.4770075 C184.686938,74.4770075 184.486937,74.5434745 184.353604,74.4770075 C183.820269,74.3440736 183.620269,73.8788048 183.486935,73.4135361 C183.286935,72.8818003 184.02027,72.2171308 183.420268,71.8847959 C182.420266,71.419527 181.553598,70.7548575 180.486929,70.4225227 C180.286929,70.3560558 179.820261,70.3560558 179.820261,70.4889897 C179.686927,72.0841969 177.420256,72.4829986 177.620257,74.2111397 C177.686923,75.0087434 177.286923,75.6069461 176.753588,76.1386817 C176.020253,76.9362853 176.353587,77.401554 177.220256,77.733889 C177.420256,77.8003559 177.55359,77.8003559 177.75359,77.8668229 C179.686927,78.5979595 182.086932,78.5979595 182.420266,81.456039 C182.486933,82.0542418 183.220268,82.5195104 183.686935,82.9847793 C185.220272,83.1841802 185.953607,84.4470526 186.820275,85.576991 L186.820275,85.576991 Z" id="形状" fill="#B1C1F2"></path>
                <path d="M135.118949,172.267073 C137.243152,171.206394 137.707821,170.410884 137.110389,168.687281 C136.844864,167.825479 136.380194,167.494016 135.517237,167.958064 C134.986186,168.223233 134.388754,168.422111 133.791322,168.422111 C133.127509,168.422111 132.596458,168.422111 132.596458,167.494016 C132.596458,166.101875 131.866263,165.637828 130.605018,166.035582 C130.20673,166.168167 129.74206,166.300752 129.476535,165.770413 C129.211009,165.240073 129.609297,164.842318 130.073967,164.577148 C131.202449,163.914224 132.397314,163.649054 133.724941,164.245686 C135.251712,164.908611 136.712101,164.974903 138.039728,163.582762 C139.10183,162.522082 140.694982,162.124328 141.690702,160.997356 C141.956228,160.665894 142.420897,160.665894 142.620041,160.997356 C143.217473,161.92545 144.213193,161.660281 145.009769,161.92545 C146.071871,162.323205 146.602922,161.92545 147.465879,161.262526 C149.324557,159.804092 151.183234,158.014196 153.506582,157.550148 C154.43592,157.351271 155.564403,156.887224 156.560124,157.152394 C157.754988,157.417564 158.418801,157.019809 158.750708,156.158007 C159.34814,154.699573 160.80853,155.892837 161.405962,154.964743 C162.932733,157.284979 162.401682,159.273752 160.742148,161.129941 C160.277479,161.660281 160.144716,162.323205 160.609386,162.787252 C161.472343,163.516469 161.605106,161.991743 162.401682,162.19062 C162.468063,163.847931 163.264639,164.245686 164.990554,163.914224 C166.318181,163.649054 166.2518,165.041195 166.052656,165.902998 C165.853512,166.698507 165.189699,167.361432 164.79141,168.024356 C164.127597,169.615375 162.932733,170.941224 162.999114,172.863705 C163.065495,173.791799 161.80425,173.858092 161.074055,174.322139 C160.34386,174.786186 159.414521,175.117648 159.879191,176.377205 C160.078335,176.973837 159.613665,177.04013 159.215377,177.371592 C158.286039,178.167101 157.091174,178.763733 156.360979,179.75812 C155.431641,180.951384 153.506582,180.885092 153.041912,182.608696 C152.311717,182.078356 151.249616,182.078356 150.652184,181.216554 C150.320277,180.818799 150.253896,180.222167 149.722845,179.956998 C148.99265,181.548016 147.532261,181.945771 146.071871,180.951384 C145.806346,180.752507 145.341676,180.421045 145.142532,180.487337 C143.350236,181.415432 142.354516,179.890705 141.026889,179.294073 C139.566499,178.697441 139.500118,177.570469 140.163931,176.310913 C140.960507,174.719894 140.761363,174.322139 139.10183,174.189554 C137.707821,174.056969 136.512957,173.327752 135.052568,173.327752 C134.18961,173.26146 134.787042,172.598535 135.118949,172.267073 Z M227.986451,46.4439976 C230.309798,45.8473655 232.301239,47.1069222 234.292679,47.836139 C234.956493,48.1013088 234.890111,49.5597428 234.425442,49.9574976 C233.230578,50.8855919 233.164196,51.6811014 234.491823,52.8743655 C233.031433,52.808073 232.699527,51.8799787 232.035713,51.349639 C231.571044,50.9518844 231.172756,50.6867144 230.575324,50.8855919 C229.977892,51.0844694 229.977892,51.5485165 229.845129,52.0125636 C228.783027,55.9901108 227.189875,58.0451768 223.738045,57.5148371 C224.534621,58.3103465 225.264816,59.0395636 225.928629,59.835073 C226.526062,60.4979976 226.393299,60.9620446 225.46396,60.9620446 C224.069952,60.9620446 222.675944,60.8294598 221.414698,60.2328276 C220.219834,59.6361955 219.423258,60.1002428 218.958588,61.2272144 C218.427537,62.354186 218.095631,63.6137428 217.232673,64.807007 C217.033529,63.6137429 216.701622,62.5530635 215.307614,62.7519409 C214.766188,62.5872882 214.427261,62.0513735 214.511038,61.4923843 C214.68173,60.029073 214.014604,58.5941086 212.785123,57.780007 C212.378965,57.4211231 212.119085,56.9256534 212.054928,56.3878655 C211.855784,55.3271862 211.789403,54.5316768 210.262632,55.4597711 C209.399674,55.9901108 208.470336,54.5979692 207.275472,54.5979692 C206.611658,54.5979692 205.947845,54.3327995 205.21765,54.5316768 C204.22193,54.863139 203.75726,54.3990919 203.890023,53.2721201 C204.022786,52.0125636 204.288311,50.8192993 203.027065,49.6260352 C201.964964,48.6979409 201.500294,47.9687239 200.239049,49.294573 C199.641617,49.9574976 198.845041,49.4271579 198.513134,48.6979409 C197.982083,47.5046768 197.31827,46.3114125 197.451032,44.9192711 C197.583795,43.7260071 197.185507,42.9304976 196.123405,42.4664504 C195.725117,42.267573 194.994923,42.0024031 195.393211,41.2731863 C195.725117,40.6102617 196.455312,40.4776768 196.986363,40.8754315 C198.513134,42.0686955 199.30971,41.2068936 199.907142,39.8810447 C200.371812,38.6877806 201.433913,38.8203655 202.363252,38.6214882 C203.292591,38.4889033 203.292591,39.4169976 203.558116,40.0136296 C204.75298,42.4001579 205.549557,42.7316201 208.138429,41.9361107 C209.134149,41.6046485 210.196251,41.8035258 211.191971,41.538356 C211.855784,41.3394787 212.054928,42.0686957 212.320454,42.5327428 C212.718742,43.1293749 213.050649,43.3282522 213.780843,42.864205 C214.975707,42.2012804 216.236953,42.0686955 216.900767,43.7260069 C216.967148,43.9248842 216.768004,43.8585917 216.967148,43.8585919 C218.626682,44.2563466 219.954308,44.9192711 220.817266,46.6428749 C221.082791,47.1732146 221.945749,46.4439976 222.01213,45.6484882 C222.01213,45.317026 221.812986,44.8529787 222.410418,44.8529787 C222.742325,44.8529787 222.941469,45.1181485 223.074232,45.3833182 C223.605283,46.9080447 225.132053,47.5046766 226.127774,48.565356 C226.791587,49.294573 227.521782,48.8968182 227.4554,47.836139 C227.189875,47.1732144 227.322638,46.6428749 227.986451,46.4439976 L227.986451,46.4439976 Z" id="形状" fill="#B1C1F2"></path>
                <path d="M165.214999,168.491992 C166.34854,167.34404 167.415402,166.263614 166.815292,164.372869 C166.415219,163.089864 167.948833,162.482124 168.015512,161.199119 C168.015512,160.929013 168.815659,161.469225 169.215732,161.671805 C169.9492,162.009438 170.615989,163.022337 171.482814,162.279545 C172.282961,161.604279 171.549493,160.793959 171.282778,160.118693 C170.615989,158.700635 171.816209,158.363002 172.416319,158.768161 C173.816575,159.78106 175.750263,158.768161 177.083841,160.3888 C177.683951,161.064066 178.484097,159.375901 179.55096,159.646007 C179.484281,160.658906 178.617455,161.131593 178.084024,161.806858 C177.617272,162.414598 177.217198,162.954811 177.75063,163.76513 C178.35074,164.642976 178.817492,164.035236 179.417602,163.832656 C180.551143,163.427497 181.751363,163.089864 182.818225,162.549651 C182.884904,162.549651 182.951583,162.482124 182.951583,162.482124 C184.751913,163.900183 186.218848,162.009438 187.819141,161.874385 C189.352756,161.739332 190.219581,162.482124 190.619654,163.900183 C190.819691,164.710502 191.086407,165.588348 191.953232,165.993508 C192.286627,166.7363 193.153452,166.93888 194.086957,167.816726 C191.286443,168.221885 190.28626,170.51779 188.48593,171.868322 C187.88582,172.341008 186.818958,172.273481 186.485564,172.543588 C185.085307,173.421434 183.751729,172.813694 182.418152,172.948748 C181.818042,173.016274 181.084574,173.759067 180.217748,173.759067 C179.951033,173.759067 179.48428,173.961647 179.684317,174.366806 C180.15107,175.244652 179.750996,175.649811 178.884171,175.717338 C178.084024,175.784865 177.283877,175.919918 176.883804,174.907019 C176.883804,174.839492 176.817125,174.771966 176.817125,174.771966 C176.217015,174.0967 176.217015,172.408535 175.016795,172.948748 C174.016612,173.353907 174.816759,174.704439 174.816758,175.649812 L174.816758,176.595184 C174.816758,177.000344 174.950116,177.47303 174.483364,177.810663 C173.883254,178.215822 173.616539,177.608083 173.216465,177.337977 L172.616355,176.932817 C171.949566,178.823562 170.415952,179.566354 168.548943,180.039041 C167.282044,180.309147 165.881788,179.971514 164.681568,181.254519 C163.748064,182.267418 162.081091,182.807631 160.614156,183.212791 C160.080725,183.347844 159.280578,182.740105 159.013863,183.753004 C158.747147,184.833429 157.213533,185.981382 159.213899,186.926754 C159.814009,187.264387 160.280761,188.007179 159.480615,188.547392 C158.880505,188.952552 158.147037,189.087605 157.546927,188.277286 C156.994624,187.52697 156.649419,186.641332 156.546744,185.711275 C156.480065,184.360743 156.546744,183.010211 156.746781,181.659679 C156.813459,180.984413 157.413569,180.511727 158.013679,180.039041 C159.14722,179.161195 161.480981,179.026142 160.747514,176.527657 C160.480798,175.649812 161.480981,175.447232 162.014413,175.177125 C163.214632,174.569386 164.014779,173.89412 164.081458,172.273482 C163.9481,170.855423 164.748247,169.707471 165.214999,168.491992 L165.214999,168.491992 Z" id="路径" fill="#B1C1F2"></path>
                <path d="M195.420827,142.454864 C194.560082,143.122581 193.83176,143.656755 192.573748,143.256124 C191.448158,142.922266 190.057724,144.858646 190.454991,146.461167 C190.719836,147.729829 190.190147,148.330775 189.395613,148.998492 C188.534868,149.732981 187.872756,150.46747 188.998346,151.535817 C189.26319,151.802904 189.395613,152.337078 189.064557,152.537393 C187.674123,153.472197 187.938967,155.341805 186.747167,156.343381 C186.614745,156.476924 186.416111,156.677239 186.416111,156.810782 C186.747167,158.947477 184.297354,160.683542 185.621577,163.087324 C182.840709,160.883857 180.920586,164.355986 178.404562,163.755041 C178.669407,162.753465 179.596363,162.219291 180.059841,161.418031 C180.324685,160.950629 180.721952,160.416455 180.324685,159.949053 C179.861207,159.348108 179.265307,159.548423 178.669407,159.81551 C178.205928,160.082597 177.808662,160.61677 177.278973,159.949053 C176.881706,159.414879 176.683072,158.947477 177.014128,158.27976 C177.874873,156.410152 177.411395,154.607316 176.219594,153.071566 C175.623694,152.203534 175.756116,151.201959 175.42506,150.267155 C175.094005,149.332351 176.153383,147.930144 174.365682,147.462743 C174.034626,147.329199 174.564315,146.394395 174.895371,146.060536 C177.212761,143.990613 176.484439,141.787147 175.42506,139.383365 C174.82916,138.047931 176.219594,137.380214 176.947917,137.380214 C179.132885,137.380214 180.523319,135.710921 182.509653,135.31029 C183.900087,135.043204 185.621577,135.31029 186.614745,133.908084 C187.210645,134.442258 186.680956,135.443834 187.475489,135.577377 C188.203812,135.644149 188.799712,135.109975 189.064557,134.575802 C189.859091,132.97328 190.719836,133.440682 191.646792,134.308715 L193.434493,134.709345 C194.096604,134.90966 194.626293,135.043203 194.361449,136.044779 C194.030393,137.113127 194.824927,137.914387 195.420827,138.648876 C196.811261,139.917539 196.413994,141.186201 195.420827,142.454864 L195.420827,142.454864 Z M193.566915,104.595302 C192.70617,105.530106 192.176481,106.999083 190.454991,105.863964 C189.991513,105.596877 189.594246,106.064279 189.130768,106.264595 C187.210645,107.26617 186.482322,107.065855 185.422944,105.196247 C185.091888,104.662073 184.562199,104.595302 184.03251,104.461758 C183.237976,104.194671 183.370398,104.995932 183.171765,105.329791 C182.178598,107.466485 180.126052,107.800344 178.470773,106.064279 C178.338351,105.863964 178.27214,105.530106 178.073506,105.463334 C175.822327,104.394987 177.345184,103.794041 178.404562,103.259867 C179.397729,102.792465 179.530152,102.124748 179.132885,101.189944 C178.934251,100.722542 178.735618,100.321912 178.603195,99.85451 C178.139717,98.0516737 177.742451,96.4491525 179.199096,94.7130879 C181.384064,92.108991 183.105554,89.2378074 186.217478,87.5685145 C186.680956,87.3014277 187.144434,86.967569 187.740334,87.1011124 C187.872756,87.7020579 187.674123,88.3697749 188.203812,88.7704053 C188.865923,88.3030032 188.733501,87.1678841 189.859091,87.0343407 C191.779214,86.8340256 192.375114,87.1011124 192.375114,89.2378072 C192.375114,91.7751323 192.573748,91.9754474 195.420827,91.9086757 C196.347783,91.9086757 196.74505,91.7083606 196.811261,90.5732415 C196.943683,88.7036336 199.592129,86.967569 201.37983,87.4349709 C203.63101,87.9691447 205.9484,87.7020577 208.26579,88.0359164 C208.199579,88.5700902 208.067156,89.1042638 208.000945,89.7052093 C207.934734,90.0390678 207.868523,90.5064699 207.537467,90.3061548 C205.815978,89.4381225 205.286288,91.1074153 204.22691,91.841904 C203.829643,92.1089908 203.432376,92.3760778 203.035109,92.7099363 C202.306786,93.3776535 201.048775,93.5111969 200.982564,94.9801747 C200.982564,95.1804898 200.386663,96.5826959 199.194863,96.3156089 C198.400329,96.1152938 198.46654,96.9165544 198.532751,97.4507282 C198.598962,98.1184454 198.863807,98.919706 198.201695,99.3203362 C196.943684,100.188368 195.884305,101.123172 195.818094,102.859237 C195.818094,103.259867 195.222194,103.126324 194.891138,103.259867 C194.42766,103.460182 193.765549,103.727269 193.566915,104.595302 L193.566915,104.595302 Z M215.416594,63.1968385 C217.071873,63.7310123 217.535351,65.1999899 216.475972,66.4686524 C214.953116,68.2714887 213.099204,69.7404665 212.503303,72.21102 C212.30467,73.0790523 211.443925,73.4129108 210.649391,73.4129108 C209.192746,73.4129108 208.133368,74.2141714 207.272623,75.2157471 C206.014611,76.7514966 204.293121,77.8866156 203.498587,79.8229955 C203.167532,80.6910278 202.240576,80.6910278 200.982564,80.4907125 C202.108153,79.7562236 202.902687,79.1552781 203.366165,78.1537026 C203.829643,77.2188986 204.094488,76.8182683 202.637842,76.8182683 C201.181197,76.8182683 201.975731,75.7499209 202.240575,75.2825188 C202.770265,74.3477148 203.366165,73.4796825 203.366165,72.2777917 C203.366165,70.7420422 203.035109,69.139521 201.644675,68.8056625 C200.519086,68.5385757 198.930018,69.2062927 198.069273,70.4081837 C197.407162,71.276216 197.009895,72.3445634 196.413994,73.2125957 C195.619461,74.5480301 194.030393,74.6148018 193.235859,73.2793674 C192.810843,72.3884682 191.959421,71.782376 190.98468,71.6768462 C189.130768,71.4765311 189.594246,70.4749554 189.991513,69.406608 C190.190146,68.8724342 190.587413,68.3382606 190.918469,67.8708585 C191.448158,66.8692828 191.381947,65.8677071 191.050891,64.8661314 C190.918469,64.3987293 190.852258,63.8645557 191.315736,63.530697 C191.779214,63.2636102 192.11027,63.5974687 192.441325,63.9313274 C193.30207,64.9329031 194.030393,64.3987295 194.692505,63.7310121 C195.619461,62.8629799 196.281572,61.7278608 197.34095,60.9933719 C198.135484,60.3924264 198.665174,59.2573073 200.055608,59.7914811 C200.519086,59.9917962 200.651508,59.324079 200.850141,58.9902205 C201.247408,57.9218731 201.777097,57.3209276 203.167532,57.6547861 C204.756599,57.9886446 205.9484,56.9870689 206.080822,55.2510045 C206.147033,54.1826571 206.478089,54.0491137 207.272623,54.5165156 C208.133368,54.9839177 209.258957,54.4497439 209.98728,55.5180913 C210.318335,56.0522651 210.781813,55.5180913 211.17908,55.1842328 C212.039825,54.3162005 212.370881,54.9839177 212.370881,55.7851781 C212.370881,56.7199821 212.834359,57.454471 213.496471,57.9886448 C214.688271,58.8566771 215.085538,60.0585679 214.886905,61.460774 C214.953116,61.9949478 215.151749,62.5958931 215.416594,63.1968385 L215.416594,63.1968385 Z" id="形状" fill="#B1C1F2"></path>
                <path d="M191.609074,133.920484 C189.76603,131.116005 188.647039,133.45307 187.396401,134.922083 C187.133109,133.586617 188.120455,133.052431 188.120455,131.984058 C187.001463,132.651791 185.948295,133.319524 184.895127,133.920484 C184.30272,132.651791 183.841959,131.449872 183.249552,130.247953 C182.854614,129.3799 182.393853,128.645394 183.117906,127.577021 C183.64449,126.775742 182.788791,126.508648 182.130561,126.308329 C181.538154,126.108009 180.682455,126.041236 180.616632,125.239956 C180.550809,124.50545 180.814101,123.70417 181.735623,123.370304 C182.788791,122.969664 182.262207,122.034838 182.32803,121.300332 C182.393853,120.365506 181.801446,119.497453 181.143216,119.497453 C179.03688,119.564226 178.576118,117.894894 177.391304,116.492655 C178.773588,116.626201 179.03688,115.958469 178.905233,115.023643 C178.83941,114.623003 178.83941,114.088817 179.300172,113.95527 C181.143216,113.421084 180.419163,112.152391 180.024225,110.950472 C180.814101,110.750152 181.143216,111.284338 181.538154,111.684978 C181.933092,112.085618 182.32803,113.153991 183.052083,112.352711 C183.710313,111.618205 184.697658,110.750152 183.973605,109.48146 C183.64449,108.8805 182.98626,108.413087 183.052083,107.478261 C184.236897,109.882099 186.474879,110.483059 188.712862,111.150792 C189.634384,111.417885 190.095145,111.952071 190.490083,112.820124 C192.267304,116.826521 192.530596,116.960068 196.414154,115.157189 C196.348331,116.092015 196.414154,116.960068 195.163516,116.893295 C194.636932,116.893295 194.37364,117.093615 194.307817,117.627801 C194.307817,117.828121 194.241994,117.961667 194.176171,118.161987 C192.991357,121.433878 192.991357,121.433878 195.821746,123.570624 C196.019215,124.371903 196.677446,124.772543 197.269853,124.30513 C198.191375,123.637397 198.52049,124.238357 199.047074,124.772543 C199.639481,125.440276 199.376189,125.974462 198.915428,126.508648 C198.586313,126.842515 198.323021,127.243155 198.586313,127.777341 C199.639481,129.98086 198.191375,129.246353 197.138206,128.97926 C196.874915,128.912487 196.545799,128.77894 196.085038,128.645394 C196.479976,129.780539 197.401499,130.581819 196.874915,131.716965 C196.479977,132.718564 195.624277,133.319524 194.834401,133.987257 C193.71541,134.788536 192.662242,133.45307 191.609074,133.920484 L191.609074,133.920484 Z M191.872366,166.238756 C191.543251,165.637796 191.08249,165.170383 190.885021,164.50265 C190.292614,162.499452 189.173623,161.497852 187.067286,161.764945 C186.540702,161.831719 185.816649,161.965265 185.487534,161.230759 C185.158419,160.496253 185.61918,160.095613 186.079941,159.694973 C186.27741,159.494654 186.409056,159.160787 186.409056,158.893694 C186.409056,156.556629 187.857163,154.887296 189.041977,153.084418 C189.371092,152.550231 189.502738,152.016045 189.1078,151.615405 C188.054632,150.547033 188.647038,149.946073 189.502738,149.27834 C190.555906,148.477061 191.345782,147.609008 190.555906,146.073222 C190.095145,145.205169 191.345782,143.736157 192.201481,144.070024 C193.71541,144.670983 194.439463,143.869704 195.163516,142.801331 C196.150861,142.868104 195.624277,140.998452 196.743269,141.465865 C197.730614,141.866505 197.598968,142.934878 197.796437,143.802931 C198.191375,145.872902 199.573658,146.473862 201.285056,145.205169 C201.745817,144.871303 201.943286,144.737756 202.404047,145.205169 C202.864808,145.739356 203.523038,146.006449 204.312914,146.006449 C205.30026,146.073222 205.95849,146.607409 205.30026,147.742554 C204.707852,148.744154 204.115445,149.8793 202.667339,149.411887 C202.535693,150.012846 202.864808,150.213166 203.1281,150.413486 C204.44456,151.214766 204.773675,152.016045 203.193923,152.884098 C202.667339,153.151191 202.864808,153.618604 202.930631,154.15279 C202.996454,154.95407 203.523038,155.955669 202.074932,156.289536 C200.890118,156.556629 201.943286,158.292734 201.614171,158.225961 C200.231888,158.092414 200.429357,158.760147 200.561003,159.694973 C200.692649,160.896893 200.231888,161.764945 198.981251,162.232358 C197.730614,162.632998 196.677446,163.300731 196.150861,164.769743 C195.887569,165.50425 195.821746,167.640995 194.044525,165.904889 C193.847056,165.704569 193.583764,165.771343 193.517941,166.105209 C193.123003,167.974861 192.39895,166.171982 191.872366,166.238756 L191.872366,166.238756 Z" id="形状" fill="#B1C1F2"></path>
                <path d="M196.769254,122.935816 C196.769254,122.606393 196.434006,122.474624 196.232858,122.27697 C195.562362,121.749894 194.087272,121.354586 194.42252,120.563972 C194.891867,119.443934 194.891867,117.862704 196.702205,117.401512 C197.842047,117.137974 198.177295,115.688514 197.842047,114.897899 C197.3727,113.843746 196.434006,114.634361 195.696461,115.029668 C193.953173,116.017937 192.813331,115.688514 192.209885,113.777861 C191.606439,111.801325 190.399547,110.549518 188.321012,110.220095 C186.443624,109.890672 185.169683,108.770634 184.09689,107.321174 C183.761643,106.859982 183.493444,106.39879 183.761642,105.871714 C183.828692,105.739945 184.029841,105.542291 184.16394,105.542291 C184.834435,105.608176 184.566237,106.267021 184.834435,106.662329 C185.773129,108.111789 187.248219,107.914135 188.58921,107.452943 C189.729052,107.057636 190.734795,106.267021 191.874637,107.518828 C192.276935,107.98002 192.612182,107.518828 192.880381,107.123521 C193.282678,106.530559 193.617926,105.871714 193.953173,105.278753 C194.690718,104.422253 195.025966,103.763408 196.232858,105.146983 C197.104502,106.135252 198.512542,107.387059 200.32288,107.189405 C200.725177,107.123521 201.127474,107.25529 201.261573,107.650597 C202.468465,110.28598 204.882249,112.394285 205.016348,115.556745 C205.016348,116.21559 205.418645,116.347359 205.955042,116.610898 C207.899478,117.533282 210.313262,117.928589 210.782609,120.629856 C210.313262,121.156933 209.910965,120.563972 209.508667,120.432203 C208.234726,120.10278 207.564231,120.300433 207.161933,121.815778 C206.357339,125.044122 206.357339,125.637083 202.468465,124.978237 C201.395673,124.780584 200.32288,124.846468 199.652385,123.726431 C199.384186,123.265239 198.713691,122.935816 198.043195,123.462892 C197.43975,123.792315 197.104502,123.462892 196.769254,122.935816 L196.769254,122.935816 Z" id="路径" fill="#B1C1F2"></path>
                <path d="M202.371621,128.006888 C204.301299,128.407287 205.49903,129.675219 207.362166,128.207088 C208.493357,127.206089 210.156872,128.340554 211.288062,129.341553 L211.421143,129.475019 C209.757628,130.94315 212.485793,131.477016 212.086549,132.744948 C211.687306,132.811681 211.288062,132.811681 210.888818,132.878414 C210.423034,132.878414 209.95725,132.945148 209.890709,133.41228 C209.757628,133.81268 210.023791,134.146346 210.423034,134.279813 C211.354603,134.546746 210.955359,135.147345 210.822278,135.747944 C210.689197,136.28181 210.156872,136.748942 210.955359,137.349542 C211.620765,137.883408 210.822278,138.283807 210.489575,138.617473 C210.223412,138.817673 209.890709,139.885405 209.424925,138.684207 C209.225303,138.150341 208.8926,138.75094 208.692979,139.017873 C207.628329,140.486004 207.295626,142.154335 206.962923,143.889399 C206.896382,144.223066 206.829842,144.890398 206.69676,144.823665 C205.56557,143.755933 203.835515,145.023865 202.970487,143.956133 C202.171999,142.955134 201.839297,142.754934 201.040809,143.889399 C200.242322,144.957131 198.778429,144.823665 198.711888,143.622466 C198.512266,141.01987 196.582589,139.485005 195.517939,137.416275 C194.320209,135.280811 194.320209,134.746945 196.116805,132.945148 C197.114914,132.010882 198.113023,131.076617 197.647239,129.475019 C197.447617,128.807687 197.913401,129.07462 198.246104,129.007886 C199.377294,128.941153 200.242322,128.67422 199.576916,127.139356 C198.97805,125.804691 200.175781,124.536759 201.772756,124.870425 C203.170109,125.137358 204.500921,125.337558 205.831733,124.603492 C206.430598,124.269826 207.096004,124.603492 207.428707,125.137358 C207.827951,125.804691 207.029463,126.071624 206.763301,126.40529 C205.56557,127.473022 203.968596,127.272822 202.371621,128.006888 L202.371621,128.006888 Z M211.886927,174.186291 C210.622656,172.784893 209.491466,171.316762 207.827951,170.382497 C207.76141,170.315763 207.628329,170.182297 207.628329,170.115564 C208.293735,167.713167 206.962923,165.11057 208.227194,162.708174 C209.424925,160.439243 210.423034,157.970114 212.485793,156.168316 C213.151199,155.567717 213.750064,155.701183 214.41547,155.968116 C215.280498,156.301782 214.881255,156.902382 214.748173,157.436248 C214.548552,158.770913 214.814714,160.105577 214.814714,161.506975 C214.681633,165.911369 211.953468,169.648431 211.886927,174.186291 Z M150.137249,195.741129 C149.937627,194.072798 151.468061,193.739131 152.333088,192.938333 C152.732332,192.604666 153.59736,192.6714 152.998494,191.670401 C152.53271,191.003068 153.331197,191.136535 153.663901,190.936335 C155.527037,189.935337 157.656337,190.202269 159.652555,189.868603 C160.118339,189.80187 161.049907,188.467205 161.648773,189.868603 C162.181098,191.069802 161.648773,191.803867 160.850286,192.537933 C160.384501,193.005066 159.985258,193.538932 159.985258,194.272997 C159.985258,195.007063 160.451042,195.874595 159.652555,196.475194 C158.255202,197.609659 157.057471,199.211257 154.928172,199.277991 C152.53271,199.544923 150.137249,197.743126 150.137249,195.741129 L150.137249,195.741129 Z M186.335336,77.4898234 C186.668039,78.490822 187.599608,79.625287 185.66993,80.0924198 C185.470308,80.1591531 185.270687,80.6262858 185.270687,80.8932188 C185.536849,82.8284827 184.339118,82.8284827 183.008306,82.6282831 C181.810575,82.4948166 181.411332,81.6272844 181.21171,80.6262856 C180.745925,77.8234895 181.744035,75.7547589 184.072956,74.2198944 C185.071065,73.7527617 185.137605,74.6202938 185.337227,75.2208931 C185.603389,76.021692 185.803011,76.8224909 186.335336,77.4898234 L186.335336,77.4898234 Z M114.737648,116.395304 C112.74143,115.928171 112.209105,116.462037 112.807971,117.930168 C113.140674,118.7977 112.67489,118.9979 111.942943,118.9979 C111.210996,118.9979 110.212887,118.730967 110.345968,120.199098 C109.747103,118.931167 108.150128,118.931167 107.617804,117.729968 C107.551263,117.596502 107.21856,117.529769 107.152019,117.596502 C105.754667,118.864434 105.488504,117.329569 105.02272,116.662237 C104.024611,115.127372 102.294556,114.05964 102.294556,111.924176 C102.294556,111.523777 101.961853,111.123377 101.429528,111.323577 C100.697581,111.59051 100.032175,111.190111 99.3002284,111.056644 C97.4370916,110.722978 96.5055232,111.59051 96.9047669,113.392308 C97.2374698,115.060639 96.9713075,116.395304 95.9066579,117.729968 C95.4408736,118.330568 94.9085489,119.131367 95.1747112,120.065632 C95.5074142,121.200097 94.2431428,121.733963 94.1100614,122.734962 C94.1100614,123.068628 93.3115742,123.135361 92.9788713,122.534762 C92.2469246,121.06663 91.4484374,121.46703 90.7164909,122.534762 C90.383788,123.001895 90.3172474,123.802693 89.5187599,123.53576 C88.7202727,123.335561 88.0548666,123.068628 87.7221637,122.067629 C87.1898388,120.199098 85.3932425,119.131367 84.3951335,117.529769 C84.1289712,117.062636 83.5301057,117.129369 83.0643216,117.262836 C80.7354005,118.197101 78.4730201,117.529769 76.3437207,116.662237 C74.6136651,115.994904 72.6839876,115.661238 71.0870131,114.526773 C70.6877696,114.25984 70.2219853,113.992907 70.0223635,113.659241 C69.1573357,112.257842 68.2923079,111.056644 66.4957116,112.391309 C66.3626305,112.458042 66.1630087,112.458042 65.9633867,112.458042 C64.4994934,112.191109 62.1040319,107.853449 62.7028974,106.518784 C63.5013846,104.783719 64.1002501,103.048655 62.8359786,101.246858 C62.6363568,100.979925 62.6363568,100.245859 62.8359786,100.045659 C64.0337093,99.1113939 63.767547,97.8434622 63.9006281,96.6422639 C64.0337093,95.5745321 64.8321966,95.9749315 65.431062,96.1083979 C66.4957116,96.3753308 67.4938206,96.7757304 68.4919297,96.9759301 C70.0889041,97.242863 70.6212288,96.6422639 70.1554447,95.0406661 C69.8892824,94.1731339 69.6896604,93.5058015 70.3550665,92.7050025 C71.6858786,91.1701379 71.6193378,89.9022064 70.1554447,88.3673418 C69.2238763,87.4330764 68.2257673,86.6990107 68.4919297,85.0306796 C68.6250108,83.8962146 69.0907951,83.3623486 70.0889041,83.2956153 C73.0832312,83.0954156 76.0110178,82.7617493 78.805723,81.8274841 C80.801941,81.1601517 82.7316185,81.2268849 84.7278367,81.4270846 C87.4560013,81.6940175 89.7183819,82.895216 91.7811405,84.563547 C92.5130871,85.1641463 93.1784932,85.898212 93.9769803,86.4320778 C94.5758457,86.8992106 95.374333,87.29961 96.1062796,86.8324774 C96.8382263,86.3653446 97.1709292,85.5645458 96.9713075,84.6302803 C96.9047669,84.2298809 96.6386045,83.8294813 97.0378481,83.4958152 C97.5036324,83.2288823 97.9028759,83.5625484 98.1690382,83.8294813 C99.6994721,84.9639464 101.296447,85.4978124 103.093043,84.6302803 C103.758449,84.2966141 104.224233,84.7637467 104.690017,85.1641463 C105.688126,85.9649452 106.686235,86.8992106 107.617804,87.7667427 C108.34975,88.4340752 108.948616,89.4350738 110.146347,88.3006086 C110.612131,87.8334758 110.944834,88.5008082 111.277537,88.8344746 C112.408727,89.9022064 113.539917,90.9699382 114.538026,92.1044035 C115.136892,92.771736 115.669217,93.0386689 116.534244,92.7050025 C116.866947,92.5715361 117.199651,92.3713364 117.399272,92.9052022 C118.19776,94.773733 119.728193,96.3753308 119.728193,98.5775279 C119.728193,99.1781272 119.994356,99.9121929 120.327059,100.446059 C120.859384,101.313591 120.925924,102.314589 120.260518,102.915189 C118.863165,104.18312 119.062787,106.785717 116.467704,107.119383 C116.00192,107.186116 113.80608,108.253848 115.802298,109.655246 C116.201541,109.922179 116.00192,110.255845 115.735757,110.589512 C115.469595,110.856444 115.203432,110.989911 114.804189,110.989911 C113.87262,110.989911 112.74143,110.122379 112.209105,111.390311 C111.543699,112.858442 112.408727,114.660239 113.87262,115.594505 C114.072242,115.594505 114.138783,115.794704 114.737648,116.395304 Z" id="形状" fill="#B1C1F2"></path>
                <path d="M114.279531,117.456781 C115.275144,117.657755 115.938885,117.992711 116.33713,116.987842 C116.602627,116.31793 117.399117,116.585895 118.129232,116.652886 C119.987709,116.987842 120.253205,116.652886 119.85496,114.844123 C119.52309,113.370315 120.518702,112.56642 121.44794,111.829517 C121.978934,111.42757 122.178056,111.762526 122.310804,112.298456 C122.709049,114.375184 124.302029,114.71014 126.027757,114.844123 C126.757873,114.911114 127.222492,114.911114 127.554363,115.915982 C127.952608,117.121825 129.479213,117.791737 129.080968,119.600501 C128.881846,120.538378 132.93067,121.409264 133.727159,120.471387 C134.457275,119.600501 134.988268,119.53351 135.784758,120.404395 C136.846745,121.610238 138.107854,120.940325 139.302589,120.538378 C139.63446,120.471387 139.96633,119.935457 140.231827,120.404395 C140.961943,121.543246 141.55931,122.682098 143.218664,122.012185 C144.413399,123.753957 146.271875,123.084045 147.997603,123.35201 C146.736494,124.892809 146.802869,126.902546 145.608134,128.443344 C143.882406,130.654055 141.758433,132.395827 140.099079,134.673529 C139.568085,135.477424 138.638847,135.008486 137.908731,134.941494 C136.713997,134.807512 135.320139,134.204591 134.590023,135.477424 C133.793534,136.750258 134.390901,138.224065 134.988269,139.496899 C135.452888,140.63575 136.647623,141.17168 137.24499,142.109557 C137.112242,142.511504 136.979493,142.511504 136.780371,142.511504 C135.585636,142.24354 134.523649,142.645487 134.191779,143.650355 C133.926282,144.521242 135.121017,145.057172 135.851133,145.593101 C136.050255,145.794075 136.4485,145.794075 136.713997,145.928057 C137.908731,146.530979 137.908731,147.1339 136.780371,147.870804 C135.386513,148.808681 133.992656,148.406734 133.328915,146.798944 C132.665173,145.325136 131.470438,146.06204 130.740322,146.530979 C129.479213,147.334874 129.280091,146.731952 129.280091,145.660093 C129.280091,145.057171 129.147343,144.588233 128.94822,144.052303 C128.284479,142.444513 127.288866,142.243539 126.094131,143.449382 C124.965771,144.588233 124.965771,144.588233 123.571913,144.186285 C123.704661,145.459119 124.833022,146.59797 123.83741,147.803812 C123.638288,148.071777 123.505539,148.406734 123.306417,148.540716 C120.916947,149.679567 120.518702,151.421339 121.580689,153.766032 C121.912559,154.569927 121.315192,155.641787 120.452328,155.373822 C118.527477,154.904883 117.664613,156.110726 116.469878,157.517542 C116.403504,156.177717 115.142395,155.641787 115.009647,155.172849 C114.611402,153.900015 113.881286,152.761164 113.483041,151.48833 C112.952048,149.947532 111.956436,148.540716 111.890061,146.798944 C111.823687,146.129031 111.425442,145.660093 110.628953,146.196023 C109.434218,146.932926 108.83685,146.396996 108.571354,145.191154 C108.504979,144.789207 108.372231,144.320268 108.305857,143.91832 C108.106735,143.181417 107.973986,142.444513 106.978374,142.444513 C105.916387,142.444513 106.181884,143.248408 105.982761,143.851329 C105.783639,144.387259 105.385394,144.856198 105.053523,145.392128 C102.796802,142.913452 103.792414,140.233802 103.925163,137.487161 C104.057911,135.209459 103.991537,132.52981 102.863176,130.252108 C102.608278,129.703517 102.451007,129.113938 102.398557,128.510335 C102.265809,126.835555 101.801189,125.361747 100.739203,124.021923 C99.6108423,122.548115 99.2789713,120.538378 97.4204949,119.667492 C96.8231275,119.399527 97.0222501,118.863597 97.4204949,118.46165 C98.8143523,117.255807 99.0134748,115.848991 98.5488558,114.107219 C98.0842366,112.298456 98.6152299,111.762526 100.340958,112.097482 C101.80119,112.365447 102.92955,112.566421 103.327795,114.643149 C103.659666,116.31793 105.584516,117.590763 106.712877,119.198553 C107.044748,119.734483 108.438605,118.930588 109.235095,119.801474 C109.500592,120.136431 110.031585,120.270413 110.363456,120.672361 C111.027197,121.543247 111.757313,122.548115 112.354681,120.538378 C112.421055,120.404396 112.752926,120.203422 112.885674,120.203422 C115.009647,120.538378 114.943273,119.265544 114.279531,117.456781 L114.279531,117.456781 Z M171.029436,162.139937 C169.96745,162.072946 169.370082,161.269051 168.573592,160.934095 C167.777102,160.599139 167.246109,160.532148 167.113361,161.73799 C166.980613,162.876841 165.387633,163.948701 164.192898,163.814718 C163.661905,163.747727 163.462782,163.479762 163.462782,162.943832 C163.462782,162.675867 163.396408,162.139937 163.26366,162.139937 C160.87419,161.604007 162.46717,160.532148 162.865415,159.59427 C163.396408,158.52241 162.998163,155.708779 162.201673,154.904884 C161.869803,154.569927 161.471558,154.234971 161.006938,154.70391 C160.144074,155.507805 158.285598,155.038866 158.020101,156.780638 C156.758992,156.445682 155.497883,157.785507 154.435897,157.115594 C153.241162,156.378691 152.975665,155.038866 153.37391,153.565059 C154.037652,151.354348 153.772155,151.019392 151.847305,150.684436 C151.648182,150.684436 151.515434,150.684436 151.44906,150.483462 C151.382685,150.148506 151.515434,149.813549 151.78093,149.679567 C153.307536,149.076646 152.643795,147.803812 152.842917,146.731952 C153.440284,143.91832 151.581808,141.104688 153.108414,138.425039 C153.904903,137.018223 154.568645,135.678398 156.626244,136.214328 C157.422734,136.415301 158.683843,136.616275 158.285598,134.874503 C158.020101,133.735652 159.082088,133.869635 159.613081,134.070608 C161.604306,134.740521 163.728279,135.343442 165.454007,136.415302 C166.78149,137.219197 167.57798,137.152205 168.507218,136.013354 C168.706341,135.745389 169.038212,135.544415 169.502831,135.075477 C169.370082,137.085214 170.100198,137.42017 171.361307,136.34831 C172.423293,135.477424 172.755164,136.013354 172.755164,137.085214 C172.755164,138.157074 173.087035,138.893977 174.082647,139.429907 C175.410131,140.166811 175.808376,142.913452 174.879137,144.186285 C174.215396,145.191154 173.087035,145.928057 173.219783,147.334874 C173.286158,147.803812 172.68879,148.875672 174.082647,148.540716 C174.746389,148.406733 174.480892,149.143637 174.480892,149.478593 C174.613641,151.019392 174.746389,152.426208 175.609253,153.833024 C176.073872,154.569927 176.405743,155.842761 176.339369,156.84763 C176.272995,158.857367 175.011886,159.728253 173.48528,158.991349 C172.423294,158.455419 171.494055,158.187454 170.498443,159.125332 C169.436456,160.1302 170.697565,160.733121 170.830314,161.537016 C171.09581,161.670999 171.029436,161.871972 171.029436,162.139937 L171.029436,162.139937 Z" id="形状" fill="#C0CFFA"></path>
                <path d="M153.962913,120.110615 C151.42145,120.977424 151.42145,120.977424 152.138273,123.64453 C152.268605,124.177951 152.529268,124.77805 151.877611,125.111438 C151.356285,125.378148 150.834959,125.111438 150.443965,124.644695 C149.205816,123.111109 147.576673,122.777721 145.752033,122.977754 C144.709382,123.044431 143.731896,123.044431 143.145405,121.844234 C143.015073,121.577523 142.819576,121.11078 142.558913,121.37749 C141.190433,122.51101 140.864604,121.244135 140.343279,120.377326 C139.887118,119.443839 139.300627,119.843904 138.714136,120.177293 C137.73665,120.644036 136.759164,121.244135 135.716513,120.310648 C134.673861,119.377161 134.673861,118.043608 134.608696,116.776733 C134.608696,115.909924 135.390684,115.709891 136.172673,115.643213 C138.323141,115.44318 138.714136,114.843081 137.801816,112.776074 C137.345656,111.77591 136.889496,110.842423 137.541153,109.708903 C138.64897,107.641896 138.909633,107.508541 141.060101,108.442028 C141.646593,108.708738 142.167919,108.908771 142.75441,108.708739 C143.21057,108.575383 143.797062,108.241995 143.340902,107.708574 C141.84209,105.974955 143.927393,105.908277 144.318387,105.908277 C146.990182,106.174988 147.185679,104.508047 147.055347,102.507718 C146.990182,101.707586 147.902502,101.240843 147.576673,100.507389 C147.185679,99.6405792 146.599188,98.9738028 145.621702,98.8404475 C144.188056,98.6404146 143.145404,97.6402501 142.102753,96.8401184 C140.408444,95.5732433 141.907256,93.9729799 141.646593,92.3060388 C142.75441,92.7061046 143.66673,93.1061705 144.513884,93.372881 C146.468856,93.9063022 147.446342,93.2395258 147.707005,91.172519 C148.032833,88.0386698 149.075485,85.5049196 152.33377,84.6381101 C152.789931,82.971169 153.832582,83.0378467 155.201062,83.4379126 C155.657222,83.5712679 155.722388,81.7709716 156.504376,82.7044585 C157.156034,83.4379126 155.917885,83.8379784 155.592056,84.4380772 C155.461725,84.7047877 155.331394,84.9714984 155.461725,85.3048865 C155.917885,86.3717287 155.526891,87.1718605 154.810068,87.9719922 C154.028079,88.9054791 153.897748,89.8389661 154.679736,90.9724859 C155.526891,92.1726834 156.113382,93.372881 154.614571,94.7731116 C153.637085,95.7065985 153.897748,97.4402172 154.353908,98.6404146 C155.461725,101.707586 154.679736,104.641402 154.028079,107.575218 C153.767416,108.642061 154.288742,109.442192 154.614571,110.375679 C155.266228,112.442686 156.113382,114.30966 157.351531,116.043279 C157.807691,116.710055 157.547028,117.510187 156.439211,117.310154 C155.135896,117.110121 153.832582,117.510187 152.529268,117.110121 C152.073107,116.976766 151.682113,116.976766 151.42145,117.443509 C151.160788,117.976931 151.486616,118.376996 151.877611,118.710385 C152.724765,119.043773 153.506753,119.310483 153.962913,120.110615 L153.962913,120.110615 Z" id="路径" fill="#B1C1F2"></path>
                <path d="M174.246195,137.811858 C173.712101,134.279193 173.24477,133.945923 171.108396,135.478966 C170.374017,133.41269 170.374017,133.41269 168.771736,134.879079 C167.970596,135.612274 167.369741,135.87889 166.168031,135.279004 C164.298703,134.212539 162.162329,133.545998 160.092717,132.946112 C159.158053,132.679495 157.555772,132.279571 158.023104,134.412501 C158.156628,135.012388 157.756058,135.279004 157.155202,135.21235 C154.551496,135.012388 153.883879,135.412312 152.882454,137.811858 C152.748931,138.078474 152.615407,138.34509 152.415122,138.811669 C151.213412,136.945355 149.611131,135.612274 149.077037,133.346036 C148.743229,131.746339 149.277323,131.413068 150.479033,131.413068 C152.148075,131.413068 153.550071,130.879836 154.952066,130.079987 C157.155202,128.81356 157.221964,126.147398 155.018828,124.880971 C153.416547,123.947814 153.950641,122.281462 153.416547,121.015035 C153.216262,120.548457 154.017403,120.415149 154.551496,120.415149 C155.152352,120.415149 155.686445,120.215187 155.819968,119.6153 C155.953492,119.015414 155.419398,118.748797 155.152351,118.415527 C154.685019,117.882295 153.883879,117.748987 153.483309,116.882484 C155.352636,116.949138 157.221964,117.215754 159.02453,116.882484 C159.491862,116.81583 159.692147,117.015792 159.959193,117.282408 C162.162329,119.681954 164.96632,120.481803 168.170881,120.415149 C169.105545,120.415149 169.973447,120.481803 170.908111,120.548457 C171.976298,120.615111 172.577153,120.881727 172.510391,122.214808 C172.443629,123.414581 173.178008,123.88116 174.312957,123.347927 C175.447905,122.814695 176.249046,123.081311 176.983424,124.081122 C177.58428,124.880971 178.38542,125.347549 179.253322,124.414392 C179.720654,123.947814 180.121224,124.147776 180.521794,124.5477 C181.189411,125.214241 181.790266,126.01409 182.925215,126.01409 C183.192262,126.01409 183.592832,126.34736 183.392547,126.613976 C182.190837,128.213674 183.659594,129.346793 184.126925,130.546565 C185.128351,133.07942 184.994827,133.545998 182.190836,134.212539 C179.253322,134.812425 176.649616,135.812236 174.246195,137.811858 L174.246195,137.811858 Z M144.136672,139.278247 C144.937813,141.211215 145.004574,141.211215 146.673617,139.81148 C147.20771,139.344901 147.60828,139.478209 147.675042,140.078096 C147.741804,140.877944 148.409421,141.477831 148.342659,142.144372 C148.209136,143.944031 149.878178,144.077339 150.74608,144.877188 C151.54722,145.743691 151.613982,143.877377 152.682169,143.810723 C152.548646,145.07715 152.415122,146.343577 152.815692,147.54335 C152.949216,148.009929 152.34836,148.209891 152.014552,148.409853 C151.213412,148.943086 151.013127,149.742934 151.079888,150.609437 C151.079888,151.409286 151.346935,151.675902 152.014552,151.142669 C152.34836,150.876053 152.615407,150.342821 153.015977,150.676091 C153.483309,151.076015 153.616833,151.742556 153.349786,152.342442 C152.815692,153.608869 152.615407,154.741989 153.416547,156.008416 C153.817117,156.608302 153.283024,157.074881 152.682169,157.208189 C150.679318,157.608113 149.210561,158.941194 147.875327,160.207621 C146.339808,161.740665 145.071336,161.00747 143.802864,160.34093 C142.801439,159.807697 142.334107,159.607735 141.399443,160.540892 C140.130971,161.807319 138.52869,162.740476 136.993172,163.606978 C136.392316,163.940248 135.390891,163.873594 134.656512,163.540324 C133.254517,162.873784 131.852521,162.673821 130.317002,163.740286 C131.184904,162.007281 130.650811,160.874162 129.382339,159.807697 C128.714722,159.20781 129.248815,158.341308 129.515862,157.608113 C129.84967,156.674956 130.383764,155.808453 129.84967,154.675335 C129.315577,153.542216 128.64796,152.942329 127.44625,153.542216 C126.111016,154.27541 125.777207,153.342253 125.510161,152.475751 C125.176352,151.47594 124.842544,150.409475 126.244539,149.876242 C127.446249,149.409664 128.781483,149.409664 130.049956,149.609626 C130.450526,149.67628 131.051381,149.942896 131.251666,149.742934 C132.853947,148.409853 134.856797,148.543161 136.659363,148.076583 C137.72755,147.809967 138.461929,147.076772 138.461929,146.010307 C138.461929,145.07715 137.660788,144.810534 136.792886,144.610572 C136.481116,144.548807 136.199059,144.384539 135.991746,144.143993 C135.657938,143.744069 134.923559,143.477453 135.390891,142.810912 C135.791461,142.344334 136.52584,142.211026 136.859648,142.677604 C137.794312,143.944031 138.996022,142.744258 139.997448,143.210837 C140.598303,141.544485 142.534392,141.677793 143.469056,140.544674 C143.936387,140.344712 143.535817,139.611517 144.136672,139.278247 L144.136672,139.278247 Z" id="形状" fill="#B1C1F2"></path>
                <path d="M144.690594,139.825098 C144.357069,139.294951 144.490479,138.234659 143.489901,138.300927 C142.556029,138.300927 142.689439,139.162415 142.556029,139.75883 C142.355913,140.487781 138.687129,142.475829 137.886666,142.210756 C137.819961,142.210756 137.619846,142.210756 137.619846,142.144488 C137.353025,139.891366 134.417997,139.162415 134.417997,136.64422 C134.417997,135.385123 134.684818,134.788708 135.952216,134.854976 C136.419153,134.854976 136.952794,134.854976 137.41973,134.987513 C139.08736,135.451391 140.021232,134.854976 141.088515,133.529611 C142.622734,131.541562 144.623889,129.951123 146.024698,127.830538 C146.625045,126.902782 147.091981,125.975026 147.425507,124.914733 C147.892443,123.191758 148.959726,122.860416 150.227124,124.053245 C150.894176,124.64966 151.494523,125.04727 152.428395,125.04727 C153.962614,124.981001 154.963192,125.842489 155.296718,127.300392 C155.563538,128.692026 154.362845,129.089635 153.428973,129.619781 C152.028164,130.481269 150.42724,130.613806 148.893021,130.680074 C147.625622,130.746343 147.158686,131.475294 147.492212,132.469318 C148.092559,134.126025 148.292674,135.981537 149.760188,137.240635 C150.56065,137.969586 151.227702,138.831074 151.427817,139.957634 C151.894754,142.07822 151.894754,142.07822 150.093714,144 C150.093714,142.475829 147.892443,142.674634 148.092559,141.084195 C148.092559,140.951659 147.892443,140.752854 147.825738,140.620317 C147.025276,138.168391 146.69175,138.102122 144.690594,139.825098 L144.690594,139.825098 Z M137.086204,105.630661 C135.551985,104.504101 134.751523,103.112466 133.350714,102.516052 C133.217304,102.449784 133.083894,102.18471 133.150599,102.052174 C133.884356,100.395467 132.817073,99.1363693 132.483547,97.6784669 C131.683085,94.4975891 131.416264,93.9674429 128.347826,93.0396867 C130.148866,93.371028 131.549675,91.7143208 133.350714,91.9793941 C133.951061,92.0456624 134.484702,90.8528333 134.618113,90.3226869 C135.151754,88.4671749 134.684818,87.0755407 135.551985,85.2862972 C135.818806,84.6898825 136.018922,83.9609313 136.485858,83.4970532 C137.086204,82.9006386 137.619846,82.7018338 138.353603,83.2319801 C139.08736,83.6958582 139.554296,84.2922727 139.22077,85.2200287 C138.953949,85.9489799 138.487013,86.6779311 138.353603,87.4068823 C138.153487,88.6659797 138.153487,89.9250772 140.021232,89.7925407 C141.088515,89.7262724 141.221925,90.5214919 141.28863,91.1841746 C141.28863,92.0456624 141.088515,92.8408818 140.955105,93.7023696 C140.821694,94.4975891 140.554874,95.160272 139.487591,94.5638573 C138.220192,93.8349061 137.819961,95.0277354 137.819961,95.6904182 C137.819961,97.3471254 136.552563,99.4014422 139.154065,100.594272 C139.954527,100.925613 139.487591,102.714857 138.553718,102.781125 C137.019499,103.046198 136.552563,103.841418 137.086204,105.630661 L137.086204,105.630661 Z M169.504921,74.0869565 C169.905152,74.9484443 170.772319,75.5448589 169.438215,75.9424686 C168.837869,76.1412734 168.504343,76.2738099 168.571048,77.0027611 C168.637753,77.7317123 168.837869,78.2618585 169.571626,78.5269318 C170.238678,78.7920049 171.30596,78.8582731 171.105845,79.984834 C170.905729,80.9788583 170.972434,82.0391508 169.504921,82.5030289 C167.970718,82.5030289 169.504921,82.5030289 169.504921,82.5030289" id="形状" fill="#B1C1F2"></path>
            </g>
        </g>
    </g>
</svg>