<?xml version="1.0" encoding="UTF-8"?>
<svg width="400px" height="185px" viewBox="0 0 400 185" version="1.1" xmlns="http://www.w3.org/2000/svg" xmlns:xlink="http://www.w3.org/1999/xlink">
    <!-- Generator: Sketch 60.1 (88133) - https://sketch.com -->
    <title>tu@3x</title>
    <desc>Created with Sketch.</desc>
    <g id="页面-1" stroke="none" stroke-width="1" fill="none" fill-rule="evenodd">
        <g id="交易设置-到店自提未开通-状态1" transform="translate(-626.000000, -164.000000)" fill-rule="nonzero">
            <g id="tu" transform="translate(626.000000, 164.000000)">
                <path d="M0,164.028777 C0,164.028777 12.5796999,116.558512 28.5139864,94.6491596 C44.448273,72.7398067 69.1883494,11.9911466 180.309032,17.6344647 C291.429714,23.2777829 299.396858,53.486133 317.427761,87.0140821 C335.458664,120.542031 362.71468,115.562633 373.197764,133.156507 C383.680847,150.750381 378.648967,155.06586 378.648967,155.06586 L0,164.028777 Z" id="Path" fill="#F8F8FF"></path>
                <path d="M0,145.582096 C0,145.582096 12.5194197,152.264041 11.128373,153.823161 C9.73732642,155.382282 -23.1841105,172.755339 37.0945768,178.546358 C97.3732642,184.337377 334.314874,187.010155 367.236311,179.882747 C400.157748,172.755339 388.565692,169.191635 376.509955,161.841495 C364.454217,154.491356 381.326036,157.506684 389.208633,149.933813 C393.980589,145.33519 364.925132,136.15622 367.236311,131.139336 L0,145.582096 Z" id="Path" fill="#F5F5FC"></path>
                <circle id="Oval" fill="#BAC5F4" cx="141.007194" cy="172.661871" r="7.1942446"></circle>
                <circle id="Oval" fill="#E1E6FB" cx="94.9640288" cy="166.906475" r="8.63309353"></circle>
                <circle id="Oval" fill="#E1E6FB" transform="translate(179.136691, 173.381295) scale(-1, 1) translate(-179.136691, -173.381295) " cx="179.136691" cy="173.381295" r="3.5971223"></circle>
                <path d="M378.133694,144.890944 C378.133694,144.890944 339.787145,111.12056 229.034923,131.985172 C118.282701,152.849784 78.4869878,127.785328 61.9680123,127.785328 C45.4490369,127.785328 44.6043165,166.906475 44.6043165,166.906475 L378.786944,157.793351 L379.684225,155.245849 C379.845784,154.469516 379.893743,153.677615 379.826889,152.890167 L379.684225,151.342147 C379.638974,150.877051 379.567551,150.414299 379.470229,149.95566 L378.133694,144.890944 Z" id="Path" fill="#E9EDFA"></path>
                <path d="M16.1667831,162.589928 C16.1667831,162.589928 -20.2084788,144.006963 16.1667831,133.955613 C16.1667831,133.955613 32.1080033,92.2205873 60.9616119,128.473358 C60.9616119,128.473358 87.4175308,125.730582 88.0193932,143.703675 C88.0193932,143.703675 93.732206,147.659602 102.451077,148.579355 C111.169949,149.499108 111.771811,156.804385 109.966224,158.937289 C108.160637,161.070193 101.852468,161.676768 101.852468,161.676768 L16.1667831,162.589928 Z" id="Path" fill="#BAC6F2"></path>
                <path d="M22.2511725,162.589928 C22.2511725,162.589928 -5.15209518,149.473359 22.2511725,142.377097 C22.2511725,142.377097 34.2546413,112.919246 55.995143,138.505548 C55.995143,138.505548 75.9344598,136.571351 76.376448,149.255644 C76.376448,149.255644 80.6800172,152.051237 87.2466989,152.694917 C93.8133806,153.338598 94.2686616,158.500663 92.896172,160.00574 C91.5236823,161.510817 86.7814482,161.939937 86.7814482,161.939937 L22.2511725,162.589928 Z" id="Path" fill="#B1C1F2"></path>
                <path d="M296.214094,156.834532 L296.184008,75.287801 C296.184008,75.287801 256.610505,72.1887007 262.460617,47.6409129 C266.311663,31.4732776 279.335684,30.2018518 279.02145,21.6760151 C278.794131,15.5175466 284.447011,-9.69906417 301.529339,4.03829377 C315.024713,14.8917667 308.683191,23.8414121 315.653182,25.1128378 C322.790319,26.4140626 331.49863,38.30388 326.658079,45.2768556 C321.817529,52.2498312 327.209661,52.5080896 327.209661,55.9945774 C327.209661,59.4810652 330.071202,69.6193612 315.549552,72.2184997 C301.027901,74.8176383 298.213161,75.6685665 298.213161,75.6685665 L299.433328,156.817977 L296.214094,156.834532 Z" id="Path" fill="#B1C1F2"></path>
                <path d="M286.756896,156.834532 L286.756896,117.229125 C286.756896,117.229125 272.991242,115.720834 275.025227,103.76955 C276.37447,95.8989576 280.894434,95.2790246 280.786495,91.1280303 C280.708913,88.1306225 282.675435,75.8533936 288.615479,82.5416393 C293.310845,87.8238515 291.104832,92.1825554 293.526724,92.8024884 C296.009331,93.4415945 299.038382,99.2255051 297.355201,102.619159 C295.67202,106.012812 297.547468,106.134242 297.547468,107.83746 C297.547468,109.540678 298.559401,114.471382 293.499739,115.743203 C288.440077,117.015024 288.305153,117.021415 288.305153,117.021415 L288.386107,156.709907 L286.756896,156.834532 Z" id="Path" fill="#B1C1F2"></path>
                <path d="M273.23687,156.794928 L273.274923,87.9985268 C273.274923,87.9985268 299.947065,85.3846266 296.005385,64.664847 C293.408252,51.0177797 284.630641,49.9451565 284.843105,42.7536305 C284.995318,37.5555336 281.186824,16.2746895 269.672551,27.8689211 C260.577829,37.0274729 264.852475,44.5820405 260.159244,45.6546637 C255.348681,46.7536899 249.478971,56.7868422 252.742035,62.6747184 C256.005099,68.5625946 252.371016,68.7771193 252.371016,71.7210574 C252.371016,74.6649955 250.442986,83.2195779 260.232179,85.4275315 C270.021372,87.6354851 271.917691,88.3384658 271.917691,88.3384658 L271.188338,156.834532 L273.23687,156.794928 Z" id="Path" fill="#BAC6F2"></path>
                <circle id="Oval" fill="#FFFFFF" cx="84.8920863" cy="64.7482014" r="8.63309353"></circle>
                <circle id="Oval" fill="#FFFFFF" cx="60.4316547" cy="64.7482014" r="8.63309353"></circle>
                <circle id="Oval" fill="#FFFFFF" cx="72.6618705" cy="64.028777" r="10.7913669"></circle>
                <circle id="Oval" fill="#FFFFFF" cx="376.978417" cy="53.2374101" r="8.63309353"></circle>
                <circle id="Oval" fill="#FFFFFF" cx="389.208633" cy="51.0791367" r="10.7913669"></circle>
                <g id="build_1" transform="translate(116.546763, 7.194245)">
                    <g id="Layer_2">
                        <polygon id="Path" fill="#E9EDFA" points="4.91333655 12.3996482 5.24599305 145.797952 111.363417 145.797952 111.030761 12.7316334"></polygon>
                        <polygon id="Path" fill="#BAC6F2" points="0.256145507 0.116194829 114.357326 0.448180055 114.689982 12.7316334 0.256145507 12.7316334"></polygon>
                        <rect id="Rectangle" fill="#BAC6F2" x="0.256145507" y="37.2985401" width="114.10118" height="3.65183748"></rect>
                        <rect id="Rectangle" fill="#BAC6F2" x="5.24599305" y="40.6183924" width="105.452111" height="3.65183748"></rect>
                        <rect id="Rectangle" fill="#BAC6F2" x="4.91333655" y="11.7356777" width="105.452111" height="3.65183748"></rect>
                        <rect id="Rectangle" fill="#BAC6F2" x="0.921458513" y="145.525724" width="114.10118" height="3.65183748"></rect>
                    </g>
                    <g id="details" transform="translate(4.657191, 45.149991)" fill="#B1C1F2">
                        <polygon id="Path" points="0.256145507 7.4198698 6.90927556 7.4198698 6.90927556 11.7356777 0.58880201 11.7356777"></polygon>
                        <polygon id="Path" points="0.256145507 50.5779492 4.24802354 50.5779492 4.24802354 54.8937571 0.58880201 54.8937571"></polygon>
                        <rect id="Rectangle" x="36.1830478" y="44.2702299" width="10.6450081" height="3.98382271"></rect>
                        <rect id="Rectangle" x="29.8625743" y="50.9099344" width="10.6450081" height="3.98382271"></rect>
                        <rect id="Rectangle" x="24.7230313" y="26.4492629" width="10.6450081" height="3.98382271"></rect>
                        <rect id="Rectangle" x="49.1566514" y="51.2419196" width="10.6450081" height="3.98382271"></rect>
                        <rect id="Rectangle" x="30.3050074" y="3.50908384" width="10.6450081" height="3.98382271"></rect>
                        <rect id="Rectangle" x="90.0734013" y="48.918023" width="10.6450081" height="3.98382271"></rect>
                        <rect id="Rectangle" x="91.7366838" y="0.116194829" width="10.6450081" height="3.98382271"></rect>
                    </g>
                    <g id="door" transform="translate(83.496782, 107.231228)">
                        <rect id="Rectangle" fill="#BAC6F2" x="0.289411157" y="0.112874977" width="21.5993867" height="39.2273743" rx="3.43"></rect>
                        <rect id="Rectangle" fill="#FFFFFF" x="2.3585346" y="4.53159833" width="17.5043852" height="6.28780018" rx="3.14390009"></rect>
                    </g>
                    <g id="window" transform="translate(10.977665, 50.461754)">
                        <path d="M0.106450081,15.4107542 L2.27869704,15.4107542 L26.5360092,15.3875152 C26.5360092,15.3875152 27.8666352,8.08384025 22.5441312,3.76803231 C17.2216271,-0.547775623 11.7095089,-0.547775623 7.71763086,1.44413573 C3.72575283,3.43604709 -0.0432453454,6.42391412 0.106450081,15.4107542 Z" id="Path" fill="#BAC6F2"></path>
                        <polyline id="Path" fill="#BAC6F2" points="2.27537048 15.4107542 2.0924094 33.1088866 24.6664797 33.1088866 24.6664797 14.9625741 1.91277489 14.5973904 2.27537048 15.4107542"></polyline>
                        <polygon id="Path" fill="#BAC6F2" points="2.0924094 33.1088866 0.6087614 33.0026513 0.6087614 35.997158 26.1268417 35.997158 26.0004323 33.0026513"></polygon>
                        <rect id="Rectangle" fill="#FFFFFF" x="4.90335685" y="16.4000702" width="7.88063255" height="7.24059778"></rect>
                        <rect id="Rectangle" fill="#FFFFFF" x="14.3873937" y="16.3170739" width="7.53134322" height="7.24059778"></rect>
                        <rect id="Rectangle" fill="#FFFFFF" x="14.347475" y="25.4300683" width="7.67771208" height="7.24059778"></rect>
                        <rect id="Rectangle" fill="#FFFFFF" x="4.97654128" y="25.4267484" width="7.88063255" height="7.24059778"></rect>
                        <polyline id="Path" fill="#B1C1F2" points="3.28997281 4.6245542 2.36518773 15.460552 6.87600991 15.3144785 7.79414186 1.42753647 4.93994907 3.09742216 3.63593558 4.25937045"></polyline>
                        <polyline id="Path" fill="#B1C1F2" points="23.7350415 4.85030415 24.5833156 15.4638718 20.4517218 15.3211182 19.6433665 1.8358783 22.1915153 3.49248458 23.4190178 4.49507996"></polyline>
                        <polyline id="Path" fill="#B1C1F2" points="9.23787108 4.41208365 8.62245655 15.3576365 12.557783 15.4240336 13.4393227 0.179272022 11.7361214 0.225749954 9.68030423 0.610852816"></polyline>
                        <polyline id="Path" fill="#B1C1F2" points="18.4857219 4.36892557 19.0412582 15.3144785 15.501793 15.3808755 14.7533159 0.239029363 16.6095392 0.627452077 18.1597185 1.12211006"></polyline>
                    </g>
                    <g id="window_copy" transform="translate(44.575971, 50.793740)">
                        <path d="M0.209573597,15.3111586 L2.38182056,15.3111586 L26.6391327,15.2879197 C26.6391327,15.2879197 27.9697588,7.98424468 22.6472547,3.66843675 C17.3247507,-0.64737119 11.8126324,-0.64737119 7.82075438,1.34454016 C3.82887635,3.33645152 0.0632047355,6.33427811 0.209573597,15.3111586 Z" id="Path" fill="#BAC6F2"></path>
                        <polyline id="Path" fill="#BAC6F2" points="2.38182056 15.3078388 2.19885948 33.009291 24.7696032 33.009291 24.7696032 14.8596587 2.01589841 14.494475 2.38182056 15.3078388"></polyline>
                        <polygon id="Path" fill="#BAC6F2" points="2.19885948 33.009291 0.715211481 32.8997359 0.715211481 35.8975625 26.2299652 35.8975625 26.1068823 32.8997359"></polygon>
                        <rect id="Rectangle" fill="#FFFFFF" x="5.00980693" y="16.2971547" width="7.88063255" height="7.24059778"></rect>
                        <rect id="Rectangle" fill="#FFFFFF" x="14.4905173" y="16.2141584" width="7.53134322" height="7.24059778"></rect>
                        <rect id="Rectangle" fill="#FFFFFF" x="14.4505985" y="25.3271529" width="7.67771208" height="7.24059778"></rect>
                        <rect id="Rectangle" fill="#FFFFFF" x="5.08299136" y="25.323833" width="7.88063255" height="7.24059778"></rect>
                        <polyline id="Path" fill="#B1C1F2" points="3.39309633 4.52163878 2.46831125 15.3576365 6.97913343 15.2148829 7.89726538 1.3279409 5.04639915 2.99782659 3.73905909 4.15977488"></polyline>
                        <polyline id="Path" fill="#B1C1F2" points="23.838165 4.74738873 24.6864391 15.3642763 20.5548453 15.2215226 19.74649 1.73296288 22.2946388 3.38956916 23.5221413 4.39216454"></polyline>
                        <polyline id="Path" fill="#B1C1F2" points="9.3409946 4.30916823 8.72558007 15.2547211 12.6609065 15.3211182 13.5424462 0.0763566019 11.8392449 0.122834534 9.78342775 0.511257248"></polyline>
                        <polyline id="Path" fill="#B1C1F2" points="18.5921719 4.26933 19.1443817 15.211563 15.6082431 15.2779601 14.8564394 0.139433795 16.7159893 0.524536657 18.262842 1.01919464"></polyline>
                    </g>
                    <g id="window_copy_2" transform="translate(77.841622, 50.793740)">
                        <path d="M0.186287642,15.3111586 L2.3585346,15.3111586 L26.6158468,15.2879197 C26.6158468,15.2879197 27.9464728,7.98424468 22.6239688,3.66843675 C17.3014647,-0.64737119 11.7893465,-0.64737119 7.79746843,1.34454016 C3.80559039,3.33645152 0.0365922153,6.33427811 0.186287642,15.3111586 Z" id="Path" fill="#BAC6F2"></path>
                        <polyline id="Path" fill="#BAC6F2" points="2.35520804 15.3078388 2.17224696 33.009291 24.7463172 33.009291 24.7463172 14.8596587 1.98928589 14.494475 2.35520804 15.3078388"></polyline>
                        <polygon id="Path" fill="#BAC6F2" points="2.17224696 33.009291 0.688598961 32.8997359 0.688598961 35.8975625 26.2066793 35.8975625 26.0802698 32.8997359"></polygon>
                        <rect id="Rectangle" fill="#FFFFFF" x="4.98319441" y="16.2971547" width="7.88063255" height="7.24059778"></rect>
                        <rect id="Rectangle" fill="#FFFFFF" x="14.4639047" y="16.2141584" width="7.53134322" height="7.24059778"></rect>
                        <rect id="Rectangle" fill="#FFFFFF" x="14.4273125" y="25.3271529" width="7.67771208" height="7.24059778"></rect>
                        <rect id="Rectangle" fill="#FFFFFF" x="5.05637884" y="25.323833" width="7.88063255" height="7.24059778"></rect>
                        <polyline id="Path" fill="#B1C1F2" points="3.36981037 4.52163878 2.4450253 15.3576365 6.95584747 15.2148829 7.87065286 1.3279409 5.01978663 2.99782659 3.71244657 4.15977488"></polyline>
                        <polyline id="Path" fill="#B1C1F2" points="23.814879 4.74738873 24.6631531 15.3642763 20.5282328 15.2215226 19.7232041 1.73296288 22.2713529 3.38956916 23.4988554 4.39216454"></polyline>
                        <polyline id="Path" fill="#B1C1F2" points="9.31770864 4.30916823 8.70229411 15.2547211 12.6376205 15.3211182 13.5158337 0.0763566019 11.815959 0.122834534 9.76014179 0.511257248"></polyline>
                        <polyline id="Path" fill="#B1C1F2" points="18.5655594 4.26933 19.1210958 15.211563 15.5816306 15.2779601 14.8331535 0.139433795 16.6893767 0.524536657 18.2362295 1.01919464"></polyline>
                    </g>
                    <g id="window_copy_3" transform="translate(10.645008, 100.923509)">
                        <path d="M0.515617579,15.5734269 L6.26724851,15.5734269 L70.4699536,15.550188 C70.4699536,15.550188 75.682681,7.47630729 61.5946781,3.06754349 C47.5066752,-1.34122031 24.3371497,-0.0863161587 13.7819589,1.94875328 C3.22676808,3.98382271 0.123082906,6.40731486 0.515617579,15.5734269 Z" id="Path" fill="#BAC6F2"></path>
                        <polyline id="Path" fill="#BAC6F2" points="1.35723853 15.7360997 0.795049042 44.6619724 70.2836659 44.6619724 70.2836659 15.0057322 0.232859552 14.4081588 1.35723853 15.7360997"></polyline>
                        <rect id="Rectangle" fill="#FFFFFF" x="4.7270489" y="16.1278423" width="61.2254293" height="14.7301845"></rect>
                        <rect id="Rectangle" fill="#FFFFFF" x="26.3164559" y="33.2317211" width="17.6341212" height="7.24059778"></rect>
                        <rect id="Rectangle" fill="#FFFFFF" x="5.1461961" y="33.3578755" width="17.6341212" height="7.24059778"></rect>
                        <rect id="Rectangle" fill="#FFFFFF" x="47.7395347" y="33.3578755" width="17.6341212" height="7.24059778"></rect>
                        <polyline id="Path" fill="#B1C1F2" points="7.01572564 4.23613148 5.75828406 14.6969859 11.7494277 14.560872 12.8139285 1.88567608 9.30107582 2.7255987 7.35836184 3.52236325"></polyline>
                        <polyline id="Path" fill="#B1C1F2" points="16.9022769 4.34236675 15.8943277 14.5973904 21.9054307 14.5210338 22.9998706 0.627452077 20.0658402 0.972716712 17.4145679 1.21838578"></polyline>
                        <polyline id="Path" fill="#B1C1F2" points="61.6612094 4.15977488 62.6491992 14.6206293 57.9387831 14.4845154 57.1038153 1.80931948 59.8648642 2.6492421 61.3917576 3.44600664"></polyline>
                        <polyline id="Path" fill="#B1C1F2" points="53.8437815 4.26601015 54.6820759 14.5210338 49.6755956 14.4446772 48.7674433 0.551095475 51.209142 0.89636011 53.4146547 1.14202918"></polyline>
                        <polyline id="Path" fill="#B1C1F2" points="44.6524824 4.1863337 45.4907768 14.4413573 40.4842964 14.3683206 39.5528582 0.146073499 41.924699 0.262268328 44.1834367 0.378463157"></polyline>
                        <polyline id="Path" fill="#B1C1F2" points="33.7679616 4.56811671 34.606256 14.8231403 29.5997756 14.7501036 28.6683374 0.531176361 31.1632612 0.444860203 33.5084895 0.395062419"></polyline>
                    </g>
                </g>
                <g id="Layer_13" transform="translate(237.410072, 125.179856)">
                    <rect id="Rectangle" fill="#FFFFFF" x="3.54468967" y="24.7539568" width="3.41299841" height="6.70375699" rx="1.70649921"></rect>
                    <rect id="Rectangle" fill="#FFFFFF" x="14.5189611" y="24.7539568" width="3.41299841" height="6.70375699" rx="1.70649921"></rect>
                    <path d="M2.21314474,0.383373301 C2.21314474,0.383373301 -0.435312767,26.815028 0.0695037191,27.1772982 C0.574320205,27.5395683 20.7486892,27.7822542 21.2535057,27.419984 C21.7583222,27.0577138 19.7390562,0.626059153 19.3622729,0.502957634 C18.9854896,0.379856115 2.8423363,0.0211031175 2.21314474,0.383373301 Z" id="Path" fill="#BAC6F2"></path>
                    <rect id="Rectangle" fill="#FFFFFF" x="4.85794415" y="7.05195843" width="12.4850628" height="1.33301359" rx="0.666506795"></rect>
                    <rect id="Rectangle" fill="#FFFFFF" x="3.34715279" y="11.2936851" width="15.2578954" height="1.33301359" rx="0.666506795"></rect>
                </g>
                <rect id="矩形" fill="#BAC6F2" x="165.467626" y="28.7769784" width="15.8273381" height="4.31654676" rx="2.15827338"></rect>
                <path d="M166.967626,28.7769784 L179.794964,28.7769784 C180.623391,28.7769784 181.294964,29.4485513 181.294964,30.2769784 L181.294964,31.5935252 C181.294964,32.4219523 180.623391,33.0935252 179.794964,33.0935252 L166.967626,33.0935252 C166.139199,33.0935252 165.467626,32.4219523 165.467626,31.5935252 L165.467626,30.2769784 C165.467626,29.4485513 166.139199,28.7769784 166.967626,28.7769784 Z" id="矩形" fill="#BAC6F2" transform="translate(173.381295, 30.935252) rotate(90.000000) translate(-173.381295, -30.935252) "></path>
            </g>
        </g>
    </g>
</svg>