<?xml version="1.0" encoding="UTF-8"?>
<svg width="278px" height="128px" viewBox="0 0 278 128" version="1.1" xmlns="http://www.w3.org/2000/svg" xmlns:xlink="http://www.w3.org/1999/xlink">
    <!-- Generator: Sketch 60.1 (88133) - https://sketch.com -->
    <title>tu@3x</title>
    <desc>Created with Sketch.</desc>
    <g id="页面-1" stroke="none" stroke-width="1" fill="none" fill-rule="evenodd">
        <g id="交易设置-到店自提-状态1" transform="translate(-325.000000, -203.000000)" fill-rule="nonzero">
            <g id="tu" transform="translate(325.000000, 203.000000)">
                <path d="M0,114 C0,114 8.74289143,81.0081662 19.8172206,65.7811659 C30.8915497,50.5541657 48.0859029,8.33384685 125.314777,12.255953 C202.543651,16.1780591 208.080816,37.1728624 220.612294,60.4747871 C233.143771,83.7767117 252.086703,80.3160298 259.372446,92.5437724 C266.658189,104.771515 263.161032,107.770773 263.161032,107.770773 L0,114 Z" id="Path" fill="#F8F8FF"></path>
                <path d="M0,101.179557 C0,101.179557 8.70099668,105.823508 7.73421927,106.907097 C6.76744186,107.990686 -16.1129568,120.064961 25.7807309,124.089719 C67.6744186,128.114477 232.348837,129.972058 255.229236,125.018509 C278.109635,120.064961 270.053156,117.588186 261.674419,112.479839 C253.295681,107.371492 265.021595,109.467145 270.5,104.204 C273.816509,101.007957 253.622967,94.6285731 255.229236,91.1418385 L0,101.179557 Z" id="Path" fill="#F5F5FC"></path>
                <circle id="Oval" fill="#BAC5F4" cx="98" cy="120" r="5"></circle>
                <circle id="Oval" fill="#E1E6FB" cx="66" cy="116" r="6"></circle>
                <circle id="Oval" fill="#E1E6FB" transform="translate(124.500000, 120.500000) scale(-1, 1) translate(-124.500000, -120.500000) " cx="124.5" cy="120.5" r="2.5"></circle>
                <path d="M262.802917,100.699206 C262.802917,100.699206 236.152066,77.2287894 159.179272,91.7296946 C82.2064774,106.2306 54.5484565,88.8108027 43.0677686,88.8108027 C31.5870806,88.8108027 31,116 31,116 L263.256926,109.666379 L263.880536,107.895865 C263.99282,107.356313 264.026151,106.805942 263.979688,106.258666 L263.880536,105.182792 C263.849087,104.85955 263.799448,104.537938 263.731809,104.219184 L262.802917,100.699206 Z" id="Path" fill="#E9EDFA"></path>
                <path d="M11.2359142,113 C11.2359142,113 -14.0448928,100.084839 11.2359142,93.0991509 C11.2359142,93.0991509 22.3150623,64.0933082 42.3683203,89.2889837 C42.3683203,89.2889837 60.7551839,87.3827546 61.1734783,99.8740543 C61.1734783,99.8740543 65.1438832,102.623423 71.2034988,103.262652 C77.2631145,103.90188 77.6814089,108.979048 76.4265258,110.461416 C75.1716427,111.943784 70.7874655,112.365354 70.7874655,112.365354 L11.2359142,113 Z" id="Path" fill="#BAC6F2"></path>
                <path d="M15.4645649,113 C15.4645649,113 -3.58070615,103.883985 15.4645649,98.9520823 C15.4645649,98.9520823 23.8069757,78.4788761 38.9166244,96.2613557 C38.9166244,96.2613557 52.7744496,94.9170888 53.0816314,103.732672 C53.0816314,103.732672 56.072612,105.67561 60.6364557,106.122968 C65.2002995,106.570326 65.5167198,110.157961 64.5628395,111.203989 C63.6089592,112.250018 60.3131065,112.548256 60.3131065,112.548256 L15.4645649,113 Z" id="Path" fill="#B1C1F2"></path>
                <path d="M205.868796,109 L205.847886,52.3250217 C205.847886,52.3250217 178.344301,50.171147 182.410129,33.1104344 C185.086606,21.8739279 194.138301,20.990287 193.919908,15.0648305 C193.761921,10.7846949 197.690673,-6.7408496 209.562891,2.80661417 C218.942176,10.3497779 214.534818,16.5697814 219.378962,17.4534223 C224.339272,18.3577735 230.391548,26.6211966 227.027365,31.4674146 C223.663183,36.3136327 227.410715,36.4931223 227.410715,38.9162313 C227.410715,41.3393403 229.399485,48.385456 219.306938,50.1918573 C209.214391,51.9982586 207.258147,52.5896537 207.258147,52.5896537 L208.106163,108.988494 L205.868796,109 Z" id="Path" fill="#B1C1F2"></path>
                <path d="M199.296043,109 L199.296043,81.4742419 C199.296043,81.4742419 189.728914,80.42598 191.142532,72.119837 C192.080256,66.6497755 195.221632,66.2189221 195.146614,63.333981 C195.092695,61.2507826 196.459428,52.7181085 200.587758,57.3664393 C203.851037,61.0375768 202.317858,64.066876 204.001073,64.4977294 C205.726485,64.9419082 207.831676,68.961726 206.661865,71.3203153 C205.492054,73.6789045 206.795491,73.7632985 206.795491,74.9470349 C206.795491,76.1307713 207.498784,79.5576105 203.982318,80.4415262 C200.465853,81.325442 200.372081,81.3298838 200.372081,81.3298838 L200.428344,108.913385 L199.296043,109 Z" id="Path" fill="#B1C1F2"></path>
                <path d="M189.899625,108.972475 L189.926072,61.1589761 C189.926072,61.1589761 208.46321,59.3423155 205.723743,44.9420686 C203.918735,35.4573569 197.818295,34.7118837 197.965958,29.7137732 C198.071746,26.1010958 195.424842,11.3109092 187.422423,19.3689001 C181.101591,25.7340937 184.07247,30.9845182 180.810674,31.7299913 C177.467333,32.4938145 173.387885,39.4668553 175.655714,43.5589293 C177.923544,47.6510033 175.397856,47.8000979 175.397856,49.8461349 C175.397856,51.8921718 174.057875,57.8376067 180.861364,59.3721344 C187.664854,60.9066621 188.982795,61.3952337 188.982795,61.3952337 L188.475895,109 L189.899625,108.972475 Z" id="Path" fill="#BAC6F2"></path>
                <circle id="Oval" fill="#FFFFFF" cx="59" cy="45" r="6"></circle>
                <circle id="Oval" fill="#FFFFFF" cx="42" cy="45" r="6"></circle>
                <circle id="Oval" fill="#FFFFFF" cx="50.5" cy="44.5" r="7.5"></circle>
                <circle id="Oval" fill="#FFFFFF" cx="262" cy="37" r="6"></circle>
                <circle id="Oval" fill="#FFFFFF" cx="270.5" cy="35.5" r="7.5"></circle>
                <g id="build_1" transform="translate(81.000000, 5.000000)">
                    <g id="Layer_2">
                        <polygon id="Path" fill="#E9EDFA" points="3.4147689 8.61775549 3.64596517 101.329576 77.3975751 101.329576 77.1663789 8.84848522"></polygon>
                        <polygon id="Path" fill="#BAC6F2" points="0.178021127 0.0807554062 79.4783415 0.311485138 79.7095378 8.84848522 0.178021127 8.84848522"></polygon>
                        <rect id="Rectangle" fill="#BAC6F2" x="0.178021127" y="25.9224854" width="79.3003204" height="2.53802705"></rect>
                        <rect id="Rectangle" fill="#BAC6F2" x="3.64596517" y="28.2297827" width="73.2892174" height="2.53802705"></rect>
                        <rect id="Rectangle" fill="#BAC6F2" x="3.4147689" y="8.15629603" width="73.2892174" height="2.53802705"></rect>
                        <rect id="Rectangle" fill="#BAC6F2" x="0.640413666" y="101.140378" width="79.3003204" height="2.53802705"></rect>
                    </g>
                    <g id="details" transform="translate(3.236748, 31.379244)" fill="#B1C1F2">
                        <polygon id="Path" points="0.178021127 5.15680951 4.80194652 5.15680951 4.80194652 8.15629603 0.409217397 8.15629603"></polygon>
                        <polygon id="Path" points="0.178021127 35.1516747 2.95237636 35.1516747 2.95237636 38.1511612 0.409217397 38.1511612"></polygon>
                        <rect id="Rectangle" x="25.1472182" y="30.7678098" width="7.39828062" height="2.76875678"></rect>
                        <rect id="Rectangle" x="20.7544891" y="35.3824044" width="7.39828062" height="2.76875678"></rect>
                        <rect id="Rectangle" x="17.1825067" y="18.3822377" width="7.39828062" height="2.76875678"></rect>
                        <rect id="Rectangle" x="34.1638727" y="35.6131341" width="7.39828062" height="2.76875678"></rect>
                        <rect id="Rectangle" x="21.0619801" y="2.43881327" width="7.39828062" height="2.76875678"></rect>
                        <rect id="Rectangle" x="62.6010139" y="33.998026" width="7.39828062" height="2.76875678"></rect>
                        <rect id="Rectangle" x="63.7569952" y="0.0807554062" width="7.39828062" height="2.76875678"></rect>
                    </g>
                    <g id="door" transform="translate(58.030264, 74.525703)">
                        <rect id="Rectangle" fill="#BAC6F2" x="0.201140754" y="0.0784481089" width="15.0115738" height="27.2630251" rx="3.43"></rect>
                        <rect id="Rectangle" fill="#FFFFFF" x="1.63918155" y="3.14946084" width="12.1655477" height="4.37002112" rx="2.18501056"></rect>
                    </g>
                    <g id="window" transform="translate(7.629477, 35.070919)">
                        <path d="M0.0739828062,10.7104742 L1.58369445,10.7104742 L18.4425264,10.6943231 C18.4425264,10.6943231 19.3673115,5.61826897 15.6681712,2.61878246 C11.9690309,-0.380704058 8.13810868,-0.380704058 5.36375345,1.00367433 C2.58939822,2.38805273 -0.030055515,4.46462031 0.0739828062,10.7104742 Z" id="Path" fill="#BAC6F2"></path>
                        <polyline id="Path" fill="#BAC6F2" points="1.58138248 10.7104742 1.45422453 23.0106762 17.1432034 23.0106762 17.1432034 10.398989 1.32937855 10.1451863 1.58138248 10.7104742"></polyline>
                        <polygon id="Path" fill="#BAC6F2" points="1.45422453 23.0106762 0.423089173 22.9368427 0.423089173 25.0180248 18.158155 25.0180248 18.0703004 22.9368427"></polygon>
                        <rect id="Rectangle" fill="#FFFFFF" x="3.40783301" y="11.3980488" width="5.47703962" height="5.03221545"></rect>
                        <rect id="Rectangle" fill="#FFFFFF" x="9.99923865" y="11.3403663" width="5.23428354" height="5.03221545"></rect>
                        <rect id="Rectangle" fill="#FFFFFF" x="9.9714951" y="17.6738975" width="5.3360099" height="5.03221545"></rect>
                        <rect id="Rectangle" fill="#FFFFFF" x="3.45869619" y="17.6715902" width="5.47703962" height="5.03221545"></rect>
                        <polyline id="Path" fill="#B1C1F2" points="2.2865311 3.21406517 1.64380548 10.7450836 4.77882689 10.6435625 5.41692859 0.992137847 3.4332646 2.1527084 2.52697522 2.96026246"></polyline>
                        <polyline id="Path" fill="#B1C1F2" points="16.4958538 3.37096138 17.0854043 10.7473909 14.2139466 10.6481771 13.6521397 1.27593542 15.4231031 2.42727678 16.2762174 3.12408057"></polyline>
                        <polyline id="Path" fill="#B1C1F2" points="6.4203204 3.06639814 5.9926073 10.6735574 8.72765917 10.7197033 9.34032929 0.124594055 8.15660439 0.156896218 6.72781144 0.424542707"></polyline>
                        <polyline id="Path" fill="#B1C1F2" points="12.8475767 3.03640327 13.2336745 10.6435625 10.7737462 10.6897085 10.2535545 0.166125407 11.5436297 0.436079193 12.6210043 0.779866494"></polyline>
                    </g>
                    <g id="window_copy" transform="translate(30.980300, 35.301649)">
                        <path d="M0.14565365,10.6412552 L1.65536529,10.6412552 L18.5141973,10.6251042 C18.5141973,10.6251042 19.4389823,5.54905005 15.739842,2.54956354 C12.0407017,-0.449922977 8.20977953,-0.449922977 5.43542429,0.934455414 C2.66106906,2.31883381 0.0439272912,4.40232329 0.14565365,10.6412552 Z" id="Path" fill="#BAC6F2"></path>
                        <polyline id="Path" fill="#BAC6F2" points="1.65536529 10.6389479 1.52820734 22.9414572 17.2148742 22.9414572 17.2148742 10.3274628 1.40104939 10.0736601 1.65536529 10.6389479"></polyline>
                        <polygon id="Path" fill="#BAC6F2" points="1.52820734 22.9414572 0.497071979 22.8653164 0.497071979 24.9488059 18.2298258 24.9488059 18.1442832 22.8653164"></polygon>
                        <rect id="Rectangle" fill="#FFFFFF" x="3.48181582" y="11.3265225" width="5.47703962" height="5.03221545"></rect>
                        <rect id="Rectangle" fill="#FFFFFF" x="10.0709095" y="11.2688401" width="5.23428354" height="5.03221545"></rect>
                        <rect id="Rectangle" fill="#FFFFFF" x="10.0431659" y="17.6023713" width="5.3360099" height="5.03221545"></rect>
                        <rect id="Rectangle" fill="#FFFFFF" x="3.532679" y="17.600064" width="5.47703962" height="5.03221545"></rect>
                        <polyline id="Path" fill="#B1C1F2" points="2.35820195 3.14253895 1.71547632 10.6735574 4.85049773 10.5743436 5.48859944 0.922918928 3.50724741 2.08348948 2.59864607 2.89104354"></polyline>
                        <polyline id="Path" fill="#B1C1F2" points="16.5675247 3.29943517 17.1570752 10.678172 14.2856175 10.5789582 13.7238106 1.2044092 15.494774 2.35575056 16.3478882 3.05255435"></polyline>
                        <polyline id="Path" fill="#B1C1F2" points="6.49199125 2.99487192 6.06427815 10.6020312 8.79933001 10.6481771 9.41200013 0.0530678384 8.22827523 0.0853700008 6.79948228 0.355323787"></polyline>
                        <polyline id="Path" fill="#B1C1F2" points="12.9215595 2.96718435 13.3053453 10.5720363 10.847729 10.6181823 10.3252254 0.0969064874 11.6176125 0.364552977 12.6926752 0.708340277"></polyline>
                    </g>
                    <g id="window_copy_2" transform="translate(54.099927, 35.301649)">
                        <path d="M0.129469911,10.6412552 L1.63918155,10.6412552 L18.4980135,10.6251042 C18.4980135,10.6251042 19.4227986,5.54905005 15.7236583,2.54956354 C12.024518,-0.449922977 8.19359579,-0.449922977 5.41924056,0.934455414 C2.64488532,2.31883381 0.0254315896,4.40232329 0.129469911,10.6412552 Z" id="Path" fill="#BAC6F2"></path>
                        <polyline id="Path" fill="#BAC6F2" points="1.63686959 10.6389479 1.50971164 22.9414572 17.1986905 22.9414572 17.1986905 10.3274628 1.38255369 10.0736601 1.63686959 10.6389479"></polyline>
                        <polygon id="Path" fill="#BAC6F2" points="1.50971164 22.9414572 0.478576278 22.8653164 0.478576278 24.9488059 18.2136421 24.9488059 18.1257875 22.8653164"></polygon>
                        <rect id="Rectangle" fill="#FFFFFF" x="3.46332012" y="11.3265225" width="5.47703962" height="5.03221545"></rect>
                        <rect id="Rectangle" fill="#FFFFFF" x="10.0524138" y="11.2688401" width="5.23428354" height="5.03221545"></rect>
                        <rect id="Rectangle" fill="#FFFFFF" x="10.0269822" y="17.6023713" width="5.3360099" height="5.03221545"></rect>
                        <rect id="Rectangle" fill="#FFFFFF" x="3.5141833" y="17.600064" width="5.47703962" height="5.03221545"></rect>
                        <polyline id="Path" fill="#B1C1F2" points="2.34201821 3.14253895 1.69929258 10.6735574 4.83431399 10.5743436 5.47010373 0.922918928 3.48875171 2.08348948 2.58015037 2.89104354"></polyline>
                        <polyline id="Path" fill="#B1C1F2" points="16.5513409 3.29943517 17.1408914 10.678172 14.2671218 10.5789582 13.7076268 1.2044092 15.4785902 2.35575056 16.3317045 3.05255435"></polyline>
                        <polyline id="Path" fill="#B1C1F2" points="6.47580751 2.99487192 6.04809441 10.6020312 8.78314628 10.6481771 9.39350443 0.0530678384 8.21209149 0.0853700008 6.78329855 0.355323787"></polyline>
                        <polyline id="Path" fill="#B1C1F2" points="12.9030638 2.96718435 13.2891616 10.5720363 10.8292333 10.6181823 10.3090417 0.0969064874 11.5991168 0.364552977 12.6741795 0.708340277"></polyline>
                    </g>
                    <g id="window_copy_3" transform="translate(7.398281, 70.141839)">
                        <path d="M0.358354218,10.8235317 L4.35573772,10.8235317 L48.9766177,10.8073806 C48.9766177,10.8073806 52.5994633,5.19603356 42.8083012,2.13194272 C33.0171392,-0.932148117 16.9143191,-0.0599897303 9.57846144,1.35438353 C2.24260381,2.76875678 0.0855426197,4.45308383 0.358354218,10.8235317 Z" id="Path" fill="#BAC6F2"></path>
                        <polyline id="Path" fill="#BAC6F2" points="0.943280779 10.9365893 0.552559084 31.0400708 48.8471478 31.0400708 48.8471478 10.4289839 0.161837389 10.0136704 0.943280779 10.9365893"></polyline>
                        <rect id="Rectangle" fill="#FFFFFF" x="3.28529899" y="11.2088504" width="42.5516734" height="10.2374782"></rect>
                        <rect id="Rectangle" fill="#FFFFFF" x="18.2899369" y="23.0960462" width="12.2557142" height="5.03221545"></rect>
                        <rect id="Rectangle" fill="#FFFFFF" x="3.57660629" y="23.1837235" width="12.2557142" height="5.03221545"></rect>
                        <rect id="Rectangle" fill="#FFFFFF" x="33.1789766" y="23.1837235" width="12.2557142" height="5.03221545"></rect>
                        <polyline id="Path" fill="#B1C1F2" points="4.87592932 2.94411138 4.00200742 10.2144052 8.16585224 10.119806 8.9056803 1.31054488 6.46424769 1.8942911 5.11406148 2.44804246"></polyline>
                        <polyline id="Path" fill="#B1C1F2" points="11.7470825 3.01794489 11.0465578 10.1451863 15.2242743 10.0921185 15.9849101 0.436079193 13.945759 0.676038115 12.1031247 0.846778116"></polyline>
                        <polyline id="Path" fill="#B1C1F2" points="42.8545405 2.89104354 43.5411934 10.1613374 40.2674542 10.0667382 39.6871516 1.25747704 41.6060806 1.84122326 42.6672715 2.39497462"></polyline>
                        <polyline id="Path" fill="#B1C1F2" points="37.4214282 2.96487706 38.0040428 10.0921185 34.5245389 10.0390506 33.8933731 0.383011355 35.5903537 0.622970276 37.123185 0.793710278"></polyline>
                        <polyline id="Path" fill="#B1C1F2" points="31.0334752 2.90950192 31.6160898 10.0367433 28.136586 9.9859828 27.4892364 0.101521082 29.1376658 0.182276488 30.7074885 0.263031894"></polyline>
                        <polyline id="Path" fill="#B1C1F2" points="23.4687333 3.17484111 24.0513479 10.3020825 20.5718441 10.251322 19.9244945 0.369167571 21.6584665 0.309177841 23.2884002 0.274568381"></polyline>
                    </g>
                </g>
                <g id="Layer_13" transform="translate(165.000000, 87.000000)">
                    <rect id="Rectangle" fill="#FFFFFF" x="2.46355932" y="17.204" width="2.3720339" height="4.65911111" rx="1.18601695"></rect>
                    <rect id="Rectangle" fill="#FFFFFF" x="10.090678" y="17.204" width="2.3720339" height="4.65911111" rx="1.18601695"></rect>
                    <path d="M1.53813559,0.266444444 C1.53813559,0.266444444 -0.302542373,18.6364444 0.0483050847,18.8882222 C0.399152542,19.14 14.420339,19.3086667 14.7711864,19.0568889 C15.1220339,18.8051111 13.7186441,0.435111111 13.4567797,0.349555556 C13.1949153,0.264 1.97542373,0.0146666667 1.53813559,0.266444444 Z" id="Path" fill="#BAC6F2"></path>
                    <rect id="Rectangle" fill="#FFFFFF" x="3.37627119" y="4.90111111" width="8.67711864" height="1" rx="0.5"></rect>
                    <rect id="Rectangle" fill="#FFFFFF" x="2.32627119" y="7.84911111" width="10.6042373" height="1" rx="0.5"></rect>
                </g>
                <rect id="矩形" fill="#BAC6F2" x="115" y="20" width="11" height="3" rx="1.5"></rect>
                <rect id="矩形" fill="#BAC6F2" transform="translate(120.500000, 21.500000) rotate(90.000000) translate(-120.500000, -21.500000) " x="115" y="20" width="11" height="3" rx="1.5"></rect>
            </g>
        </g>
    </g>
</svg>