<?xml version="1.0" encoding="UTF-8"?>
<svg width="18px" height="18px" viewBox="0 0 18 18" version="1.1" xmlns="http://www.w3.org/2000/svg" xmlns:xlink="http://www.w3.org/1999/xlink">
    <!-- Generator: Sketch 60.1 (88133) - https://sketch.com -->
    <title>delete-1</title>
    <desc>Created with Sketch.</desc>
    <g id="页面-1" stroke="none" stroke-width="1" fill="none" fill-rule="evenodd">
        <g id="商品管理-商品分类" transform="translate(-516.000000, -176.000000)" fill="#E26767" fill-rule="nonzero">
            <g id="delete-1" transform="translate(516.000000, 176.000000)">
                <path d="M14.2523265,4.9848304 C14.2523265,4.68051023 14.472094,4.43381 14.743191,4.43381 C15.0142879,4.43381 15.2340554,4.68051023 15.2340554,4.9848304 L15.2340554,15.7297284 C15.2340554,16.947009 14.3549854,17.93381 13.2705976,17.93381 L4.43503715,17.93381 C3.35064932,17.93381 2.4715793,16.947009 2.4715793,15.7297284 L2.4715793,4.9848304 C2.4715793,4.68051023 2.6913468,4.43381 2.96244376,4.43381 C3.23354071,4.43381 3.45330822,4.68051023 3.45330822,4.9848304 L3.45330822,15.7297284 C3.45330822,16.3383687 3.89284323,16.8317692 4.43503715,16.8317692 L13.2705976,16.8317692 C13.8127915,16.8317692 14.2523265,16.3383687 14.2523265,15.7297284 L14.2523265,4.9848304 L14.2523265,4.9848304 Z M4.92590163,3.45330822 L12.7797331,3.45330822 L12.7797331,1.58802324 C12.7797331,1.26503443 12.5077942,0.998985883 12.1661525,0.998985883 L5.5394822,0.998985883 C5.20746789,0.992411843 4.93287902,1.25601716 4.92590163,1.58802324 L4.92590163,3.45330822 Z M3.94417269,3.45330822 L3.94417269,1.58802324 C3.94417269,0.718211421 4.66083482,0.0172569462 5.5394822,0.0172569462 L12.1661525,0.0172569462 C13.0447999,0.0172569462 13.761462,0.718211421 13.761462,1.58802324 L13.761462,3.45330822 L17.1975133,3.45330822 C17.4686103,3.45330822 17.6883778,3.67307572 17.6883778,3.94417268 C17.6883778,4.21526964 17.4686103,4.43503715 17.1975133,4.43503715 L0.508121424,4.43503715 C0.237024464,4.43503715 0.0172569554,4.21526964 0.0172569554,3.94417268 C0.0172569554,3.67307572 0.237024464,3.45330822 0.508121424,3.45330822 L3.94417269,3.45330822 Z" id="形状"></path>
                <path d="M7.50294008,7.0120756 L7.50294008,13.3933137 C7.50294008,13.6644106 7.28317257,13.8841781 7.01207561,13.8841781 C6.74097865,13.8841781 6.52121114,13.6644106 6.52121114,13.3933137 L6.52121114,7.0120756 C6.52121114,6.74097865 6.74097866,6.52121115 7.01207561,6.52121115 C7.28317256,6.52121115 7.50294008,6.74097865 7.50294008,7.0120756 L7.50294008,7.0120756 Z M11.1844236,7.0120756 L11.1844236,13.3933137 C11.1844236,13.6644106 10.9646561,13.8841781 10.6935591,13.8841781 C10.4224621,13.8841781 10.2026946,13.6644106 10.2026946,13.3933137 L10.2026946,7.0120756 C10.2026946,6.74097864 10.4224621,6.52121113 10.6935591,6.52121113 C10.9646561,6.52121113 11.1844236,6.74097864 11.1844236,7.0120756 Z" id="形状"></path>
            </g>
        </g>
    </g>
</svg>