<?xml version="1.0" encoding="UTF-8"?>
<svg width="17px" height="18px" viewBox="0 0 17 18" version="1.1" xmlns="http://www.w3.org/2000/svg" xmlns:xlink="http://www.w3.org/1999/xlink">
    <!-- Generator: Sketch 60.1 (88133) - https://sketch.com -->
    <title>edit</title>
    <desc>Created with Sketch.</desc>
    <g id="页面-1" stroke="none" stroke-width="1" fill="none" fill-rule="evenodd">
        <g id="商品管理-商品分类" transform="translate(-441.000000, -176.000000)" fill="#4874EF" fill-rule="nonzero">
            <g id="edit" transform="translate(441.000000, 176.000000)">
                <path d="M11.7899144,0.269091257 C12.1543123,-0.0908189934 12.7574537,-0.0800486093 13.1415973,0.301402391 L15.2193834,2.35675019 C15.6017319,2.7355086 15.6178875,3.33326476 15.2525921,3.69586761 L5.0234223,13.8182311 C4.84122334,13.9977375 4.49387854,14.1987846 4.238082,14.266997 L0.939652679,15.1591436 C0.437034872,15.2946709 0.133669143,14.9975879 0.261118648,14.5012528 L1.11646644,11.1678197 C1.17929366,10.9192034 1.38123832,10.5691661 1.56074467,10.3914547 L11.7899144,0.269091257 Z M2.25363921,11.077169 C2.16289297,11.1851074 2.09180597,11.3081426 2.04361678,11.4406694 L1.37585311,14.0479992 L3.94548663,13.3533096 C4.04690772,13.3263837 4.2578277,13.2043194 4.3314253,13.1325168 L14.5596975,3.01015333 L12.482809,0.954805538 L2.25363921,11.077169 Z M11.7576033,1.6710359 L13.8344919,3.72728123 L13.1415973,4.41299551 L11.0647088,2.35764772 L11.7576033,1.67193344 L11.7576033,1.6710359 Z M3.44825403,9.89511967 L5.52514257,11.9504675 L4.83224804,12.6361817 L2.75535948,10.5808339 L3.4473565,9.89511967 L3.44825403,9.89511967 Z M0.00262948503,17.4729806 C0.00262948503,17.2055161 0.218934645,16.9883134 0.495374442,16.9883134 L15.6681493,16.9883134 C15.9392039,16.9883134 16.1582017,17.2055161 16.1582017,17.4729806 C16.1582017,17.740445 15.9392039,17.9576477 15.6681493,17.9576477 L0.496271975,17.9576477 C0.366137755,17.9585063 0.240947985,17.9078496 0.148029643,17.8167352 C0.0553621003,17.7263287 0.00296134822,17.6024429 0.00262948503,17.4729806 L0.00262948503,17.4729806 Z" id="形状"></path>
            </g>
        </g>
    </g>
</svg>