<?xml version="1.0" encoding="UTF-8"?>
<svg width="18px" height="15px" viewBox="0 0 18 15" version="1.1" xmlns="http://www.w3.org/2000/svg" xmlns:xlink="http://www.w3.org/1999/xlink">
    <!-- Generator: Sketch 60.1 (88133) - https://sketch.com -->
    <title>see-nl</title>
    <desc>Created with Sketch.</desc>
    <g id="页面-1" stroke="none" stroke-width="1" fill="none" fill-rule="evenodd">
        <g id="商品管理-商品分类" transform="translate(-776.000000, -231.000000)" fill="#898989" fill-rule="nonzero">
            <g id="see-nl" transform="translate(776.000000, 230.000000)">
                <path d="M8.9605564,11.2775891 C7.41501048,11.2775891 6.14944979,10.0232184 6.14944979,8.46648247 C6.14944979,6.90974657 7.41501048,5.65537586 8.9605564,5.65537586 C10.5061023,5.65537586 11.771663,6.90974657 11.771663,8.46648247 C11.771663,10.0232184 10.5061023,11.2775891 8.9605564,11.2775891 Z M8.9605564,6.55134575 C7.90779821,6.55134575 7.04541968,7.41372428 7.04541968,8.46648247 C7.04541968,9.51924066 7.90779821,10.3816192 8.9605564,10.3816192 C10.0133146,10.3816192 10.8756931,9.51924066 10.8756931,8.46648247 C10.8756931,7.41372428 10.0133146,6.55134575 8.9605564,6.55134575 Z" id="形状"></path>
                <path d="M8.95127429,14.2020317 C5.2217964,14.2020317 2.0523104,11.3909037 0.495574505,9.72216082 C-0.165191502,9.00538062 -0.165191502,7.89662967 0.495574505,7.17984947 C2.0523104,5.51110661 5.2217964,2.7 8.95127429,2.7 C12.6807522,2.7 15.8502382,5.51110661 17.4069741,7.17984947 C18.0677401,7.89662967 18.0677401,9.00540206 17.4069741,9.72216082 C15.8502382,11.3909037 12.6807522,14.2020317 8.95127429,14.2020317 L8.95127429,14.2020317 Z M8.95127429,3.58477992 C5.55779583,3.58477992 2.61230231,6.21669684 1.14515053,7.78464415 C0.797961128,8.15421351 0.797961128,8.7366068 1.14515053,9.10617616 C2.60109089,10.6741235 5.55779583,13.3060404 8.95127429,13.3060404 C12.3447528,13.3060404 15.2902463,10.6741235 16.7573981,9.10617616 C17.1045875,8.7366068 17.1045875,8.15421351 16.7573981,7.78464415 C15.2902677,6.21669684 12.3447528,3.58477992 8.95127429,3.58477992 Z" id="形状"></path>
                <path d="M8.55,-1.8 C8.79852814,-1.8 9,-1.59852814 9,-1.35 L9,17.55 C9,17.7985281 8.79852814,18 8.55,18 C8.30147186,18 8.1,17.7985281 8.1,17.55 L8.1,-1.35 C8.1,-1.59852814 8.30147186,-1.8 8.55,-1.8 Z" id="矩形" transform="translate(8.550000, 8.100000) rotate(45.000000) translate(-8.550000, -8.100000) "></path>
            </g>
        </g>
    </g>
</svg>