<?xml version="1.0" encoding="UTF-8"?>
<svg width="18px" height="12px" viewBox="0 0 18 12" version="1.1" xmlns="http://www.w3.org/2000/svg" xmlns:xlink="http://www.w3.org/1999/xlink">
    <!-- Generator: Sketch 60.1 (88133) - https://sketch.com -->
    <title>see-sel</title>
    <desc>Created with Sketch.</desc>
    <g id="页面-1" stroke="none" stroke-width="1" fill="none" fill-rule="evenodd">
        <g id="商品管理-商品分类" transform="translate(-478.000000, -180.000000)" fill="#4874EF" fill-rule="nonzero">
            <g id="see-sel" transform="translate(478.000000, 180.000000)">
                <path d="M8.9605564,8.57758908 C7.41501048,8.57758908 6.14944979,7.32321837 6.14944979,5.76648247 C6.14944979,4.20974657 7.41501048,2.95537586 8.9605564,2.95537586 C10.5061023,2.95537586 11.771663,4.20974657 11.771663,5.76648247 C11.771663,7.32321837 10.5061023,8.57758908 8.9605564,8.57758908 Z M8.9605564,3.85134575 C7.90779821,3.85134575 7.04541968,4.71372428 7.04541968,5.76648247 C7.04541968,6.81924066 7.90779821,7.68161919 8.9605564,7.68161919 C10.0133146,7.68161919 10.8756931,6.81924066 10.8756931,5.76648247 C10.8756931,4.71372428 10.0133146,3.85134575 8.9605564,3.85134575 Z" id="形状"></path>
                <path d="M8.9605564,11.523104 C5.23107851,11.523104 2.06159251,8.71197599 0.504856612,7.04323314 C-0.155909394,6.32645293 -0.155909394,5.21770198 0.504856612,4.50092178 C2.06159251,2.83217893 5.23107851,0.0210723133 8.9605564,0.0210723133 C12.6900343,0.0210723133 15.8595203,2.83217893 17.4162562,4.50092178 C18.0770222,5.21770198 18.0770222,6.32647437 17.4162562,7.04323314 C15.8595203,8.71197599 12.6900343,11.523104 8.9605564,11.523104 L8.9605564,11.523104 Z M8.9605564,0.905852229 C5.56707793,0.905852229 2.62158441,3.53776915 1.15443264,5.10571646 C0.807243236,5.47528582 0.807243236,6.05767912 1.15443264,6.42724848 C2.610373,7.99519579 5.56707793,10.6271127 8.9605564,10.6271127 C12.3540349,10.6271127 15.2995284,7.99519579 16.7666802,6.42724848 C17.1138696,6.05767912 17.1138696,5.47528582 16.7666802,5.10571646 C15.2995498,3.53776915 12.3540349,0.905852229 8.9605564,0.905852229 Z" id="形状"></path>
            </g>
        </g>
    </g>
</svg>