<?xml version="1.0" encoding="UTF-8"?>
<svg width="822px" height="587px" viewBox="0 0 822 587" version="1.1" xmlns="http://www.w3.org/2000/svg" xmlns:xlink="http://www.w3.org/1999/xlink">
    <!-- Generator: Sketch 60.1 (88133) - https://sketch.com -->
    <title>插画</title>
    <desc>Created with Sketch.</desc>
    <defs>
        <linearGradient x1="86.0825384%" y1="40.5375174%" x2="66.1018853%" y2="60.124617%" id="linearGradient-1">
            <stop stop-color="#82B2FF" offset="0%"></stop>
            <stop stop-color="#4C79DB" offset="100%"></stop>
        </linearGradient>
        <linearGradient x1="100%" y1="94.6381579%" x2="0%" y2="94.6381579%" id="linearGradient-2">
            <stop stop-color="#6E9BF8" offset="0%"></stop>
            <stop stop-color="#7AA5FF" stop-opacity="0.882736912" offset="59.5228041%"></stop>
            <stop stop-color="#3470FD" stop-opacity="0.211838942" offset="100%"></stop>
        </linearGradient>
        <linearGradient x1="98.0190269%" y1="50%" x2="0.192673142%" y2="50%" id="linearGradient-3">
            <stop stop-color="#82B2FF" offset="0%"></stop>
            <stop stop-color="#5C8CF4" offset="100%"></stop>
        </linearGradient>
        <linearGradient x1="11.9333883%" y1="59.6251496%" x2="82.5199585%" y2="36.2123853%" id="linearGradient-4">
            <stop stop-color="#82B2FF" offset="0%"></stop>
            <stop stop-color="#5C8CF4" offset="100%"></stop>
        </linearGradient>
        <filter x="-49.8%" y="-192.5%" width="199.6%" height="485.0%" filterUnits="objectBoundingBox" id="filter-5">
            <feGaussianBlur stdDeviation="10 0" in="SourceGraphic"></feGaussianBlur>
        </filter>
        <linearGradient x1="50%" y1="0%" x2="50%" y2="100%" id="linearGradient-6">
            <stop stop-color="#84AFFF" offset="0%"></stop>
            <stop stop-color="#3471FF" offset="100%"></stop>
        </linearGradient>
        <linearGradient x1="50%" y1="0.702069257%" x2="50%" y2="100%" id="linearGradient-7">
            <stop stop-color="#71A2FC" offset="0%"></stop>
            <stop stop-color="#2565FB" offset="100%"></stop>
        </linearGradient>
        <path d="M307.653275,160.686971 L452.653275,167.982715 C459.570308,168.330749 465,174.040507 465,180.966291 L465,344.923111 C465,351.845401 459.575602,357.553564 452.662302,357.906229 L307.662302,365.303051 C300.491924,365.66883 294.382661,360.152613 294.016882,352.982235 C294.005629,352.761647 294,352.540808 294,352.319933 L294,173.670546 C294,166.490845 299.820298,160.670546 307,160.670546 C307.217861,160.670546 307.435689,160.676023 307.653275,160.686971 Z" id="path-8"></path>
        <filter x="-1.2%" y="-0.6%" width="102.3%" height="101.3%" filterUnits="objectBoundingBox" id="filter-9">
            <feGaussianBlur stdDeviation="1.5" in="SourceAlpha" result="shadowBlurInner1"></feGaussianBlur>
            <feOffset dx="0" dy="1" in="shadowBlurInner1" result="shadowOffsetInner1"></feOffset>
            <feComposite in="shadowOffsetInner1" in2="SourceAlpha" operator="arithmetic" k2="-1" k3="1" result="shadowInnerInner1"></feComposite>
            <feColorMatrix values="0 0 0 0 0.105882353   0 0 0 0 0.317647059   0 0 0 0 0.796078431  0 0 0 1 0" type="matrix" in="shadowInnerInner1"></feColorMatrix>
        </filter>
    </defs>
    <g id="页面-1" stroke="none" stroke-width="1" fill="none" fill-rule="evenodd">
        <g id="登录页" transform="translate(-289.000000, -197.000000)" fill-rule="nonzero">
            <g id="插画" transform="translate(291.000000, 197.000000)">
                <g id="bg14">
                    <path d="M0.565754181,498 C0.565754181,498 8.67953815,376.941968 72.2375125,388.951694 C135.416844,400.884557 128.132469,461.970824 160.587605,454.2846 C193.04274,446.598375 195.684228,364.173228 208.368777,265.972106 C219.376477,180.760702 263.199926,206.855433 271.367802,234.333685 C278.237472,257.373142 280.942067,329.863845 307.086482,334.667735 C333.230897,339.471625 342.246212,284.707277 344.049275,257.805492 C345.852338,230.903708 354.867654,121.375012 387.773556,119.933845 C418.876394,118.56954 432.399367,167.492358 432.399367,260.687826 C432.399367,353.883295 436.005494,414.412311 450.429998,439.39254 C464.854503,464.372769 483.786666,457.647323 489.646621,454.2846 C496.940011,450.095607 518.946396,410.569199 524.355586,312.56984 C529.764775,214.570481 565.826037,228.982151 573.939821,243.393822 C582.053605,257.805492 604.141128,337.06968 631.187075,335.148124 C658.233021,333.226568 665.896039,314.491396 670.403697,270.295607 C674.911355,226.099817 681.591704,116.6672 715.93104,118.012289 C751.505475,119.405417 765.803766,292.508795 765.19974,344.544533 C764.433438,410.194496 794.866851,452.799629 817.565754,478.911831" id="Path" stroke="url(#linearGradient-2)" stroke-width="5" fill-opacity="0.35" fill="url(#linearGradient-1)"></path>
                    <circle id="Oval" fill="#5C8CF4" cx="169.78" cy="511.38" r="13"></circle>
                    <circle id="Oval" fill="#5C8CF4" cx="54" cy="372" r="13"></circle>
                    <circle id="Oval" fill="#BAC6F2" cx="342.78" cy="385.38" r="13"></circle>
                    <circle id="Oval" fill="#5C8CF4" cx="262.84" cy="256.48" r="13"></circle>
                    <circle id="Oval" fill="#BAC6F2" cx="428.97" cy="165.25" r="13"></circle>
                    <circle id="Oval" fill="#BAC6F2" cx="613.78" cy="284.38" r="13"></circle>
                    <circle id="Oval" fill="#4478EB" cx="715" cy="429" r="13"></circle>
                    <circle id="Oval" fill="#5C8CF4" cx="793" cy="139" r="13"></circle>
                    <circle id="Oval" fill="#5C8CF4" cx="172" cy="230" r="13"></circle>
                    <path d="M141.58,66.94 C156.857607,66.94 170.463638,74.0968684 179.228316,85.2408289 C182.44332,84.2520767 185.859523,83.72 189.4,83.72 C208.498007,83.72 223.98,99.2019934 223.98,118.3 C223.98,137.398007 208.498007,152.88 189.4,152.88 C184.078101,152.88 179.036995,151.67778 174.53345,149.530106 C165.95156,157.679964 154.34969,162.68 141.58,162.68 C115.142129,162.68 93.71,141.247871 93.71,114.81 C93.71,88.372129 115.142129,66.94 141.58,66.94 Z" id="形状结合" fill="url(#linearGradient-3)"></path>
                    <path d="M710.34,0.78 C725.617607,0.78 739.223638,7.93686844 747.988316,19.0808289 C751.20332,18.0920767 754.619523,17.56 758.16,17.56 C777.258007,17.56 792.74,33.0419934 792.74,52.14 C792.74,71.2380066 777.258007,86.72 758.16,86.72 C752.838101,86.72 747.796995,85.5177796 743.29345,83.3701059 C734.71156,91.5199644 723.10969,96.52 710.34,96.52 C683.902129,96.52 662.47,75.087871 662.47,48.65 C662.47,22.212129 683.902129,0.78 710.34,0.78 Z" id="形状结合" fill="url(#linearGradient-4)"></path>
                </g>
                <ellipse id="椭圆形" fill="#476CBC" filter="url(#filter-5)" cx="480.133334" cy="578.793103" rx="30.1333335" ry="7.79310349"></ellipse>
                <path d="M287.282731,117.501819 L611.282731,140.400967 C622.914926,141.151285 632,150.837861 632,162.489878 L632,366.396594 C632,377.961027 623.046629,387.496701 611.509448,388.219795 L287.509448,410.526542 C275.387816,411.286267 264.885489,402.0715 264.051844,389.944785 C264.017291,389.442166 264,388.938615 264,388.43502 L264,139.322408 C264,127.172144 273.849736,117.382474 286,117.454526 C286.42785,117.459178 286.855609,117.474268 287.282731,117.501819 Z" id="矩形" fill="#2B63DD"></path>
                <path d="M601.889621,148.391234 L620.282731,149.283165 C631.914926,149.962547 639.380859,155.7562 642,168.245738 L642,186.169922 M311.092905,417.761263 L297.509448,419.383176 C285.387816,420.216822 274.885489,411.0661 274.051844,398.944468 C274.017291,398.442061 274,397.938615 274,397.43502 L274,382.332031" id="形状" stroke="#85ACF9" stroke-width="10"></path>
                <path d="M297.282731,126.499594 L621.282731,149.36779 C632.914926,150.116997 642,159.802705 642,171.454722 L642,377.361438 C642,388.925871 633.046629,398.4624 621.509448,399.186596 L297.509448,419.524296 C285.387816,420.285179 274.885489,411.071416 274.051844,398.94478 C274.017291,398.442164 274,397.938615 274,397.43502 L274,148.322408 C274,136.172144 283.849736,126.381533 296,126.451725 C296.42785,126.457036 296.855609,126.472084 297.282731,126.499594 Z" id="矩形" fill="url(#linearGradient-6)"></path>
                <path d="M274.051844,398.944784 C274.017291,398.442166 274,397.938615 274,397.43502 L274,381.699219 L274,148.322408 C274,136.172144 283.849736,126.382301 296,126.45415 C296.42785,126.458783 296.855609,126.473865 297.282731,126.501408 L621.282731,149.394847 C632.914926,150.14496 642,159.831376 642,171.483393 L642,358.214218 L642,377.390109" id="路径" fill="url(#linearGradient-7)"></path>
                <path d="M560,184.155433 L618,187.05923 C620.209139,187.169832 622,188.882601 622,190.884808 L622,247.077215 C622,249.079422 620.209139,250.693855 618,250.683204 L560,250.402139 C557.790861,250.391435 556,248.683293 556,246.586896 L556,187.751034 C556,185.654637 557.790861,184.044832 560,184.155433 Z" id="矩形" fill-opacity="0.8" fill="#8AB0FF"></path>
                <path d="M481,264.98062 L539,264.699557 C541.209139,264.688904 543,266.394732 543,268.509681 L543,327.866225 C543,329.981174 541.209139,331.78534 539,331.895941 L481,334.799738 C478.790861,334.91034 477,333.209139 477,331 L477,269 C477,266.790861 478.790861,264.991323 481,264.98062 Z" id="矩形" fill-opacity="0.8" fill="#8AB0FF"></path>
                <path d="M481,183.98062 L539,184.699607 C541.209139,184.688904 543,186.394732 543,188.509681 L543,246.866225 C543,248.981174 541.209139,250.78534 539,250.895941 L481,251.799738 C478.790861,251.91034 477,250.209139 477,248 L477,188 C477,185.790861 478.790861,183.991323 481,183.98062 Z" id="矩形" fill-opacity="0.8" fill="#8AB0FF"></path>
                <path d="M560,264.597861 L618,264.316796 C620.209139,264.306145 622,265.920578 622,267.922785 L622,324.115192 C622,326.117399 620.209139,327.830168 618,327.94077 L560,330.844567 C557.790861,330.955168 556,329.345363 556,327.248966 L556,268.413104 C556,266.316707 557.790861,264.608565 560,264.597861 Z" id="矩形" fill-opacity="0.8" fill="#8AB0FF"></path>
                <path d="M510,313.561447 C518.164435,313.259323 524.782609,306.600533 524.782609,298.688116 C524.782609,290.7757 518.164435,284.480317 510,284.626507 C501.835565,284.772696 495.217391,291.431486 495.217391,299.499837 C495.217391,307.568188 501.835565,313.863571 510,313.561447 Z M510,315.731567 C500.611565,316.092434 493,308.852111 493,299.560716 C493,290.269321 500.611565,282.611043 510,282.456386 C519.388435,282.301729 527,289.542052 527,298.627237 C527,307.712423 519.388435,315.370701 510,315.731567 Z" id="形状" fill="#4874EF"></path>
                <path d="M517.021739,303.941338 L501.5,304.419371 C500.76087,304.442135 500.391304,304.089536 500.391304,303.361574 C500.391304,302.633613 500.76087,302.258779 501.5,302.237075 L517.021739,301.781276 C517.76087,301.759571 518.130435,302.108465 518.130435,302.827956 C518.130435,303.547447 517.76087,303.918575 517.021739,303.941338 Z" id="路径" fill="#4874EF"></path>
                <path d="M505.306924,308.504787 L500.864448,304.279903 C500.341804,303.781181 500.341804,303.266418 500.864448,302.736142 C501.387093,302.20622 501.909737,302.190884 502.432381,302.689605 L506.874856,306.914489 C507.3975,307.409858 507.3975,307.922239 506.874856,308.452162 C506.352212,308.982437 505.829568,309.000155 505.306924,308.504787 Z" id="路径" fill="#4874EF"></path>
                <path d="M501.5,295.690186 L517.021739,295.301089 C517.76087,295.282561 518.130435,295.633042 518.130435,296.352534 C518.130435,297.072025 517.76087,297.441564 517.021739,297.461152 L501.5,297.872482 C500.76087,297.892069 500.391304,297.537882 500.391304,296.809921 C500.391304,296.081959 500.76087,295.708714 501.5,295.690186 Z" id="路径" fill="#4874EF"></path>
                <path d="M517.533117,295.339046 C518.055761,295.834709 518.055761,296.343492 517.533117,296.865923 C517.010473,297.388706 516.487829,297.402531 515.965184,296.906868 L511.522709,292.679481 C511.000065,292.180465 511.000065,291.6693 511.522709,291.146517 C512.045353,290.624086 512.567998,290.612643 513.090642,291.111659 L517.533117,295.339046 Z" id="路径" fill="#4874EF"></path>
                <path d="M605.923859,224.66237 L605.138039,222.886988 L602.714136,223.344846 C602.368182,222.897379 601.947181,222.49679 601.461812,222.149329 L602.012154,219.933769 L600.102069,219.147546 L598.792696,221.047063 C598.193681,220.944601 597.594818,220.927031 597.009801,220.990285 L595.708805,219.015604 L593.792758,219.686846 L594.318122,221.935068 C593.84011,222.245608 593.411752,222.626315 593.045914,223.068969 L590.645403,222.485193 L589.847585,224.235262 L591.922894,225.523124 C591.829359,226.075721 591.830642,226.631236 591.917876,227.179522 L589.818872,228.336601 L590.603258,230.130139 L593.02203,229.687688 C593.373267,230.134387 593.792645,230.534885 594.280617,230.878956 L593.712882,233.099354 L595.621609,233.867496 L596.969656,231.959303 C597.564746,232.052821 598.16493,232.061261 598.746287,231.988646 L600.077279,233.957418 L601.991025,233.265906 L601.428156,231.02361 C601.900131,230.712128 602.323169,230.335567 602.681914,229.899818 L605.122041,230.452861 L605.918652,228.718307 L603.802217,227.46076 C603.894469,226.916229 603.894469,226.372345 603.809726,225.835475 L605.923859,224.66237 Z M596.396675,229.735892 C594.444331,228.942424 593.520983,226.847785 594.338534,225.054906 C595.155935,223.270121 597.404126,222.475372 599.358394,223.276073 C601.31236,224.076162 602.234049,226.161404 601.416686,227.942053 C600.599361,229.72331 598.352302,230.527394 596.396675,229.735892 Z" id="形状" fill="#4874EF"></path>
                <polygon id="路径" fill="#4874EF" points="579.945923 211.901326 594.218022 212.35169 594.218022 214.708316 579.945923 214.281459"></polygon>
                <polygon id="路径" fill="#4874EF" points="579.945923 218.609805 589.793064 218.874822 589.793064 221.238737 579.945923 220.989939"></polygon>
                <polygon id="路径" fill="#4874EF" points="579.945923 224.559999 587.079124 224.722603 587.079124 227.090987 579.945923 226.940132"></polygon>
                <path d="M577.099208,231.510458 C575.69264,231.48521 574.300826,230.102787 574.300826,228.784632 L574.300826,210.81541 L581.767802,204.081204 L593.921118,204.531046 C595.327987,204.58312 596.737611,206.009407 596.737611,207.307314 L596.737611,216.468205 L596.737422,217.094195 L599.020364,217.158781 L599.020364,207.387502 C599.020364,204.797923 596.732065,202.602184 593.921118,202.494138 L582.198868,202.043566 C580.843954,201.991487 579.544316,203.118049 577.363172,205.117527 C577.057025,205.397432 576.745934,205.684448 576.429599,205.966816 C576.115716,206.251518 575.797004,206.531657 575.486064,206.807427 C573.259983,208.77512 572,209.953063 572,211.224117 L572,228.739089 C572,231.377597 574.28811,233.563039 577.099321,233.609425 L589.781745,233.818691 L589.781745,231.738111 L577.099208,231.510458 Z" id="路径" fill="#4874EF"></path>
                <path d="M523.157677,207.736342 C522.791792,206.080659 521.245157,204.88849 519.516737,204.930751 L516.739509,204.833837 L516.739509,204.84567 L516.739509,204.833837 C516.200129,201.741272 513.468112,199.389008 510.270772,199.266165 C507.073433,199.143322 504.341415,201.303307 503.802036,204.382372 L500.906477,204.281329 C499.178189,204.117369 497.631807,205.220254 497.265537,206.87896 L495.065802,227.599739 C494.947942,228.534758 495.246786,229.482045 495.885014,230.195931 C496.618011,230.995671 497.655973,231.453578 498.738095,231.455207 L521.685119,231.846536 C522.76719,231.881286 523.80505,231.466624 524.5382,230.70724 C525.175717,230.029462 525.474457,229.112213 525.357412,228.191366 L523.157677,207.736342 Z M506.109987,204.463903 C506.614191,202.634434 508.319514,201.413081 510.267738,201.48508 C512.215963,201.557079 513.921285,202.8983 514.425489,204.754075 L506.109987,204.463903 L506.109987,204.475819 L506.109987,204.463903 Z M521.683096,229.646924 L498.736072,229.222042 C498.300629,229.230132 497.878675,229.055419 497.575017,228.741196 C497.368741,228.511553 497.273007,228.206035 497.313071,227.905304 L499.512806,207.214672 C499.548204,206.91665 500.119629,206.487969 500.905466,206.514241 L506.172692,206.690334 L506.172692,206.683383 L506.172692,206.690334 L516.700066,207.042283 L516.700066,207.03538 L516.700066,207.042283 L519.515726,207.136416 C520.299539,207.16262 520.871976,207.625254 520.908385,207.919495 L523.10812,228.404693 C523.148156,228.70157 523.052407,228.998005 522.846174,229.215724 C522.540494,229.514484 522.118539,229.670887 521.683096,229.646924 Z" id="形状" fill="#4874EF"></path>
                <path d="M514.729912,215.212109 C514.729912,215.212109 511.784797,215.935977 511.236633,213.159787 L509.529437,213.109813 C509.411858,213.862519 508.94822,214.511514 508.27048,214.872264 C507.592739,215.233353 506.775117,215.266317 506.050316,214.961291 C505.181547,216.360824 505.152218,216.405737 505.150191,216.405683 C505.148172,216.405628 507.505681,218.08446 505.150191,220.215274 L506.06043,221.714238 C506.06043,221.714238 508.658645,220.676014 509.511232,223.697792 L511.248769,223.736522 C511.37941,222.994519 511.843418,222.356462 512.513907,221.996993 C513.184396,221.637856 513.991214,221.59456 514.71373,221.878481 C515.54609,220.511588 515.560249,220.498119 515.560249,220.498119 C514.960244,220.015079 514.611609,219.296538 514.613185,218.546498 C514.61476,217.796459 514.966372,217.097372 515.56834,216.647719 C515.264555,216.18284 514.984719,215.703682 514.729912,215.212109 Z M508.510711,219.12453 C508.202794,218.387871 508.372996,217.553383 508.941952,217.010776 C509.510907,216.468588 510.36657,216.325096 511.109947,216.646622 C511.853323,216.967852 512.338017,217.690133 512.338017,218.476909 C512.337459,219.550995 511.447115,220.399779 510.348648,220.373417 C509.544023,220.353707 508.818627,219.860893 508.510711,219.12453 Z" id="形状" fill="#4874EF"></path>
                <path d="M602.544141,287.96146 L589.369141,281.346 C589.156641,281.152427 588.731641,281.159428 588.306641,281.166429 C587.881641,281.17343 587.669141,281.17693 587.244141,281.381298 L574.069141,288.571255 C573.431641,288.983431 573.006641,289.590611 573.006641,290.387894 L573.006641,304.340333 C573.006641,305.137616 573.431641,305.721458 574.069141,306.098629 L587.031641,312.57328 C587.456641,312.754339 587.881641,312.738003 588.306641,312.721667 C588.731641,312.705331 589.156641,312.688996 589.369141,312.483753 L602.331641,305.151966 C602.969141,304.740197 603.394141,304.140631 603.394141,303.360035 L603.394141,289.699599 C603.606641,289.109426 603.181641,288.338164 602.544141,287.96146 Z M601.694141,303.414877 L588.731641,310.733712 C588.731641,310.733712 588.519141,310.93878 588.306641,310.946685 C588.306641,310.946685 588.094141,310.757341 587.881641,310.765217 L574.919141,304.278636 L574.919141,290.344574 L588.094141,283.142423 L588.306641,282.941411 C588.306641,282.941411 588.519141,283.134839 588.731641,283.131047 L601.694141,289.738105 L601.694141,303.414877 Z M581.931641,292.760977 C581.506641,292.573208 580.869141,292.786939 580.656641,293.188673 C580.231641,293.595832 580.444141,294.185421 580.869141,294.372869 L587.244141,297.762684 L587.244141,304.078399 C587.244141,304.078399 587.669141,304.656553 588.306641,304.635637 C588.944141,304.614722 589.369141,304.009555 589.369141,304.009555 L589.369141,297.5061 L595.744141,293.796861 C596.169141,293.589927 596.381641,292.996224 596.169141,292.609222 C595.956641,292.222104 595.319141,292.041336 594.894141,292.24792 L588.306641,295.760727 L581.931641,292.760977 Z" id="形状" fill="#4874EF"></path>
                <g id="矩形">
                    <use fill="#345FC1" xlink:href="#path-8"></use>
                    <use fill="black" fill-opacity="1" filter="url(#filter-9)" xlink:href="#path-8"></use>
                </g>
                <g id="编组" transform="translate(314.000000, 189.000000)" fill="#7AA5FB" fill-opacity="0.62">
                    <path d="M10.1015965,134.52146 L131.463429,127.4669 C133.969714,127.310597 136,129.841701 136,133.128448 C136,136.404166 133.969714,139.179138 131.463429,139.323011 L4.53657143,145.995723 C2.03028571,146.115541 0,143.703162 0,140.611026 L0,6.05624993 C0,2.96411372 2.03028571,0.300435654 4.53657143,0.0232382016 C7.03314286,-0.253418956 10.1015965,1.97052185 10.1015965,5.07473479 L10.1015965,134.52146 Z M34.8335098,73.6390195 L24.589738,90.0701798 C23.6839504,91.5614023 22.1868369,92.5053263 20.6058978,92.5826926 L4.63872818,93.1683533 C1.99357526,93.2634256 -0.0647963252,90.8326162 0.0434815842,87.7319426 C0.151396145,84.6416739 2.38694442,82.0468578 5.03255131,81.9388412 L18.5388732,81.3786533 L32.039187,59.7011276 C33.0038663,58.0558289 34.6733554,57.0545138 36.3771977,57.1003276 C38.0810414,57.1461021 39.539637,58.2344679 40.1672241,59.9292051 L50.601039,85.0233489 L71.3776897,19.8994307 C72.0215867,17.5624531 73.9524636,15.838858 76.0829749,15.6997581 C78.2134887,15.5605844 80.0106833,17.0462007 80.4624645,19.3213464 L94.3547416,76.2617896 L129.727619,74.4801645 C132.37426,74.3426852 134.429006,76.8760931 134.314299,80.1608555 C134.199593,83.4456179 131.958304,86.2032735 129.31213,86.327465 L90.4847203,88.0837077 C88.3656191,88.1139932 86.5839828,86.5824172 86.0897154,84.3067377 L75.124102,39.4411202 L55.4758253,101.048273 C53.9390613,105.838519 48.4883093,106.509668 46.6883387,102.156192 L34.8239224,73.6394639 L34.8335098,73.6390195 Z" id="形状"></path>
                </g>
                <circle id="椭圆形" stroke-opacity="0.79" stroke="#FFFFFF" cx="386" cy="257" r="8.5"></circle>
                <circle id="椭圆形" fill-opacity="0.79" fill="#FFFFFF" cx="386" cy="257" r="6"></circle>
                <line x1="473.992981" y1="395.895517" x2="620.027442" y2="384.804292" id="直线" stroke="#2B63DD" stroke-linecap="square" transform="translate(547.010211, 390.349905) rotate(0.343240) translate(-547.010211, -390.349905) "></line>
                <circle id="椭圆形" stroke="#2B63DD" cx="625" cy="384" r="5.5"></circle>
                <path d="M409.080217,380.852004 L408.038397,388.234033 L405.51831,388.404226 L406.571346,380.942721 L409.080217,380.852004 Z M403.226185,381.063678 L402.158194,388.63115 L399.638107,388.801343 L400.717314,381.154395 L403.226185,381.063678 Z M397.372154,381.275351 L396.277991,389.028266 L393.757904,389.198459 L394.863283,381.366068 L397.372154,381.275351 Z M391.518122,381.487025 L390.397788,389.425383 L387.877701,389.595576 L389.009251,381.577742 L391.518122,381.487025 Z M385.66409,381.698698 L384.517585,389.8225 L381.997498,389.992693 L383.15522,381.789416 L385.66409,381.698698 Z M379.810059,381.910372 L378.637382,390.219617 L376.117295,390.38981 L377.301188,382.001089 L379.810059,381.910372 Z M373.956027,382.122045 L372.757179,390.616733 L370.237092,390.786926 L371.447157,382.212763 L373.956027,382.122045 Z M368.101996,382.333719 L366.876976,391.01385 L364.356889,391.184043 L365.593125,382.424436 L368.101996,382.333719 Z M362.247964,382.545393 L360.996773,391.410967 L358.476686,391.58116 L359.739093,382.63611 L362.247964,382.545393 Z M356.393932,382.757066 L355.11657,391.808084 L352.596483,391.978277 L353.885062,382.847783 L356.393932,382.757066 Z M350.539901,382.96874 L349.236367,392.2052 L346.71628,392.375393 L348.03103,383.059457 L350.539901,382.96874 Z M344.685869,383.180413 L343.356164,392.602317 L340.836077,392.77251 L342.176999,383.271131 L344.685869,383.180413 Z M338.831838,383.392087 L337.475961,392.999434 L334.955874,393.169627 L336.322967,383.482804 L338.831838,383.392087 Z M332.977806,383.60376 L331.595758,393.396551 L329.075671,393.566743 L330.468935,383.694478 L332.977806,383.60376 Z M327.123774,383.815434 L325.715555,393.793667 L323.195468,393.96386 L324.614904,383.906151 L327.123774,383.815434 Z M321.269743,384.027108 L319.835352,394.190784 L317.315265,394.360977 L318.760872,384.117825 L321.269743,384.027108 Z M315.415711,384.238781 L313.955149,394.587901 L311.435062,394.758094 L312.906841,384.329498 L315.415711,384.238781 Z M309.56168,384.450455 L308.074946,394.985018 L305.554859,395.15521 L307.052809,384.541172 L309.56168,384.450455 Z M303.707648,384.662128 L302.194743,395.382134 L299.674656,395.552327 L301.198777,384.752846 L303.707648,384.662128 Z M297.853617,384.873802 L296.31454,395.779251 L293.794453,395.949444 L295.344746,384.964519 L297.853617,384.873802 Z" id="形状结合" fill-opacity="0.657260708" fill="#1B54CF" transform="translate(351.437335, 388.400724) rotate(-1.000000) translate(-351.437335, -388.400724) "></path>
                <path d="M629.285764,152 L628.243945,159.382029 L625.723858,159.552222 L626.776893,152.090717 L629.285764,152 Z M623.431732,152.211674 L622.363741,159.779146 L619.843654,159.949339 L620.922862,152.302391 L623.431732,152.211674 Z M617.577701,152.423347 L616.483538,160.176262 L613.963451,160.346455 L615.06883,152.514064 L617.577701,152.423347 Z M611.723669,152.635021 L610.603335,160.573379 L608.083248,160.743572 L609.214799,152.725738 L611.723669,152.635021 Z M605.869638,152.846694 L604.723132,160.970496 L602.203045,161.140689 L603.360767,152.937412 L605.869638,152.846694 Z M600.015606,153.058368 L598.842929,161.367613 L596.322842,161.537806 L597.506735,153.149085 L600.015606,153.058368 Z M594.161574,153.270041 L592.962726,161.764729 L590.442639,161.934922 L591.652704,153.360759 L594.161574,153.270041 Z M588.307543,153.481715 L587.082523,162.161846 L584.562436,162.332039 L585.798672,153.572432 L588.307543,153.481715 Z M582.453511,153.693389 L581.20232,162.558963 L578.682233,162.729156 L579.944641,153.784106 L582.453511,153.693389 Z M576.59948,153.905062 L575.322117,162.95608 L572.80203,163.126272 L574.090609,153.995779 L576.59948,153.905062 Z M570.745448,154.116736 L569.441914,163.353196 L566.921827,163.523389 L568.236577,154.207453 L570.745448,154.116736 Z M564.891417,154.328409 L563.561711,163.750313 L561.041624,163.920506 L562.382546,154.419127 L564.891417,154.328409 Z M559.037385,154.540083 L557.681508,164.14743 L555.161421,164.317623 L556.528514,154.6308 L559.037385,154.540083 Z M553.183353,154.751756 L551.801305,164.544547 L549.281218,164.714739 L550.674483,154.842474 L553.183353,154.751756 Z M547.329322,154.96343 L545.921102,164.941663 L543.401015,165.111856 L544.820451,155.054147 L547.329322,154.96343 Z M541.47529,155.175104 L540.040899,165.33878 L537.520812,165.508973 L538.966419,155.265821 L541.47529,155.175104 Z M535.621259,155.386777 L534.160696,165.735897 L531.640609,165.90609 L533.112388,155.477494 L535.621259,155.386777 Z M529.767227,155.598451 L528.280493,166.133014 L525.760406,166.303206 L527.258356,155.689168 L529.767227,155.598451 Z M523.913195,155.810124 L522.40029,166.53013 L519.880203,166.700323 L521.404325,155.900841 L523.913195,155.810124 Z M518.059164,156.021798 L516.520087,166.927247 L514,167.09744 L515.550293,156.112515 L518.059164,156.021798 Z" id="形状结合" fill-opacity="0.431189904" fill="#1B54CF" transform="translate(571.642882, 159.548720) rotate(184.000000) translate(-571.642882, -159.548720) "></path>
                <g id="man-with-a-hand-up" transform="translate(314.000000, 253.000000)">
                    <g id="man_hand_up">
                        <path d="M123.089219,317.672862 C122.97026,314.817844 122.613383,311.903346 122.018587,309.107807 L110.717472,309.345725 C110.717472,309.345725 110.360595,315.531599 105.245353,316.542751 L103.104089,317.197026 C100.427509,317.732342 97.2156134,318.684015 95.3717472,319.933086 C95.3122677,319.457249 95.3122677,319.040892 95.3122677,318.624535 C95.133829,315.531599 94.5390335,312.498141 93.5873606,309.524164 L80.9182156,310 C80.9182156,310 81.5724907,315.947955 76.4572491,316.959108 L74.2565056,317.553903 C69.4386617,318.505576 63.0743494,320.70632 65.7509294,324.037175 C67.8327138,326.535316 89.4237918,327.665428 93.2899628,326.951673 C94.7769517,326.713755 95.3122677,325.643123 95.4907063,324.275093 C100.070632,326.297398 118.152416,326.773234 121.66171,326 C124.457249,325.345725 123.208178,320.944238 123.089219,317.672862 Z" id="Path" fill="#3E517C"></path>
                        <path d="M76.3828125,228.033438 C75.8474965,232.434925 79.7286245,252.070632 79.7286245,256.412639 C79.7286245,260.754647 83,310.178439 83,310.178439 L93.7063197,310.178439 C93.7063197,310.178439 82.7620818,241.934371 83,238.603516 C83.2379182,235.272661 95.1333333,187.412639 95.1333333,187.412639 C95.1333333,187.412639 111.847584,179.977695 111.847584,183.36803 C111.847584,186.758364 110.881163,309.107807 110.881163,309.107807 L121.959108,309.345725 L128.429687,167.784387 L137.66171,163.501859 L90,156.883967 C98.9007348,158.474253 76.9181285,218.657993 76.3828125,223 L76.3828125,228.033438 Z" id="Path" fill="#E0CECC"></path>
                        <path d="M72.6505576,254.739777 C72.6505576,259.081784 80.7992565,305.773234 80.7992565,305.773234 C83.7997621,306.497948 85.9298276,306.831281 87.1894531,306.773234 C88.7980639,306.699105 90.9703527,306.167506 93.7063197,305.178439 C93.7063197,305.178439 91.1486989,236.479554 91.3866171,233.148699 C91.6245353,229.817844 105.780669,189.907063 105.780669,189.907063 C105.780669,189.907063 106.791822,200.434944 106.791822,203.825279 C106.791822,207.215613 110.717472,304.345725 110.717472,304.345725 C113.466738,305.012392 115.528687,305.345725 116.90332,305.345725 C118.026829,305.345725 119.712091,305.012392 121.959108,304.345725 L137.959108,161.237918 L137.66171,158.501859 L78.598513,150.293603 C78.6579926,150.234201 70.330855,218.754647 69.795539,223.096654 C69.260223,227.498141 72.6505576,250.39777 72.6505576,254.739777 Z" id="Path" fill="#46639A"></path>
                        <path d="M149.379182,136.260223 L137.72119,167.903346 L135.698885,183.36803 L145.513011,174.743494 C146.048327,174.267658 147.118959,171.828996 147.713755,170.579926 L153.60223,154.104089 L157.944238,127.814126 C157.944238,127.814126 151.342007,115.918216 143.609665,101.94052 L149.379182,136.260223 Z M143.609665,101.94052 L143.133829,99.1449814 L141.944238,98.9070632 L143.609665,101.94052 L143.609665,101.94052 Z M104.055762,22.1784387 C102.211896,22 100.36803,22 98.5241636,22.2973978 C97.9888476,22.4163569 96.2639405,25.9256506 95.0743494,28.4237918 C93.527881,31.6356877 93.2304833,36.7509294 93.2304833,40.0223048 C93.2304833,44.1263941 97.3345725,48.7657993 102.449814,52.0371747 C104.710037,53.464684 103.282528,61.0185874 102.152416,61.732342 C101.022305,62.4460967 79.3122677,78.5055762 79.3122677,78.5055762 L63.669145,69.9405204 L21.0817844,33.4200743 L18.9405204,30.7434944 C18.9405204,30.7434944 11.1821561,12.4609665 9.39776952,11.6282528 C6.30483271,10.2007435 2.88059089,16.1451425 1.18959108,20.6579926 C-7.62723218e-14,23.8327098 0.583643123,29.2936803 2.48698885,31.4944238 L12.7546468,39.5464684 L58.3159851,76.9591078 L70.9851301,81.0037175 L85.3791822,88.8550186 L141.884758,98.9665428 C131.832714,80.7657993 120.531599,60.3643123 119.520446,58.2230483 C118.628253,56.4981413 118.449814,54.535316 118.925651,52.6914498 C119.639405,50.133829 120.650558,47.6356877 121.899628,45.2565056 C122.791822,44.0074349 123.267658,41.6282528 123.505576,40.260223 C123.743494,38.8921933 123.743494,39.3085502 122.553903,40.4981413 C122.197026,40.795539 121.185874,40.8550186 120.710037,38.7732342 C120.234201,36.6914498 113.988848,33.7174721 110.95539,31.1003717 C110.95539,31.1003717 107.743494,30.267658 104.472119,29.1375465 L104.055762,22.1784387 Z" id="Shape" fill="#FDC5BE"></path>
                        <path d="M84.070632,63.33829 C80.4423792,63.6951673 78.3011152,63.0408922 74.0185874,62.0892193 C70.5687732,61.2565056 64.204461,59.8884758 62.0037175,58.9962825 C52.5464684,55.2490706 20.4275093,32.7657993 19.1189591,30.6245353 C18.4052045,29.4349442 12.8141264,36.2156134 12.4569766,39.2490706 C12.3977695,40.0817844 22.0929368,50.5501859 26.1375465,55.1301115 C26.8513011,55.9628253 32.9182156,62.3271375 35.1189591,63.9925651 C39.9962825,67.6802974 51.8327138,75.1747212 55.1040892,77.2565056 C57.6022305,78.8624535 65.5724907,83.0260223 74.6133829,85.7620818 C80.6802974,87.605948 82.2862454,89.0929368 84.1895911,93.2565056 C86.2118959,97.7174721 77.3494424,149.167286 77.3494424,149.167286 C77.3494424,149.167286 77.1115242,158.565056 78.9553903,159.516729 C80.5613383,160.349442 99.535316,165.881041 104.115242,167.605948 C107.446097,168.141264 110.776952,168.438662 114.167286,168.6171 L138.078067,165.286245 C138.078067,165.286245 137.72119,120.022305 138.137546,112.468401 C138.553903,105.033457 137.60223,100.929368 138.910781,102.951673 C140.39777,105.211896 146.643123,125.553903 146.643123,129.003717 C146.643123,132.453532 139.802974,162.490706 139.802974,162.490706 L148.962825,167.546468 C148.962825,167.546468 161.334572,134.535316 162.048327,130.133829 C162.762082,125.732342 162.94052,123.472119 160.918216,119.130112 C158.895911,114.788104 147.594796,75.2936803 147.594796,75.2936803 C147.594796,75.2936803 146.464684,70.4758364 138.197026,67.9776952 C129.929368,65.4795539 121.899628,58.6394052 112.620818,63.9925651 C103.04461,69.464684 99.1189591,63.8141264 99.1189591,63.8141264 C99.1189591,63.8141264 89.66171,64.2899628 84.3680297,63.4572491" id="Path" fill="#FDC5BE"></path>
                        <path d="M84.070632,63.33829 C80.4423792,63.6951673 78.3011152,62.0408922 74.0185874,61.0892193 C70.5687732,60.2565056 60.8855154,81.4551225 64.238302,83.0083674 C67.7019213,84.6129577 70.0194357,85.3718083 74.6133829,86.7620818 C80.6802974,88.605948 82.2862454,89.0929368 84.1895911,93.2565056 C86.2118959,97.7174721 77.3494424,149.167286 77.3494424,149.167286 C77.3494424,149.167286 77.1115242,158.565056 78.9553903,159.516729 C80.5613383,160.349442 99.535316,165.881041 104.115242,167.605948 C107.446097,168.141264 110.776952,168.438662 114.167286,168.6171 L138.078067,165.286245 C138.078067,165.286245 137.72119,120.022305 138.137546,112.468401 C138.553903,105.033457 137.60223,100.929368 138.910781,102.951673 C139.707722,104.163023 139.871431,104.568092 141.707979,110.782933 C143.298192,116.164179 160.589963,107.830617 157.944238,98.9665428 C154.395746,87.0778909 147.594796,75.2936803 147.594796,75.2936803 C147.594796,75.2936803 146.464684,70.4758364 138.197026,67.9776952 C129.929368,65.4795539 121.899628,58.6394052 112.620818,63.9925651 C103.04461,69.464684 99.1189591,63.8141264 99.1189591,63.8141264 C99.1189591,63.8141264 89.66171,64.2899628 84.3680297,63.4572491" id="Path" fill="#FFFFFF"></path>
                        <path d="M121.126394,12.66171 C122.197026,13.4944238 125.408922,16.4684015 126.539033,17.3605948 C127.847584,18.3717472 128.561338,19.7992565 129.69145,21.6431227 C130.286245,22.5947955 131.178439,25.2713755 131.594796,26.3420074 C133.973978,32.4089219 131.654275,35.0260223 129.810409,39.3680297 C127.252788,45.3159851 121.483271,46.2081784 121.007435,47.0408922 C116.427509,45.5539033 115.892193,46.0892193 113.869888,46.7434944 C111.312268,45.0185874 110.182156,42.6988848 108.814126,41.5092937 C109.64684,40.3197026 107.148699,29.3159851 105.304833,35.0855019 C104.531599,32.4684015 102.152416,26.9962825 101.141264,26.2825279 C100.130112,25.5687732 98.9405204,24.6765799 99.0594796,24.260223 C99.5947955,21.8215613 95.5501859,22.1784387 99.1189591,19.6208178 C101.973978,17.5390335 103.104089,12.7211896 106.851301,12.3643123 C109.171004,12.1263941 112.144981,11.8884758 114.524164,11.5315985 C116.189591,11.2936803 117.557621,12.0669145 118.98513,12.2453532 C119.758364,12.3048327 120.472119,12.6022305 121.126394,12.9591078" id="Path" fill="#3F3F3F"></path>
                        <g id="Group" opacity="0.07" transform="translate(79.728625, 187.412639)" fill="#000000">
                            <g id="Path">
                                <path d="M28.0743494,0.356877323 C26.4684015,4.99628253 20.2825279,14.0966543 16.2973978,19.4498141 C12.3122677,24.802974 -0.237918216,36.3420074 0.535315985,50.3197026 C1.30855019,64.2973978 9.81412639,100.223048 9.81412639,103.494424 C9.81412639,106.765799 6.66171004,121.992565 4.28252788,126.69145 C1.90334572,131.390335 2.3197026,136.267658 3.50929368,136.267658 C4.04460967,136.267658 6.00743494,136.981413 8.74349442,136.267658 C10.8252788,135.732342 13.5613383,137.933086 14.6914498,137.39777 C15.5241636,137.040892 15.7026022,134.364312 15.7026022,134.364312 C15.7620818,133.234201 15.6431227,132.104089 15.2862454,131.033457 C14.6914498,129.30855 14.2750929,127.524164 13.9776952,125.739777 C13.5018587,112.594796 12.3717472,82.1412639 12.6096654,80 C13.0260223,76.0148699 9.87360595,55.9107807 12.7286245,46.0371747 C15.5836431,36.1635688 28.0148699,0.356877323 28.0743494,0.356877323"></path>
                            </g>
                        </g>
                        <g id="Group" opacity="0.07" transform="translate(111.847584, 97.003717)" fill="#000000">
                            <g id="Path">
                                <path d="M25.9330855,10.2304833 L25.8141264,56.8624535 C25.8141264,56.8624535 27.0037175,66.7360595 25.33829,67.8066914 C23.6728625,68.8773234 17.070632,69.7100372 15.0483271,69.7100372 C13.6802974,69.7100372 -4.75836431,71.8513011 1.78438662,68.5799257 C4.69888476,67.0929368 23.1375465,56.802974 17.2490706,46.6319703 C11.3605948,36.4609665 14.0966543,23.4944238 18.3791822,14.6914498 C22.66171,5.88847584 25.9925651,0 25.9925651,0 L25.9330855,10.2304833 Z"></path>
                            </g>
                        </g>
                        <path d="M16.6547497,31.8718961 L10.9008825,36.1702957 C10.509843,36.4568557 10.0070779,36.3422317 9.72776399,35.9983597 C9.61603842,35.8837357 9.56017563,35.7117997 9.56017563,35.5398637 L8.94568497,26.9430645 L10.4539802,24.2494007 C10.6215686,23.9055287 10.7332942,23.5043448 10.6774314,23.1604728 L10.2305291,18.9193852 C10.2305291,18.7474492 10.1746663,18.6328252 10.1188035,18.4608892 L8.05188036,12.2497017 C7.99601758,11.7912058 8.3311943,11.3900218 8.7780966,11.3327098 L15.0347288,12.5147697 C15.3326637,12.4765617 15.9622838,14.0287616 16.9235893,17.1713693 L17.0457892,31.1268401 C17.0457892,31.4707121 16.9340636,31.6999601 16.6547497,31.8718961 Z" id="Path" fill="#FDC5BE" transform="translate(12.545789, 23.832710) rotate(-14.000000) translate(-12.545789, -23.832710) "></path>
                        <path d="M7.86322892,2.13046637 L8.01276896,2.21490867 C8.95497297,2.74695266 9.53766077,3.74515406 9.53766077,4.82719805 L9.53766077,14.0759849 C9.53766077,15.1805544 8.64223026,16.0759849 7.53766077,16.0759849 C6.480335,16.0759849 5.6232031,15.2188531 5.6232031,14.1615273 C5.6232031,14.1336396 5.62381246,14.1057553 5.62503073,14.0778942 L6.10479314,3.10605963 C6.133252,2.45522522 6.683928,1.95069015 7.33476241,1.97914901 C7.52037654,1.98726531 7.70144854,2.03911218 7.86322892,2.13046637 Z" id="矩形" fill="#FDC5BE" transform="translate(7.537661, 8.630466) rotate(-19.000000) translate(-7.537661, -8.630466) "></path>
                        <path d="M102.330855,51.0855019 C102.330855,51.0855019 106.672862,50.2527881 108.814126,48.5873606 C110.95539,46.9219331 106.137546,51.739777 104.591078,53.6431227 C103.04461,55.5464684 102.330855,51.0855019 102.330855,51.0855019 Z" id="Path" fill="#000000" opacity="0.07"></path>
                        <path d="M130.405204,183.486989 C130.405204,183.486989 126.122677,200.855019 122.256506,205.97026 C118.152416,211.442379 122.672862,236.60223 118.866171,247.665428 C115.237918,258.133829 120.174721,280.855019 119.282528,288.111524 C118.568773,294.05948 118.449814,306.847584 115.297398,313.98513 C114.226766,316.423792 111.966543,318.208178 111.966543,319.33829 C111.966543,325.702602 120.591078,321.598513 120.591078,321.598513 L121.066914,315.947955 L126.95539,265.98513 L137.840149,166.832714 L130.405204,183.486989 Z" id="Path" fill="#000000" opacity="0.07"></path>
                    </g>
                </g>
            </g>
        </g>
    </g>
</svg>